<svg width="97" height="200" viewBox="0 0 97 200" fill="none" xmlns="http://www.w3.org/2000/svg">
<g id="Property 1=METADE">
<g id="Bolinhas">
<path d="M12.3578 10.4394C12.3578 11.2431 13.0093 11.8946 13.813 11.8946C14.6166 11.8946 15.2681 11.2431 15.2681 10.4394C15.2681 9.63565 14.6166 8.98422 13.813 8.98422C13.0093 8.98422 12.3578 9.63565 12.3578 10.4394ZM12.1961 10.4394C12.1961 9.54641 12.92 8.82253 13.813 8.82253C14.7059 8.82253 15.4298 9.54641 15.4298 10.4394C15.4298 11.3324 14.7059 12.0563 13.813 12.0563C12.92 12.0563 12.1961 11.3324 12.1961 10.4394Z" fill="black"/>
<path d="M11.7758 29.9668C11.7758 31.092 12.6879 32.0041 13.813 32.0041C14.9381 32.0041 15.8502 31.092 15.8502 29.9668C15.8502 28.8416 14.9381 27.9295 13.813 27.9295C12.6879 27.9295 11.7758 28.8416 11.7758 29.9668ZM11.5494 29.9668C11.5494 28.7166 12.5628 27.7032 13.813 27.7032C15.0631 27.7032 16.0766 28.7166 16.0766 29.9668C16.0766 31.2169 15.0631 32.2304 13.813 32.2304C12.5628 32.2304 11.5494 31.2169 11.5494 29.9668Z" fill="black"/>
<path d="M11.1936 49.4942C11.1936 50.9408 12.3663 52.1136 13.813 52.1136C15.2596 52.1136 16.4323 50.9408 16.4323 49.4942C16.4323 48.0476 15.2596 46.8748 13.813 46.8748C12.3663 46.8748 11.1936 48.0476 11.1936 49.4942ZM10.9026 49.4942C10.9026 47.8869 12.2056 46.5838 13.813 46.5838C15.4203 46.5838 16.7233 47.8869 16.7233 49.4942C16.7233 51.1015 15.4203 52.4045 13.813 52.4045C12.2056 52.4045 10.9026 51.1015 10.9026 49.4942Z" fill="black"/>
<path d="M10.6115 69.0217C10.6115 70.7897 12.0449 72.2232 13.813 72.2232C15.581 72.2232 17.0144 70.7897 17.0144 69.0217C17.0144 67.2537 15.581 65.8202 13.813 65.8202C12.0449 65.8202 10.6115 67.2537 10.6115 69.0217ZM10.2559 69.0217C10.2559 67.057 11.8484 65.4646 13.813 65.4646C15.7775 65.4646 17.37 67.057 17.37 69.0217C17.37 70.9864 15.7775 72.5788 13.813 72.5788C11.8484 72.5788 10.2559 70.9864 10.2559 69.0217Z" fill="black"/>
<path d="M10.0295 88.5491C10.0295 90.6385 11.7234 92.3325 13.813 92.3325C15.9026 92.3325 17.5964 90.6385 17.5964 88.5491C17.5964 86.4597 15.9026 84.7657 13.813 84.7657C11.7234 84.7657 10.0295 86.4597 10.0295 88.5491ZM9.60915 88.5491C9.60915 86.2273 11.4912 84.3452 13.813 84.3452C16.1347 84.3452 18.0168 86.2273 18.0168 88.5491C18.0168 90.8709 16.1347 92.753 13.813 92.753C11.4912 92.753 9.60915 90.8709 9.60915 88.5491Z" fill="black"/>
<path d="M9.44742 108.077C9.44742 110.488 11.4019 112.442 13.813 112.442C16.224 112.442 18.1785 110.488 18.1785 108.077C18.1785 105.666 16.224 103.711 13.813 103.711C11.4019 103.711 9.44742 105.666 9.44742 108.077ZM8.96237 108.077C8.96237 105.398 11.134 103.226 13.813 103.226C16.4919 103.226 18.6636 105.398 18.6636 108.077C18.6636 110.756 16.4919 112.927 13.813 112.927C11.134 112.927 8.96237 110.756 8.96237 108.077Z" fill="black"/>
<path d="M8.86534 127.604C8.86534 130.336 11.0804 132.552 13.813 132.552C16.5455 132.552 18.7606 130.336 18.7606 127.604C18.7606 124.872 16.5455 122.656 13.813 122.656C11.0804 122.656 8.86534 124.872 8.86534 127.604ZM8.31558 127.604C8.31558 124.568 10.7768 122.107 13.813 122.107C16.8491 122.107 19.3104 124.568 19.3104 127.604C19.3104 130.64 16.8491 133.101 13.813 133.101C10.7768 133.101 8.31558 130.64 8.31558 127.604Z" fill="black"/>
<path d="M8.28326 147.131C8.28326 150.185 10.7591 152.661 13.813 152.661C16.8669 152.661 19.3427 150.185 19.3427 147.131C19.3427 144.077 16.8669 141.602 13.813 141.602C10.7591 141.602 8.28326 144.077 8.28326 147.131ZM7.66882 147.131C7.66882 143.738 10.4197 140.987 13.813 140.987C17.2063 140.987 19.9571 143.738 19.9571 147.131C19.9571 150.525 17.2063 153.276 13.813 153.276C10.4197 153.276 7.66882 150.525 7.66882 147.131Z" fill="black"/>
<path d="M7.70116 166.659C7.70116 170.034 10.4375 172.771 13.813 172.771C17.1884 172.771 19.9248 170.034 19.9248 166.659C19.9248 163.284 17.1884 160.547 13.813 160.547C10.4375 160.547 7.70116 163.284 7.70116 166.659ZM7.02211 166.659C7.02211 162.908 10.0625 159.868 13.813 159.868C17.5635 159.868 20.6038 162.908 20.6038 166.659C20.6038 170.409 17.5635 173.45 13.813 173.45C10.0625 173.45 7.02211 170.409 7.02211 166.659Z" fill="black"/>
<path d="M7.11908 186.186C7.11908 189.883 10.1161 192.88 13.813 192.88C17.5098 192.88 20.5069 189.883 20.5069 186.186C20.5069 182.489 17.5098 179.493 13.813 179.493C10.1161 179.493 7.11908 182.489 7.11908 186.186ZM6.37535 186.186C6.37535 182.079 9.70526 178.749 13.813 178.749C17.9207 178.749 21.2506 182.079 21.2506 186.186C21.2506 190.294 17.9207 193.624 13.813 193.624C9.70526 193.624 6.37535 190.294 6.37535 186.186Z" fill="black"/>
<path d="M32.0118 10.4394C32.0118 11.1732 32.6066 11.768 33.3405 11.768C34.0743 11.768 34.6691 11.1732 34.6691 10.4394C34.6691 9.70552 34.0743 9.11071 33.3405 9.11071C32.6066 9.11071 32.0118 9.70552 32.0118 10.4394ZM31.8642 10.4394C31.8642 9.62409 32.5252 8.96309 33.3405 8.96309C34.1558 8.96309 34.8168 9.62409 34.8168 10.4394C34.8168 11.2546 34.1558 11.9156 33.3405 11.9156C32.5252 11.9156 31.8642 11.2546 31.8642 10.4394Z" fill="black"/>
<path d="M31.4805 29.9669C31.4805 30.9942 32.3131 31.8268 33.3405 31.8268C34.3678 31.8268 35.2005 30.9942 35.2005 29.9669C35.2005 28.9395 34.3678 28.1069 33.3405 28.1069C32.3131 28.1069 31.4805 28.9395 31.4805 29.9669ZM31.2737 29.9669C31.2737 28.8255 32.1991 27.9001 33.3405 27.9001C34.4819 27.9001 35.4073 28.8255 35.4073 29.9669C35.4073 31.1082 34.4819 32.0336 33.3405 32.0336C32.1991 32.0336 31.2737 31.1082 31.2737 29.9669Z" fill="black"/>
<path d="M30.9489 49.4942C30.9489 50.8151 32.0196 51.8858 33.3405 51.8858C34.6613 51.8858 35.732 50.8151 35.732 49.4942C35.732 48.1734 34.6613 47.1027 33.3405 47.1027C32.0196 47.1027 30.9489 48.1734 30.9489 49.4942ZM30.6832 49.4942C30.6832 48.0266 31.8728 46.8369 33.3405 46.8369C34.8082 46.8369 35.9978 48.0266 35.9978 49.4942C35.9978 50.9619 34.8082 52.1515 33.3405 52.1515C31.8728 52.1515 30.6832 50.9619 30.6832 49.4942Z" fill="black"/>
<path d="M30.4174 69.0217C30.4174 70.6361 31.7261 71.9448 33.3405 71.9448C34.9548 71.9448 36.2635 70.6361 36.2635 69.0217C36.2635 67.4074 34.9548 66.0987 33.3405 66.0987C31.7261 66.0987 30.4174 67.4074 30.4174 69.0217ZM30.0927 69.0217C30.0927 67.2279 31.5467 65.7739 33.3405 65.7739C35.1343 65.7739 36.5883 67.2279 36.5883 69.0217C36.5883 70.8155 35.1343 72.2695 33.3405 72.2695C31.5467 72.2695 30.0927 70.8155 30.0927 69.0217Z" fill="black"/>
<path d="M29.886 88.5491C29.886 90.4571 31.4326 92.0035 33.3405 92.0035C35.2483 92.0035 36.7949 90.4571 36.7949 88.5491C36.7949 86.6411 35.2483 85.0947 33.3405 85.0947C31.4326 85.0947 29.886 86.6411 29.886 88.5491ZM29.5021 88.5491C29.5021 86.4294 31.2208 84.7108 33.3405 84.7108C35.4602 84.7108 37.1788 86.4294 37.1788 88.5491C37.1788 90.6688 35.4602 92.3874 33.3405 92.3874C31.2208 92.3874 29.5021 90.6688 29.5021 88.5491Z" fill="black"/>
<path d="M29.3545 108.077C29.3545 110.278 31.1391 112.063 33.3405 112.063C35.5418 112.063 37.3264 110.278 37.3264 108.077C37.3264 105.875 35.5418 104.091 33.3405 104.091C31.1391 104.091 29.3545 105.875 29.3545 108.077ZM28.9116 108.077C28.9116 105.631 30.8945 103.648 33.3405 103.648C35.7865 103.648 37.7693 105.631 37.7693 108.077C37.7693 110.522 35.7865 112.505 33.3405 112.505C30.8945 112.505 28.9116 110.522 28.9116 108.077Z" fill="black"/>
<path d="M28.823 127.604C28.823 130.099 30.8456 132.121 33.3405 132.121C35.8353 132.121 37.858 130.099 37.858 127.604C37.858 125.109 35.8353 123.086 33.3405 123.086C30.8456 123.086 28.823 125.109 28.823 127.604ZM28.3211 127.604C28.3211 124.832 30.5683 122.585 33.3405 122.585C36.1126 122.585 38.3598 124.832 38.3598 127.604C38.3598 130.376 36.1126 132.623 33.3405 132.623C30.5683 132.623 28.3211 130.376 28.3211 127.604Z" fill="black"/>
<path d="M28.2916 147.131C28.2916 149.92 30.5521 152.18 33.3405 152.18C36.1288 152.18 38.3893 149.92 38.3893 147.131C38.3893 144.343 36.1288 142.083 33.3405 142.083C30.5521 142.083 28.2916 144.343 28.2916 147.131ZM27.7306 147.131C27.7306 144.033 30.2422 141.522 33.3405 141.522C36.4387 141.522 38.9503 144.033 38.9503 147.131C38.9503 150.23 36.4387 152.741 33.3405 152.741C30.2422 152.741 27.7306 150.23 27.7306 147.131Z" fill="black"/>
<path d="M27.7601 166.659C27.7601 169.741 30.2585 172.239 33.3405 172.239C36.4225 172.239 38.9209 169.741 38.9209 166.659C38.9209 163.577 36.4225 161.078 33.3405 161.078C30.2585 161.078 27.7601 163.577 27.7601 166.659ZM27.1401 166.659C27.1401 163.235 29.9161 160.458 33.3405 160.458C36.7648 160.458 39.5409 163.235 39.5409 166.659C39.5409 170.083 36.7648 172.859 33.3405 172.859C29.9161 172.859 27.1401 170.083 27.1401 166.659Z" fill="black"/>
<path d="M27.2288 186.186C27.2288 189.562 29.965 192.298 33.3405 192.298C36.716 192.298 39.4522 189.562 39.4522 186.186C39.4522 182.811 36.716 180.074 33.3405 180.074C29.965 180.074 27.2288 182.811 27.2288 186.186ZM26.5496 186.186C26.5496 182.436 29.59 179.395 33.3405 179.395C37.0909 179.395 40.1314 182.436 40.1314 186.186C40.1314 189.937 37.0909 192.977 33.3405 192.977C29.59 192.977 26.5496 189.937 26.5496 186.186Z" fill="black"/>
<path d="M51.6659 10.4394C51.6659 11.1034 52.204 11.6415 52.868 11.6415C53.5319 11.6415 54.0701 11.1034 54.0701 10.4394C54.0701 9.77549 53.5319 9.23732 52.868 9.23732C52.204 9.23732 51.6659 9.77549 51.6659 10.4394ZM51.5323 10.4394C51.5323 9.70168 52.1302 9.10374 52.868 9.10374C53.6057 9.10374 54.2036 9.70168 54.2036 10.4394C54.2036 11.1772 53.6057 11.7751 52.868 11.7751C52.1302 11.7751 51.5323 11.1772 51.5323 10.4394Z" fill="black"/>
<path d="M51.1851 29.9668C51.1851 30.8963 51.9385 31.6497 52.868 31.6497C53.7975 31.6497 54.5509 30.8963 54.5509 29.9668C54.5509 29.0373 53.7975 28.2839 52.868 28.2839C51.9385 28.2839 51.1851 29.0373 51.1851 29.9668ZM50.998 29.9668C50.998 28.934 51.8352 28.0969 52.868 28.0969C53.9008 28.0969 54.738 28.934 54.738 29.9668C54.738 30.9996 53.9008 31.8367 52.868 31.8367C51.8352 31.8367 50.998 30.9996 50.998 29.9668Z" fill="black"/>
<path d="M50.7042 49.4943C50.7042 50.6894 51.6729 51.6581 52.868 51.6581C54.0631 51.6581 55.0318 50.6894 55.0318 49.4943C55.0318 48.2992 54.0631 47.3304 52.868 47.3304C51.6729 47.3304 50.7042 48.2992 50.7042 49.4943ZM50.4638 49.4943C50.4638 48.1664 51.5401 47.09 52.868 47.09C54.1959 47.09 55.2722 48.1664 55.2722 49.4943C55.2722 50.8221 54.1959 51.8985 52.868 51.8985C51.5401 51.8985 50.4638 50.8221 50.4638 49.4943Z" fill="black"/>
<path d="M50.2234 69.0216C50.2234 70.4821 51.4075 71.6662 52.868 71.6662C54.3284 71.6662 55.5126 70.4821 55.5126 69.0216C55.5126 67.5612 54.3284 66.377 52.868 66.377C51.4075 66.377 50.2234 67.5612 50.2234 69.0216ZM49.9295 69.0216C49.9295 67.3987 51.245 66.0831 52.868 66.0831C54.4909 66.0831 55.8065 67.3987 55.8065 69.0216C55.8065 70.6446 54.4909 71.9601 52.868 71.9601C51.245 71.9601 49.9295 70.6446 49.9295 69.0216Z" fill="black"/>
<path d="M49.7426 88.5491C49.7426 90.2753 51.1418 91.6747 52.868 91.6747C54.5942 91.6747 55.9936 90.2753 55.9936 88.5491C55.9936 86.8229 54.5942 85.4236 52.868 85.4236C51.1418 85.4236 49.7426 86.8229 49.7426 88.5491ZM49.3952 88.5491C49.3952 86.6311 50.95 85.0764 52.868 85.0764C54.786 85.0764 56.3408 86.6311 56.3408 88.5491C56.3408 90.4671 54.786 92.0219 52.868 92.0219C50.95 92.0219 49.3952 90.4671 49.3952 88.5491Z" fill="black"/>
<path d="M49.2617 108.077C49.2617 110.068 50.8762 111.683 52.868 111.683C54.8598 111.683 56.4743 110.068 56.4743 108.077C56.4743 106.085 54.8598 104.47 52.868 104.47C50.8762 104.47 49.2617 106.085 49.2617 108.077ZM48.861 108.077C48.861 105.864 50.655 104.07 52.868 104.07C55.0811 104.07 56.8751 105.864 56.8751 108.077C56.8751 110.29 55.0811 112.084 52.868 112.084C50.655 112.084 48.861 110.29 48.861 108.077Z" fill="black"/>
<path d="M48.7809 127.604C48.7809 129.861 50.6106 131.691 52.868 131.691C55.1254 131.691 56.9551 129.861 56.9551 127.604C56.9551 125.347 55.1254 123.517 52.868 123.517C50.6106 123.517 48.7809 125.347 48.7809 127.604ZM48.3267 127.604C48.3267 125.096 50.3599 123.063 52.868 123.063C55.3761 123.063 57.4093 125.096 57.4093 127.604C57.4093 130.112 55.3761 132.145 52.868 132.145C50.3599 132.145 48.3267 130.112 48.3267 127.604Z" fill="black"/>
<path d="M48.2999 147.131C48.2999 149.654 50.3453 151.699 52.868 151.699C55.3908 151.699 57.4361 149.654 57.4361 147.131C57.4361 144.608 55.3908 142.563 52.868 142.563C50.3453 142.563 48.2999 144.608 48.2999 147.131ZM47.7924 147.131C47.7924 144.328 50.0648 142.056 52.868 142.056C55.6712 142.056 57.9436 144.328 57.9436 147.131C57.9436 149.935 55.6712 152.207 52.868 152.207C50.0648 152.207 47.7924 149.935 47.7924 147.131Z" fill="black"/>
<path d="M47.8191 166.659C47.8191 169.447 50.0796 171.708 52.868 171.708C55.6563 171.708 57.9168 169.447 57.9168 166.659C57.9168 163.871 55.6563 161.61 52.868 161.61C50.0796 161.61 47.8191 163.871 47.8191 166.659ZM47.2581 166.659C47.2581 163.561 49.7697 161.049 52.868 161.049C55.9662 161.049 58.4778 163.561 58.4778 166.659C58.4778 169.757 55.9662 172.269 52.868 172.269C49.7697 172.269 47.2581 169.757 47.2581 166.659Z" fill="black"/>
<path d="M47.3384 186.186C47.3384 189.24 49.8141 191.716 52.868 191.716C55.9219 191.716 58.3976 189.24 58.3976 186.186C58.3976 183.132 55.9219 180.657 52.868 180.657C49.8141 180.657 47.3384 183.132 47.3384 186.186ZM46.7238 186.186C46.7238 182.793 49.4747 180.042 52.868 180.042C56.2613 180.042 59.0121 182.793 59.0121 186.186C59.0121 189.58 56.2613 192.331 52.868 192.331C49.4747 192.331 46.7238 189.58 46.7238 186.186Z" fill="black"/>
<path d="M71.3199 10.4394C71.3199 11.0334 71.8015 11.515 72.3955 11.515C72.9895 11.515 73.4711 11.0334 73.4711 10.4394C73.4711 9.84536 72.9895 9.36381 72.3955 9.36381C71.8015 9.36381 71.3199 9.84536 71.3199 10.4394ZM71.2004 10.4394C71.2004 9.77936 71.7355 9.2443 72.3955 9.2443C73.0555 9.2443 73.5906 9.77936 73.5906 10.4394C73.5906 11.0994 73.0555 11.6345 72.3955 11.6345C71.7355 11.6345 71.2004 11.0994 71.2004 10.4394Z" fill="black"/>
<path d="M70.8898 29.9669C70.8898 30.7985 71.5639 31.4726 72.3955 31.4726C73.2272 31.4726 73.9013 30.7985 73.9013 29.9669C73.9013 29.1352 73.2272 28.4611 72.3955 28.4611C71.5639 28.4611 70.8898 29.1352 70.8898 29.9669ZM70.7224 29.9669C70.7224 29.0428 71.4715 28.2938 72.3955 28.2938C73.3196 28.2938 74.0686 29.0428 74.0686 29.9669C74.0686 30.8909 73.3196 31.64 72.3955 31.64C71.4715 31.64 70.7224 30.8909 70.7224 29.9669Z" fill="black"/>
<path d="M70.4595 49.4942C70.4595 50.5635 71.3261 51.4303 72.3955 51.4303C73.4648 51.4303 74.3314 50.5635 74.3314 49.4942C74.3314 48.4249 73.4648 47.5581 72.3955 47.5581C71.3261 47.5581 70.4595 48.4249 70.4595 49.4942ZM70.2443 49.4942C70.2443 48.3062 71.2074 47.3431 72.3955 47.3431C73.5835 47.3431 74.5466 48.3062 74.5466 49.4942C74.5466 50.6823 73.5835 51.6453 72.3955 51.6453C71.2074 51.6453 70.2443 50.6823 70.2443 49.4942Z" fill="black"/>
<path d="M70.0293 69.0217C70.0293 70.3284 71.0887 71.388 72.3955 71.388C73.7023 71.388 74.7616 70.3284 74.7616 69.0217C74.7616 67.7149 73.7023 66.6553 72.3955 66.6553C71.0887 66.6553 70.0293 67.7149 70.0293 69.0217ZM69.7663 69.0217C69.7663 67.5696 70.9434 66.3925 72.3955 66.3925C73.8475 66.3925 75.0247 67.5696 75.0247 69.0217C75.0247 70.4737 73.8475 71.6508 72.3955 71.6508C70.9434 71.6508 69.7663 70.4737 69.7663 69.0217Z" fill="black"/>
<path d="M69.5992 88.5491C69.5992 90.0935 70.8511 91.3455 72.3955 91.3455C73.9399 91.3455 75.1918 90.0935 75.1918 88.5491C75.1918 87.0047 73.9399 85.7528 72.3955 85.7528C70.8511 85.7528 69.5992 87.0047 69.5992 88.5491ZM69.2883 88.5491C69.2883 86.833 70.6794 85.4419 72.3955 85.4419C74.1116 85.4419 75.5027 86.833 75.5027 88.5491C75.5027 90.2652 74.1116 91.6563 72.3955 91.6563C70.6794 91.6563 69.2883 90.2652 69.2883 88.5491Z" fill="black"/>
<path d="M69.1688 108.077C69.1688 109.859 70.6134 111.303 72.3955 111.303C74.1776 111.303 75.6222 109.859 75.6222 108.077C75.6222 106.295 74.1776 104.85 72.3955 104.85C70.6134 104.85 69.1688 106.295 69.1688 108.077ZM68.8102 108.077C68.8102 106.097 70.4154 104.491 72.3955 104.491C74.3756 104.491 75.9808 106.097 75.9808 108.077C75.9808 110.057 74.3756 111.662 72.3955 111.662C70.4154 111.662 68.8102 110.057 68.8102 108.077Z" fill="black"/>
<path d="M68.7384 127.604C68.7384 129.624 70.3758 131.261 72.3955 131.261C74.4152 131.261 76.0526 129.624 76.0526 127.604C76.0526 125.584 74.4152 123.947 72.3955 123.947C70.3758 123.947 68.7384 125.584 68.7384 127.604ZM68.3322 127.604C68.3322 125.36 70.1514 123.541 72.3955 123.541C74.6396 123.541 76.4588 125.36 76.4588 127.604C76.4588 129.848 74.6396 131.667 72.3955 131.667C70.1514 131.667 68.3322 129.848 68.3322 127.604Z" fill="black"/>
<path d="M68.3082 147.132C68.3082 149.389 70.1381 151.219 72.3955 151.219C74.6529 151.219 76.4828 149.389 76.4828 147.132C76.4828 144.874 74.6529 143.044 72.3955 143.044C70.1381 143.044 68.3082 144.874 68.3082 147.132ZM67.8542 147.132C67.8542 144.623 69.8874 142.59 72.3955 142.59C74.9036 142.59 76.9368 144.623 76.9368 147.132C76.9368 149.64 74.9036 151.673 72.3955 151.673C69.8874 151.673 67.8542 149.64 67.8542 147.132Z" fill="black"/>
<path d="M67.878 166.659C67.878 169.154 69.9007 171.176 72.3955 171.176C74.8904 171.176 76.913 169.154 76.913 166.659C76.913 164.164 74.8904 162.141 72.3955 162.141C69.9007 162.141 67.878 164.164 67.878 166.659ZM67.3762 166.659C67.3762 163.887 69.6234 161.64 72.3955 161.64C75.1676 161.64 77.4149 163.887 77.4149 166.659C77.4149 169.431 75.1676 171.678 72.3955 171.678C69.6234 171.678 67.3762 169.431 67.3762 166.659Z" fill="black"/>
<path d="M67.4478 186.186C67.4478 188.919 69.663 191.134 72.3955 191.134C75.128 191.134 77.3432 188.919 77.3432 186.186C77.3432 183.454 75.128 181.239 72.3955 181.239C69.663 181.239 67.4478 183.454 67.4478 186.186ZM66.8981 186.186C66.8981 183.15 69.3594 180.689 72.3955 180.689C75.4317 180.689 77.8929 183.15 77.8929 186.186C77.8929 189.222 75.4317 191.684 72.3955 191.684C69.3594 191.684 66.8981 189.222 66.8981 186.186Z" fill="black"/>
<path d="M90.974 10.4393C90.974 10.9635 91.3987 11.3884 91.923 11.3884C92.4474 11.3884 92.8721 10.9635 92.8721 10.4393C92.8721 9.91523 92.4474 9.49032 91.923 9.49032C91.3987 9.49032 90.974 9.91523 90.974 10.4393ZM90.8686 10.4393C90.8686 9.85704 91.3407 9.38486 91.923 9.38486C92.5054 9.38486 92.9775 9.85704 92.9775 10.4393C92.9775 11.0217 92.5054 11.4938 91.923 11.4938C91.3407 11.4938 90.8686 11.0217 90.8686 10.4393Z" fill="black"/>
<path d="M90.5944 29.9668C90.5944 30.7007 91.1892 31.2955 91.923 31.2955C92.6569 31.2955 93.2517 30.7007 93.2517 29.9668C93.2517 29.233 92.6569 28.6382 91.923 28.6382C91.1892 28.6382 90.5944 29.233 90.5944 29.9668ZM90.4467 29.9668C90.4467 29.1515 91.1077 28.4905 91.923 28.4905C92.7383 28.4905 93.3993 29.1515 93.3993 29.9668C93.3993 30.7821 92.7383 31.4431 91.923 31.4431C91.1077 31.4431 90.4467 30.7821 90.4467 29.9668Z" fill="black"/>
<path d="M90.2148 49.4942C90.2148 50.4378 90.9797 51.2025 91.923 51.2025C92.8664 51.2025 93.6313 50.4378 93.6313 49.4942C93.6313 48.5507 92.8664 47.786 91.923 47.786C90.9797 47.786 90.2148 48.5507 90.2148 49.4942ZM90.025 49.4942C90.025 48.446 90.8748 47.5962 91.923 47.5962C92.9713 47.5962 93.8211 48.446 93.8211 49.4942C93.8211 50.5425 92.9713 51.3923 91.923 51.3923C90.8748 51.3923 90.025 50.5425 90.025 49.4942Z" fill="black"/>
<path d="M89.8351 69.0217C89.8351 70.1748 90.7699 71.1096 91.923 71.1096C93.0761 71.1096 94.0109 70.1748 94.0109 69.0217C94.0109 67.8686 93.0761 66.9338 91.923 66.9338C90.7699 66.9338 89.8351 67.8686 89.8351 69.0217ZM89.6031 69.0217C89.6031 67.7405 90.6416 66.7018 91.923 66.7018C93.2044 66.7018 94.2429 67.7405 94.2429 69.0217C94.2429 70.3029 93.2044 71.3415 91.923 71.3415C90.6416 71.3415 89.6031 70.3029 89.6031 69.0217Z" fill="black"/>
<path d="M89.4555 88.5491C89.4555 89.912 90.5602 91.0166 91.923 91.0166C93.2858 91.0166 94.3905 89.912 94.3905 88.5491C94.3905 87.1863 93.2858 86.0816 91.923 86.0816C90.5602 86.0816 89.4555 87.1863 89.4555 88.5491ZM89.1813 88.5491C89.1813 87.035 90.4088 85.8075 91.923 85.8075C93.4372 85.8075 94.6647 87.035 94.6647 88.5491C94.6647 90.0633 93.4372 91.2908 91.923 91.2908C90.4088 91.2908 89.1813 90.0633 89.1813 88.5491Z" fill="black"/>
<path d="M89.0759 108.077C89.0759 109.649 90.3505 110.924 91.923 110.924C93.4956 110.924 94.7701 109.649 94.7701 108.077C94.7701 106.504 93.4956 105.229 91.923 105.229C90.3505 105.229 89.0759 106.504 89.0759 108.077ZM88.7596 108.077C88.7596 106.329 90.1759 104.913 91.923 104.913C93.6701 104.913 95.0865 106.329 95.0865 108.077C95.0865 109.824 93.6701 111.24 91.923 111.24C90.1759 111.24 88.7596 109.824 88.7596 108.077Z" fill="black"/>
<path d="M88.6963 127.604C88.6963 129.386 90.1409 130.831 91.923 130.831C93.7051 130.831 95.1497 129.386 95.1497 127.604C95.1497 125.822 93.7051 124.377 91.923 124.377C90.1409 124.377 88.6963 125.822 88.6963 127.604ZM88.3377 127.604C88.3377 125.624 89.9429 124.019 91.923 124.019C93.9031 124.019 95.5082 125.624 95.5082 127.604C95.5082 129.584 93.9031 131.189 91.923 131.189C89.9429 131.189 88.3377 129.584 88.3377 127.604Z" fill="black"/>
<path d="M88.3167 147.131C88.3167 149.123 89.9315 150.738 91.9231 150.738C93.9147 150.738 95.5294 149.123 95.5294 147.131C95.5294 145.14 93.9147 143.525 91.9231 143.525C89.9315 143.525 88.3167 145.14 88.3167 147.131ZM87.916 147.131C87.916 144.918 89.71 143.124 91.9231 143.124C94.1361 143.124 95.9301 144.918 95.9301 147.131C95.9301 149.345 94.1361 151.139 91.9231 151.139C89.71 151.139 87.916 149.345 87.916 147.131Z" fill="black"/>
<path d="M87.9371 166.659C87.9371 168.86 89.7217 170.645 91.923 170.645C94.1244 170.645 95.909 168.86 95.909 166.659C95.909 164.458 94.1244 162.673 91.923 162.673C89.7217 162.673 87.9371 164.458 87.9371 166.659ZM87.4942 166.659C87.4942 164.213 89.4772 162.23 91.923 162.23C94.3689 162.23 96.3519 164.213 96.3519 166.659C96.3519 169.105 94.3689 171.088 91.923 171.088C89.4772 171.088 87.4942 169.105 87.4942 166.659Z" fill="black"/>
<path d="M87.5574 186.186C87.5574 188.597 89.512 190.552 91.923 190.552C94.3341 190.552 96.2886 188.597 96.2886 186.186C96.2886 183.775 94.3341 181.821 91.923 181.821C89.512 181.821 87.5574 183.775 87.5574 186.186ZM87.0724 186.186C87.0724 183.507 89.244 181.336 91.923 181.336C94.602 181.336 96.7737 183.507 96.7737 186.186C96.7737 188.865 94.602 191.037 91.923 191.037C89.244 191.037 87.0724 188.865 87.0724 186.186Z" fill="black"/>
<path d="M3.37434 0.675642C3.37434 0.302668 3.67649 0 4.04919 0C4.42189 0 4.72403 0.302668 4.72403 0.675642C4.72403 1.04842 4.42189 1.3505 4.04919 1.3505C3.67649 1.3505 3.37434 1.04842 3.37434 0.675642Z" fill="black"/>
<path d="M3.0369 20.2031C3.0369 19.644 3.49007 19.1908 4.0492 19.1908C4.60833 19.1908 5.0615 19.644 5.0615 20.2031C5.0615 20.7621 4.60833 21.2154 4.0492 21.2154C3.49007 21.2154 3.0369 20.7621 3.0369 20.2031Z" fill="black"/>
<path d="M2.69945 39.7305C2.69945 38.9851 3.30381 38.3807 4.04921 38.3807C4.79461 38.3807 5.39897 38.9851 5.39897 39.7305C5.39897 40.4758 4.79461 41.0802 4.04921 41.0802C3.30381 41.0802 2.69945 40.4758 2.69945 39.7305Z" fill="black"/>
<path d="M2.36198 59.258C2.36198 58.3264 3.11738 57.5708 4.04921 57.5708C4.98104 57.5708 5.73643 58.3264 5.73643 59.258C5.73643 60.1897 4.98104 60.9452 4.04921 60.9452C3.11738 60.9452 2.36198 60.1897 2.36198 59.258Z" fill="black"/>
<path d="M2.02451 78.7854C2.02451 77.6673 2.93102 76.7608 4.0492 76.7608C5.16737 76.7608 6.07389 77.6673 6.07389 78.7854C6.07389 79.9038 5.16737 80.81 4.0492 80.81C2.93102 80.81 2.02451 79.9038 2.02451 78.7854Z" fill="black"/>
<path d="M1.68715 98.3129C1.68715 97.0082 2.74469 95.9508 4.04922 95.9508C5.35375 95.9508 6.41128 97.0082 6.41128 98.3129C6.41128 99.6175 5.35375 100.675 4.04922 100.675C2.74469 100.675 1.68715 99.6175 1.68715 98.3129Z" fill="black"/>
<path d="M1.3497 117.84C1.3497 116.349 2.55834 115.141 4.04922 115.141C5.5401 115.141 6.74875 116.349 6.74875 117.84C6.74875 119.331 5.5401 120.54 4.04922 120.54C2.55834 120.54 1.3497 119.331 1.3497 117.84Z" fill="black"/>
<path d="M1.01228 137.368C1.01228 135.69 2.3719 134.331 4.0492 134.331C5.72651 134.331 7.08612 135.69 7.08612 137.368C7.08612 139.045 5.72651 140.405 4.0492 140.405C2.3719 140.405 1.01228 139.045 1.01228 137.368Z" fill="black"/>
<path d="M0.674927 156.895C0.674927 155.031 2.18564 153.521 4.04922 153.521C5.9128 153.521 7.42352 155.031 7.42352 156.895C7.42352 158.759 5.9128 160.269 4.04922 160.269C2.18564 160.269 0.674927 158.759 0.674927 156.895Z" fill="black"/>
<path d="M0.337448 176.423C0.337448 174.373 1.9992 172.711 4.0492 172.711C6.0992 172.711 7.76095 174.373 7.76095 176.423C7.76095 178.473 6.0992 180.134 4.0492 180.134C1.9992 180.134 0.337448 178.473 0.337448 176.423Z" fill="black"/>
<path d="M0 195.95C0 193.714 1.81291 191.901 4.04921 191.901C6.2855 191.901 8.09841 193.714 8.09841 195.95C8.09841 198.186 6.2855 200 4.04921 200C1.81291 200 0 198.186 0 195.95Z" fill="black"/>
<path d="M22.9581 0.675619C22.9581 0.333889 23.2351 0.0565957 23.5767 0.0565957C23.9184 0.0565957 24.1953 0.333889 24.1953 0.675619C24.1953 1.01735 23.9184 1.29424 23.5767 1.29424C23.2351 1.29424 22.9581 1.01735 22.9581 0.675619Z" fill="black"/>
<path d="M22.6488 20.2032C22.6488 19.6906 23.0642 19.2752 23.5767 19.2752C24.0893 19.2752 24.5047 19.6906 24.5047 20.2032C24.5047 20.7158 24.0893 21.1311 23.5767 21.1311C23.0642 21.1311 22.6488 20.7158 22.6488 20.2032Z" fill="black"/>
<path d="M22.3395 39.7306C22.3395 39.0473 22.8933 38.4933 23.5767 38.4933C24.2602 38.4933 24.814 39.0473 24.814 39.7306C24.814 40.4138 24.2602 40.9678 23.5767 40.9678C22.8933 40.9678 22.3395 40.4138 22.3395 39.7306Z" fill="black"/>
<path d="M22.0302 59.258C22.0302 58.4038 22.7226 57.7114 23.5767 57.7114C24.4309 57.7114 25.1233 58.4038 25.1233 59.258C25.1233 60.1121 24.4309 60.8045 23.5767 60.8045C22.7226 60.8045 22.0302 60.1121 22.0302 59.258Z" fill="black"/>
<path d="M21.7208 78.7854C21.7208 77.7604 22.5518 76.9295 23.5767 76.9295C24.6017 76.9295 25.4326 77.7604 25.4326 78.7854C25.4326 79.8104 24.6017 80.6413 23.5767 80.6413C22.5518 80.6413 21.7208 79.8104 21.7208 78.7854Z" fill="black"/>
<path d="M21.4115 98.3128C21.4115 97.1169 22.381 96.1476 23.5767 96.1476C24.7726 96.1476 25.7419 97.1169 25.7419 98.3128C25.7419 99.5087 24.7726 100.478 23.5767 100.478C22.381 100.478 21.4115 99.5087 21.4115 98.3128Z" fill="black"/>
<path d="M21.1022 117.84C21.1022 116.474 22.2101 115.366 23.5767 115.366C24.9434 115.366 26.0512 116.474 26.0512 117.84C26.0512 119.207 24.9434 120.315 23.5767 120.315C22.2101 120.315 21.1022 119.207 21.1022 117.84Z" fill="black"/>
<path d="M20.7929 137.368C20.7929 135.83 22.0392 134.584 23.5767 134.584C25.1143 134.584 26.3606 135.83 26.3606 137.368C26.3606 138.905 25.1143 140.152 23.5767 140.152C22.0392 140.152 20.7929 138.905 20.7929 137.368Z" fill="black"/>
<path d="M20.4836 156.895C20.4836 155.187 21.8684 153.802 23.5767 153.802C25.285 153.802 26.6699 155.187 26.6699 156.895C26.6699 158.603 25.285 159.988 23.5767 159.988C21.8684 159.988 20.4836 158.603 20.4836 156.895Z" fill="black"/>
<path d="M20.1743 176.423C20.1743 174.543 21.6976 173.02 23.5767 173.02C25.4559 173.02 26.9792 174.543 26.9792 176.423C26.9792 178.302 25.4559 179.825 23.5767 179.825C21.6976 179.825 20.1743 178.302 20.1743 176.423Z" fill="black"/>
<path d="M19.865 195.95C19.865 193.9 21.5267 192.238 23.5767 192.238C25.6267 192.238 27.2885 193.9 27.2885 195.95C27.2885 198 25.6267 199.662 23.5767 199.662C21.5267 199.662 19.865 198 19.865 195.95Z" fill="black"/>
<path d="M42.5418 0.675612C42.5418 0.365126 42.7935 0.113226 43.1042 0.113226C43.4149 0.113226 43.6666 0.365126 43.6666 0.675612C43.6666 0.986294 43.4149 1.238 43.1042 1.238C42.7935 1.238 42.5418 0.986294 42.5418 0.675612Z" fill="black"/>
<path d="M42.2606 20.2031C42.2606 19.7372 42.6383 19.3595 43.1042 19.3595C43.5701 19.3595 43.9478 19.7372 43.9478 20.2031C43.9478 20.6691 43.5701 21.0467 43.1042 21.0467C42.6383 21.0467 42.2606 20.6691 42.2606 20.2031Z" fill="black"/>
<path d="M41.9794 39.7305C41.9794 39.1094 42.483 38.6057 43.1042 38.6057C43.7254 38.6057 44.229 39.1094 44.229 39.7305C44.229 40.3517 43.7254 40.8553 43.1042 40.8553C42.483 40.8553 41.9794 40.3517 41.9794 39.7305Z" fill="black"/>
<path d="M41.6982 59.2579C41.6982 58.4813 42.3276 57.852 43.1042 57.852C43.8808 57.852 44.5102 58.4813 44.5102 59.2579C44.5102 60.0345 43.8808 60.6639 43.1042 60.6639C42.3276 60.6639 41.6982 60.0345 41.6982 59.2579Z" fill="black"/>
<path d="M41.4171 78.7855C41.4171 77.8538 42.1724 77.0983 43.1042 77.0983C44.0361 77.0983 44.7914 77.8538 44.7914 78.7855C44.7914 79.7171 44.0361 80.4726 43.1042 80.4726C42.1724 80.4726 41.4171 79.7171 41.4171 78.7855Z" fill="black"/>
<path d="M41.1358 98.3129C41.1358 97.2258 42.0171 96.3445 43.1042 96.3445C44.1913 96.3445 45.0726 97.2258 45.0726 98.3129C45.0726 99.4 44.1913 100.281 43.1042 100.281C42.0171 100.281 41.1358 99.4 41.1358 98.3129Z" fill="black"/>
<path d="M40.8546 117.84C40.8546 116.598 41.8619 115.591 43.1042 115.591C44.3466 115.591 45.3538 116.598 45.3538 117.84C45.3538 119.083 44.3466 120.09 43.1042 120.09C41.8619 120.09 40.8546 119.083 40.8546 117.84Z" fill="black"/>
<path d="M40.5735 137.368C40.5735 135.97 41.7064 134.837 43.1042 134.837C44.502 134.837 45.635 135.97 45.635 137.368C45.635 138.765 44.502 139.899 43.1042 139.899C41.7064 139.899 40.5735 138.765 40.5735 137.368Z" fill="black"/>
<path d="M40.2923 156.895C40.2923 155.342 41.5512 154.083 43.1042 154.083C44.6573 154.083 45.9162 155.342 45.9162 156.895C45.9162 158.448 44.6573 159.707 43.1042 159.707C41.5512 159.707 40.2923 158.448 40.2923 156.895Z" fill="black"/>
<path d="M40.0111 176.423C40.0111 174.714 41.396 173.329 43.1042 173.329C44.8125 173.329 46.1974 174.714 46.1974 176.423C46.1974 178.131 44.8125 179.516 43.1042 179.516C41.396 179.516 40.0111 178.131 40.0111 176.423Z" fill="black"/>
<path d="M39.7299 195.95C39.7299 194.086 41.2407 192.576 43.1042 192.576C44.9678 192.576 46.4786 194.086 46.4786 195.95C46.4786 197.813 44.9678 199.324 43.1042 199.324C41.2407 199.324 39.7299 197.813 39.7299 195.95Z" fill="black"/>
<path d="M62.1256 0.67559C62.1256 0.396347 62.3521 0.169822 62.6318 0.169822C62.9114 0.169822 63.1379 0.396347 63.1379 0.67559C63.1379 0.955223 62.9114 1.18174 62.6318 1.18174C62.3521 1.18174 62.1256 0.955223 62.1256 0.67559Z" fill="black"/>
<path d="M61.8725 20.2031C61.8725 19.7837 62.2125 19.4439 62.6317 19.4439C63.051 19.4439 63.391 19.7837 63.391 20.2031C63.391 20.6224 63.051 20.9623 62.6317 20.9623C62.2125 20.9623 61.8725 20.6224 61.8725 20.2031Z" fill="black"/>
<path d="M61.6194 39.7305C61.6194 39.1714 62.0727 38.7182 62.6318 38.7182C63.1908 38.7182 63.6441 39.1714 63.6441 39.7305C63.6441 40.2896 63.1908 40.7428 62.6318 40.7428C62.0727 40.7428 61.6194 40.2896 61.6194 39.7305Z" fill="black"/>
<path d="M61.3664 59.258C61.3664 58.5591 61.9329 57.9926 62.6318 57.9926C63.3307 57.9926 63.8972 58.5591 63.8972 59.258C63.8972 59.9569 63.3307 60.5234 62.6318 60.5234C61.9329 60.5234 61.3664 59.9569 61.3664 59.258Z" fill="black"/>
<path d="M61.1133 78.7854C61.1133 77.9469 61.7932 77.267 62.6317 77.267C63.4703 77.267 64.1502 77.9469 64.1502 78.7854C64.1502 79.6241 63.4703 80.3039 62.6317 80.3039C61.7932 80.3039 61.1133 79.6241 61.1133 78.7854Z" fill="black"/>
<path d="M60.8602 98.3128C60.8602 97.3343 61.6534 96.5413 62.6318 96.5413C63.6101 96.5413 64.4033 97.3343 64.4033 98.3128C64.4033 99.2913 63.6101 100.084 62.6318 100.084C61.6534 100.084 60.8602 99.2913 60.8602 98.3128Z" fill="black"/>
<path d="M60.6071 117.84C60.6071 116.722 61.5136 115.816 62.6317 115.816C63.7499 115.816 64.6563 116.722 64.6563 117.84C64.6563 118.959 63.7499 119.865 62.6317 119.865C61.5136 119.865 60.6071 118.959 60.6071 117.84Z" fill="black"/>
<path d="M60.3541 137.368C60.3541 136.11 61.3738 135.09 62.6318 135.09C63.8895 135.09 64.9094 136.11 64.9094 137.368C64.9094 138.625 63.8895 139.645 62.6318 139.645C61.3738 139.645 60.3541 138.625 60.3541 137.368Z" fill="black"/>
<path d="M60.101 156.895C60.101 155.498 61.234 154.364 62.6318 154.364C64.0293 154.364 65.1625 155.498 65.1625 156.895C65.1625 158.293 64.0293 159.426 62.6318 159.426C61.234 159.426 60.101 158.293 60.101 156.895Z" fill="black"/>
<path d="M59.8479 176.423C59.8479 174.885 61.0941 173.639 62.6317 173.639C64.1691 173.639 65.4156 174.885 65.4156 176.423C65.4156 177.96 64.1691 179.206 62.6317 179.206C61.0941 179.206 59.8479 177.96 59.8479 176.423Z" fill="black"/>
<path d="M59.5948 195.95C59.5948 194.273 60.9545 192.913 62.6317 192.913C64.309 192.913 65.6687 194.273 65.6687 195.95C65.6687 197.627 64.309 198.987 62.6317 198.987C60.9545 198.987 59.5948 197.627 59.5948 195.95Z" fill="black"/>
<path d="M81.7094 0.67569C81.7094 0.427691 81.9109 0.226558 82.1593 0.226558C82.4077 0.226558 82.6092 0.427691 82.6092 0.67569C82.6092 0.924079 82.4077 1.1256 82.1593 1.1256C81.9109 1.1256 81.7094 0.924079 81.7094 0.67569Z" fill="black"/>
<path d="M81.4844 20.2031C81.4844 19.8303 81.7867 19.5282 82.1593 19.5282C82.5319 19.5282 82.8342 19.8303 82.8342 20.2031C82.8342 20.5759 82.5319 20.8779 82.1593 20.8779C81.7867 20.8779 81.4844 20.5759 81.4844 20.2031Z" fill="black"/>
<path d="M81.2594 39.7306C81.2594 39.2336 81.6623 38.8308 82.1593 38.8308C82.6562 38.8308 83.0591 39.2336 83.0591 39.7306C83.0591 40.2276 82.6562 40.6304 82.1593 40.6304C81.6623 40.6304 81.2594 40.2276 81.2594 39.7306Z" fill="black"/>
<path d="M81.0345 59.258C81.0345 58.6368 81.5379 58.1332 82.1593 58.1332C82.7806 58.1332 83.2841 58.6368 83.2841 59.258C83.2841 59.8791 82.7806 60.3827 82.1593 60.3827C81.5379 60.3827 81.0345 59.8791 81.0345 59.258Z" fill="black"/>
<path d="M80.8095 78.7854C80.8095 78.04 81.4139 77.4356 82.1593 77.4356C82.9046 77.4356 83.509 78.04 83.509 78.7854C83.509 79.5307 82.9046 80.1351 82.1593 80.1351C81.4139 80.1351 80.8095 79.5307 80.8095 78.7854Z" fill="black"/>
<path d="M80.5845 98.3129C80.5845 97.4433 81.2897 96.7382 82.1592 96.7382C83.0288 96.7382 83.7339 97.4433 83.7339 98.3129C83.7339 99.1824 83.0288 99.8876 82.1592 99.8876C81.2897 99.8876 80.5845 99.1824 80.5845 98.3129Z" fill="black"/>
<path d="M80.3596 117.84C80.3596 116.846 81.1653 116.041 82.1592 116.041C83.1532 116.041 83.9589 116.846 83.9589 117.84C83.9589 118.834 83.1532 119.64 82.1592 119.64C81.1653 119.64 80.3596 118.834 80.3596 117.84Z" fill="black"/>
<path d="M80.1347 137.368C80.1347 136.249 81.0409 135.343 82.1593 135.343C83.2776 135.343 84.1839 136.249 84.1839 137.368C84.1839 138.486 83.2776 139.392 82.1593 139.392C81.0409 139.392 80.1347 138.486 80.1347 137.368Z" fill="black"/>
<path d="M79.9097 156.895C79.9097 155.653 80.917 154.646 82.1593 154.646C83.4016 154.646 84.4089 155.653 84.4089 156.895C84.4089 158.137 83.4016 159.145 82.1593 159.145C80.917 159.145 79.9097 158.137 79.9097 156.895Z" fill="black"/>
<path d="M79.6848 176.423C79.6848 175.056 80.7925 173.948 82.1593 173.948C83.526 173.948 84.6338 175.056 84.6338 176.423C84.6338 177.789 83.526 178.897 82.1593 178.897C80.7925 178.897 79.6848 177.789 79.6848 176.423Z" fill="black"/>
<path d="M79.4598 195.95C79.4598 194.459 80.6683 193.25 82.1593 193.25C83.6502 193.25 84.8587 194.459 84.8587 195.95C84.8587 197.44 83.6502 198.649 82.1593 198.649C80.6683 198.649 79.4598 197.44 79.4598 195.95Z" fill="black"/>
</g>
</g>
</svg>
