<svg width="185" height="15" viewBox="0 0 185 15" fill="none" xmlns="http://www.w3.org/2000/svg">
<g id="Property 1=VAZIAS">
<g id="Bolinhas">
<path d="M0.743725 7.43759C0.743725 11.1345 3.74075 14.1314 7.43762 14.1314C11.1345 14.1314 14.1315 11.1345 14.1315 7.43759C14.1315 3.74066 11.1345 0.74379 7.43762 0.74379C3.74075 0.74379 0.743725 3.74066 0.743725 7.43759ZM0 7.43759C0 3.32996 3.32991 0 7.43762 0C11.5453 0 14.8752 3.32996 14.8752 7.43759C14.8752 11.5451 11.5453 14.8752 7.43762 14.8752C3.32991 14.8752 0 11.5451 0 7.43759Z" fill="black"/>
<path d="M20.8534 7.43765C20.8534 10.8129 23.5896 13.5495 26.9651 13.5495C30.3407 13.5495 33.0769 10.8129 33.0769 7.43765C33.0769 4.0623 30.3407 1.32571 26.9651 1.32571C23.5896 1.32571 20.8534 4.0623 20.8534 7.43765ZM20.1742 7.43765C20.1742 3.68723 23.2147 0.646744 26.9651 0.646744C30.7156 0.646744 33.756 3.68723 33.756 7.43765C33.756 11.1881 30.7156 14.2285 26.9651 14.2285C23.2147 14.2285 20.1742 11.1881 20.1742 7.43765Z" fill="black"/>
<path d="M40.963 7.43764C40.963 10.4917 43.4387 12.9672 46.4926 12.9672C49.5465 12.9672 52.0222 10.4917 52.0222 7.43764C52.0222 4.38351 49.5465 1.90802 46.4926 1.90802C43.4387 1.90802 40.963 4.38351 40.963 7.43764ZM40.3485 7.43764C40.3485 4.04435 43.0993 1.2935 46.4926 1.2935C49.8859 1.2935 52.6368 4.04435 52.6368 7.43764C52.6368 10.8309 49.8859 13.5818 46.4926 13.5818C43.0993 13.5818 40.3485 10.8309 40.3485 7.43764Z" fill="black"/>
<path d="M61.0725 7.43759C61.0725 10.1701 63.2877 12.3853 66.0202 12.3853C68.7526 12.3853 70.9679 10.1701 70.9679 7.43759C70.9679 4.70512 68.7526 2.4899 66.0202 2.4899C63.2877 2.4899 61.0725 4.70512 61.0725 7.43759ZM60.5228 7.43759C60.5228 4.40147 62.984 1.94022 66.0202 1.94022C69.0563 1.94022 71.5176 4.40147 71.5176 7.43759C71.5176 10.4737 69.0563 12.935 66.0202 12.935C62.984 12.935 60.5228 10.4737 60.5228 7.43759Z" fill="black"/>
<path d="M81.1821 7.43755C81.1821 9.84858 83.1366 11.8031 85.5477 11.8031C87.9587 11.8031 89.9132 9.84858 89.9132 7.43755C89.9132 5.02651 87.9587 3.07193 85.5477 3.07193C83.1366 3.07193 81.1821 5.02651 81.1821 7.43755ZM80.697 7.43755C80.697 4.75856 82.8687 2.5869 85.5477 2.5869C88.2266 2.5869 90.3983 4.75856 90.3983 7.43755C90.3983 10.1165 88.2266 12.2881 85.5477 12.2881C82.8687 12.2881 80.697 10.1165 80.697 7.43755Z" fill="black"/>
<path d="M101.292 7.43765C101.292 9.52709 102.986 11.2211 105.075 11.2211C107.165 11.2211 108.859 9.52709 108.859 7.43765C108.859 5.34822 107.165 3.65422 105.075 3.65422C102.986 3.65422 101.292 5.34822 101.292 7.43765ZM100.871 7.43765C100.871 5.1158 102.753 3.23376 105.075 3.23376C107.397 3.23376 109.279 5.1158 109.279 7.43765C109.279 9.75943 107.397 11.6415 105.075 11.6415C102.753 11.6415 100.871 9.75943 100.871 7.43765Z" fill="black"/>
<path d="M121.401 7.43761C121.401 9.20584 122.835 10.6391 124.603 10.6391C126.371 10.6391 127.804 9.20584 127.804 7.43761C127.804 5.66938 126.371 4.2361 124.603 4.2361C122.835 4.2361 121.401 5.66938 121.401 7.43761ZM121.046 7.43761C121.046 5.47297 122.638 3.88048 124.603 3.88048C126.567 3.88048 128.16 5.47297 128.16 7.43761C128.16 9.40224 126.567 10.9947 124.603 10.9947C122.638 10.9947 121.046 9.40224 121.046 7.43761Z" fill="black"/>
<path d="M141.511 7.43755C141.511 8.8841 142.684 10.057 144.13 10.057C145.577 10.057 146.75 8.8841 146.75 7.43755C146.75 5.99091 145.577 4.81812 144.13 4.81812C142.684 4.81812 141.511 5.99091 141.511 7.43755ZM141.22 7.43755C141.22 5.83018 142.523 4.52719 144.13 4.52719C145.738 4.52719 147.041 5.83018 147.041 7.43755C147.041 9.04483 145.738 10.3479 144.13 10.3479C142.523 10.3479 141.22 9.04483 141.22 7.43755Z" fill="black"/>
<path d="M161.62 7.43761C161.62 8.5628 162.533 9.47487 163.658 9.47487C164.783 9.47487 165.695 8.5628 165.695 7.43761C165.695 6.31242 164.783 5.40027 163.658 5.40027C162.533 5.40027 161.62 6.31242 161.62 7.43761ZM161.394 7.43761C161.394 6.18746 162.408 5.17395 163.658 5.17395C164.908 5.17395 165.921 6.18746 165.921 7.43761C165.921 8.68775 164.908 9.70119 163.658 9.70119C162.408 9.70119 161.394 8.68775 161.394 7.43761Z" fill="black"/>
<path d="M181.73 7.43761C181.73 8.24112 182.382 8.89278 183.185 8.89278C183.989 8.89278 184.64 8.24112 184.64 7.43761C184.64 6.63401 183.989 5.98242 183.185 5.98242C182.382 5.98242 181.73 6.63401 181.73 7.43761ZM181.568 7.43761C181.568 6.54462 182.292 5.82071 183.185 5.82071C184.078 5.82071 184.802 6.54462 184.802 7.43761C184.802 8.3306 184.078 9.05449 183.185 9.05449C182.292 9.05449 181.568 8.3306 181.568 7.43761Z" fill="black"/>
</g>
</g>
</svg>
