<svg width="200" height="9" viewBox="0 0 200 9" fill="none" xmlns="http://www.w3.org/2000/svg">
<g id="Property 1=PREENCHIDAS">
<g id="Bolinhas">
<path d="M0 4.04919C0 1.81291 1.81291 0 4.04921 0C6.2855 0 8.09841 1.81291 8.09841 4.04919C8.09841 6.28509 6.2855 8.09914 4.04921 8.09914C1.81291 8.09914 0 6.28509 0 4.04919Z" fill="black"/>
<path d="M19.865 4.04924C19.865 1.99925 21.5267 0.337433 23.5767 0.337433C25.6267 0.337433 27.2885 1.99925 27.2885 4.04924C27.2885 6.09962 25.6267 7.76137 23.5767 7.76137C21.5267 7.76137 19.865 6.09962 19.865 4.04924Z" fill="black"/>
<path d="M39.7299 4.04924C39.7299 2.18551 41.2407 0.674881 43.1042 0.674881C44.9678 0.674881 46.4786 2.18551 46.4786 4.04924C46.4786 5.91213 44.9678 7.4236 43.1042 7.4236C41.2407 7.4236 39.7299 5.91213 39.7299 4.04924Z" fill="black"/>
<path d="M59.5948 4.04919C59.5948 2.37197 60.9545 1.01228 62.6317 1.01228C64.309 1.01228 65.6687 2.37197 65.6687 4.04919C65.6687 5.72657 64.309 7.08571 62.6317 7.08571C60.9545 7.08571 59.5948 5.72657 59.5948 4.04919Z" fill="black"/>
<path d="M79.4598 4.04913C79.4598 2.55818 80.6683 1.34962 82.1593 1.34962C83.6502 1.34962 84.8587 2.55818 84.8587 4.04913C84.8587 5.53909 83.6502 6.74782 82.1593 6.74782C80.6683 6.74782 79.4598 5.53909 79.4598 4.04913Z" fill="black"/>
<path d="M99.3247 4.04924C99.3247 2.74456 100.382 1.68718 101.687 1.68718C102.991 1.68718 104.049 2.74456 104.049 4.04924C104.049 5.35369 102.991 6.41206 101.687 6.41206C100.382 6.41206 99.3247 5.35369 99.3247 4.04924Z" fill="black"/>
<path d="M119.19 4.04919C119.19 2.93087 120.096 2.0246 121.214 2.0246C122.333 2.0246 123.239 2.93087 123.239 4.04919C123.239 5.16813 122.333 6.07417 121.214 6.07417C120.096 6.07417 119.19 5.16813 119.19 4.04919Z" fill="black"/>
<path d="M139.055 4.04915C139.055 3.11748 139.81 2.36192 140.742 2.36192C141.673 2.36192 142.429 3.11748 142.429 4.04915C142.429 4.98059 141.673 5.73628 140.742 5.73628C139.81 5.73628 139.055 4.98059 139.055 4.04915Z" fill="black"/>
<path d="M158.92 4.04921C158.92 3.30381 159.524 2.69945 160.269 2.69945C161.015 2.69945 161.619 3.30381 161.619 4.04921C161.619 4.79514 161.015 5.39851 160.269 5.39851C159.524 5.39851 158.92 4.79514 158.92 4.04921Z" fill="black"/>
<path d="M178.784 4.04919C178.784 3.49015 179.238 3.0369 179.797 3.0369C180.356 3.0369 180.809 3.49015 180.809 4.04919C180.809 4.60763 180.356 5.06073 179.797 5.06073C179.238 5.06073 178.784 4.60763 178.784 4.04919Z" fill="black"/>
<path d="M198.649 4.04919C198.649 3.67657 198.952 3.37434 199.324 3.37434C199.697 3.37434 200 3.67657 200 4.04919C200 4.42212 199.697 4.72487 199.324 4.72487C198.952 4.72487 198.649 4.42212 198.649 4.04919Z" fill="black"/>
</g>
</g>
</svg>
