<svg width="205" height="205" viewBox="0 0 205 205" fill="none" xmlns="http://www.w3.org/2000/svg">
<g id="B=COMPLETA">
<g id="Bolinhas">
<path d="M12.6568 10.692C12.6568 11.5152 13.3241 12.1824 14.1472 12.1824C14.9703 12.1824 15.6376 11.5152 15.6376 10.692C15.6376 9.8688 14.9703 9.20161 14.1472 9.20161C13.3241 9.20161 12.6568 9.8688 12.6568 10.692ZM12.4912 10.692C12.4912 9.7774 13.2326 9.036 14.1472 9.036C15.0617 9.036 15.8031 9.7774 15.8031 10.692C15.8031 11.6066 15.0617 12.348 14.1472 12.348C13.2326 12.348 12.4912 11.6066 12.4912 10.692Z" fill="black"/>
<path d="M12.0607 30.692C12.0607 31.8444 12.9948 32.7786 14.1472 32.7786C15.2995 32.7786 16.2337 31.8444 16.2337 30.692C16.2337 29.5396 15.2995 28.6054 14.1472 28.6054C12.9948 28.6054 12.0607 29.5396 12.0607 30.692ZM11.8288 30.692C11.8288 29.4116 12.8668 28.3736 14.1472 28.3736C15.4276 28.3736 16.4655 29.4116 16.4655 30.692C16.4655 31.9724 15.4276 33.0104 14.1472 33.0104C12.8668 33.0104 11.8288 31.9724 11.8288 30.692Z" fill="black"/>
<path d="M11.4644 50.692C11.4644 52.1736 12.6655 53.3748 14.1472 53.3748C15.6288 53.3748 16.8299 52.1736 16.8299 50.692C16.8299 49.2104 15.6288 48.0092 14.1472 48.0092C12.6655 48.0092 11.4644 49.2104 11.4644 50.692ZM11.1664 50.692C11.1664 49.0458 12.5009 47.7112 14.1472 47.7112C15.7934 47.7112 17.128 49.0458 17.128 50.692C17.128 52.3382 15.7934 53.6728 14.1472 53.6728C12.5009 53.6728 11.1664 52.3382 11.1664 50.692Z" fill="black"/>
<path d="M10.8683 70.692C10.8683 72.5028 12.3363 73.971 14.1472 73.971C15.958 73.971 17.4261 72.5028 17.4261 70.692C17.4261 68.8812 15.958 67.413 14.1472 67.413C12.3363 67.413 10.8683 68.8812 10.8683 70.692ZM10.5041 70.692C10.5041 68.6798 12.1351 67.0488 14.1472 67.0488C16.1593 67.0488 17.7903 68.6798 17.7903 70.692C17.7903 72.7042 16.1593 74.3352 14.1472 74.3352C12.1351 74.3352 10.5041 72.7042 10.5041 70.692Z" fill="black"/>
<path d="M10.2722 90.692C10.2722 92.832 12.007 94.567 14.1472 94.567C16.2873 94.567 18.0222 92.832 18.0222 90.692C18.0222 88.552 16.2873 86.817 14.1472 86.817C12.007 86.817 10.2722 88.552 10.2722 90.692ZM9.84164 90.692C9.84164 88.314 11.7693 86.3864 14.1472 86.3864C16.5251 86.3864 18.4527 88.314 18.4527 90.692C18.4527 93.07 16.5251 94.9976 14.1472 94.9976C11.7693 94.9976 9.84164 93.07 9.84164 90.692Z" fill="black"/>
<path d="M9.676 110.692C9.676 113.161 11.6778 115.163 14.1472 115.163C16.6166 115.163 18.6184 113.161 18.6184 110.692C18.6184 108.223 16.6166 106.221 14.1472 106.221C11.6778 106.221 9.676 108.223 9.676 110.692ZM9.17922 110.692C9.17922 107.948 11.4034 105.724 14.1472 105.724C16.8909 105.724 19.1151 107.948 19.1151 110.692C19.1151 113.436 16.8909 115.66 14.1472 115.66C11.4034 115.66 9.17922 113.436 9.17922 110.692Z" fill="black"/>
<path d="M9.07984 130.692C9.07984 133.491 11.3485 135.759 14.1472 135.759C16.9459 135.759 19.2145 133.491 19.2145 130.692C19.2145 127.893 16.9459 125.625 14.1472 125.625C11.3485 125.625 9.07984 127.893 9.07984 130.692ZM8.51678 130.692C8.51678 127.582 11.0376 125.062 14.1472 125.062C17.2568 125.062 19.7776 127.582 19.7776 130.692C19.7776 133.802 17.2568 136.322 14.1472 136.322C11.0376 136.322 8.51678 133.802 8.51678 130.692Z" fill="black"/>
<path d="M8.48366 150.692C8.48366 153.82 11.0194 156.355 14.1472 156.355C17.275 156.355 19.8107 153.82 19.8107 150.692C19.8107 147.564 17.275 145.029 14.1472 145.029C11.0194 145.029 8.48366 147.564 8.48366 150.692ZM7.85436 150.692C7.85436 147.217 10.6718 144.399 14.1472 144.399C17.6226 144.399 20.44 147.217 20.44 150.692C20.44 154.167 17.6226 156.985 14.1472 156.985C10.6718 156.985 7.85436 154.167 7.85436 150.692Z" fill="black"/>
<path d="M7.8875 170.692C7.8875 174.149 10.6901 176.952 14.1472 176.952C17.6043 176.952 20.4069 174.149 20.4069 170.692C20.4069 167.235 17.6043 164.432 14.1472 164.432C10.6901 164.432 7.8875 167.235 7.8875 170.692ZM7.19202 170.692C7.19202 166.851 10.3059 163.737 14.1472 163.737C17.9884 163.737 21.1023 166.851 21.1023 170.692C21.1023 174.533 17.9884 177.647 14.1472 177.647C10.3059 177.647 7.19202 174.533 7.19202 170.692Z" fill="black"/>
<path d="M7.29132 190.692C7.29132 194.478 10.3609 197.548 14.1472 197.548C17.9335 197.548 21.003 194.478 21.003 190.692C21.003 186.906 17.9335 183.836 14.1472 183.836C10.3609 183.836 7.29132 186.906 7.29132 190.692ZM6.5296 190.692C6.5296 186.485 9.94008 183.074 14.1472 183.074C18.3543 183.074 21.7648 186.485 21.7648 190.692C21.7648 194.899 18.3543 198.31 14.1472 198.31C9.94008 198.31 6.5296 194.899 6.5296 190.692Z" fill="black"/>
<path d="M32.7864 10.692C32.7864 11.4436 33.3956 12.0528 34.1472 12.0528C34.8988 12.0528 35.508 11.4436 35.508 10.692C35.508 9.94039 34.8988 9.33119 34.1472 9.33119C33.3956 9.33119 32.7864 9.94039 32.7864 10.692ZM32.6352 10.692C32.6352 9.85699 33.3122 9.18 34.1472 9.18C34.9822 9.18 35.6592 9.85699 35.6592 10.692C35.6592 11.527 34.9822 12.204 34.1472 12.204C33.3122 12.204 32.6352 11.527 32.6352 10.692Z" fill="black"/>
<path d="M32.2422 30.692C32.2422 31.7442 33.095 32.597 34.1472 32.597C35.1994 32.597 36.0522 31.7442 36.0522 30.692C36.0522 29.6398 35.1994 28.787 34.1472 28.787C33.095 28.787 32.2422 29.6398 32.2422 30.692ZM32.0304 30.692C32.0304 29.523 32.9782 28.5752 34.1472 28.5752C35.3162 28.5752 36.264 29.523 36.264 30.692C36.264 31.861 35.3162 32.8088 34.1472 32.8088C32.9782 32.8088 32.0304 31.861 32.0304 30.692Z" fill="black"/>
<path d="M31.6978 50.692C31.6978 52.0448 32.7944 53.1414 34.1472 53.1414C35.5 53.1414 36.5966 52.0448 36.5966 50.692C36.5966 49.3392 35.5 48.2426 34.1472 48.2426C32.7944 48.2426 31.6978 49.3392 31.6978 50.692ZM31.4256 50.692C31.4256 49.1888 32.644 47.9704 34.1472 47.9704C35.6504 47.9704 36.8688 49.1888 36.8688 50.692C36.8688 52.1952 35.6504 53.4136 34.1472 53.4136C32.644 53.4136 31.4256 52.1952 31.4256 50.692Z" fill="black"/>
<path d="M31.1534 70.692C31.1534 72.3454 32.4938 73.6858 34.1472 73.6858C35.8006 73.6858 37.141 72.3454 37.141 70.692C37.141 69.0386 35.8006 67.6982 34.1472 67.6982C32.4938 67.6982 31.1534 69.0386 31.1534 70.692ZM30.8208 70.692C30.8208 68.8548 32.31 67.3656 34.1472 67.3656C35.9844 67.3656 37.4736 68.8548 37.4736 70.692C37.4736 72.5292 35.9844 74.0184 34.1472 74.0184C32.31 74.0184 30.8208 72.5292 30.8208 70.692Z" fill="black"/>
<path d="M30.6092 90.692C30.6092 92.6462 32.1932 94.23 34.1472 94.23C36.1012 94.23 37.6852 92.6462 37.6852 90.692C37.6852 88.7378 36.1012 87.154 34.1472 87.154C32.1932 87.154 30.6092 88.7378 30.6092 90.692ZM30.216 90.692C30.216 88.521 31.9762 86.7608 34.1472 86.7608C36.3182 86.7608 38.0784 88.521 38.0784 90.692C38.0784 92.863 36.3182 94.6232 34.1472 94.6232C31.9762 94.6232 30.216 92.863 30.216 90.692Z" fill="black"/>
<path d="M30.0648 110.692C30.0648 112.947 31.8926 114.774 34.1472 114.774C36.4018 114.774 38.2296 112.947 38.2296 110.692C38.2296 108.437 36.4018 106.61 34.1472 106.61C31.8926 106.61 30.0648 108.437 30.0648 110.692ZM29.6112 110.692C29.6112 108.187 31.642 106.156 34.1472 106.156C36.6524 106.156 38.6832 108.187 38.6832 110.692C38.6832 113.197 36.6524 115.228 34.1472 115.228C31.642 115.228 29.6112 113.197 29.6112 110.692Z" fill="black"/>
<path d="M29.5204 130.692C29.5204 133.247 31.592 135.319 34.1472 135.319C36.7024 135.319 38.774 133.247 38.774 130.692C38.774 128.137 36.7024 126.065 34.1472 126.065C31.592 126.065 29.5204 128.137 29.5204 130.692ZM29.0064 130.692C29.0064 127.853 31.308 125.551 34.1472 125.551C36.9864 125.551 39.288 127.853 39.288 130.692C39.288 133.531 36.9864 135.833 34.1472 135.833C31.308 135.833 29.0064 133.531 29.0064 130.692Z" fill="black"/>
<path d="M28.9762 150.692C28.9762 153.548 31.2914 155.863 34.1472 155.863C37.003 155.863 39.3182 153.548 39.3182 150.692C39.3182 147.836 37.003 145.521 34.1472 145.521C31.2914 145.521 28.9762 147.836 28.9762 150.692ZM28.4016 150.692C28.4016 147.519 30.974 144.946 34.1472 144.946C37.3204 144.946 39.8928 147.519 39.8928 150.692C39.8928 153.865 37.3204 156.438 34.1472 156.438C30.974 156.438 28.4016 153.865 28.4016 150.692Z" fill="black"/>
<path d="M28.4318 170.692C28.4318 173.848 30.9906 176.407 34.1472 176.407C37.3038 176.407 39.8626 173.848 39.8626 170.692C39.8626 167.536 37.3038 164.977 34.1472 164.977C30.9906 164.977 28.4318 167.536 28.4318 170.692ZM27.7968 170.692C27.7968 167.185 30.64 164.342 34.1472 164.342C37.6544 164.342 40.4976 167.185 40.4976 170.692C40.4976 174.199 37.6544 177.042 34.1472 177.042C30.64 177.042 27.7968 174.199 27.7968 170.692Z" fill="black"/>
<path d="M27.8876 190.692C27.8876 194.149 30.69 196.952 34.1472 196.952C37.6044 196.952 40.4068 194.149 40.4068 190.692C40.4068 187.235 37.6044 184.432 34.1472 184.432C30.69 184.432 27.8876 187.235 27.8876 190.692ZM27.192 190.692C27.192 186.851 30.306 183.737 34.1472 183.737C37.9884 183.737 41.1024 186.851 41.1024 190.692C41.1024 194.533 37.9884 197.647 34.1472 197.647C30.306 197.647 27.192 194.533 27.192 190.692Z" fill="black"/>
<path d="M52.916 10.692C52.916 11.372 53.4672 11.9232 54.1472 11.9232C54.8272 11.9232 55.3784 11.372 55.3784 10.692C55.3784 10.012 54.8272 9.4608 54.1472 9.4608C53.4672 9.4608 52.916 10.012 52.916 10.692ZM52.7792 10.692C52.7792 9.93639 53.3916 9.32399 54.1472 9.32399C54.9028 9.32399 55.5152 9.93639 55.5152 10.692C55.5152 11.4476 54.9028 12.06 54.1472 12.06C53.3916 12.06 52.7792 11.4476 52.7792 10.692Z" fill="black"/>
<path d="M52.4236 30.692C52.4236 31.644 53.1952 32.4156 54.1472 32.4156C55.0992 32.4156 55.8708 31.644 55.8708 30.692C55.8708 29.74 55.0992 28.9684 54.1472 28.9684C53.1952 28.9684 52.4236 29.74 52.4236 30.692ZM52.232 30.692C52.232 29.6342 53.0894 28.7768 54.1472 28.7768C55.205 28.7768 56.0624 29.6342 56.0624 30.692C56.0624 31.7498 55.205 32.6072 54.1472 32.6072C53.0894 32.6072 52.232 31.7498 52.232 30.692Z" fill="black"/>
<path d="M51.931 50.692C51.931 51.916 52.9232 52.9082 54.1472 52.9082C55.3712 52.9082 56.3634 51.916 56.3634 50.692C56.3634 49.468 55.3712 48.4758 54.1472 48.4758C52.9232 48.4758 51.931 49.468 51.931 50.692ZM51.6848 50.692C51.6848 49.332 52.7872 48.2296 54.1472 48.2296C55.5072 48.2296 56.6096 49.332 56.6096 50.692C56.6096 52.052 55.5072 53.1544 54.1472 53.1544C52.7872 53.1544 51.6848 52.052 51.6848 50.692Z" fill="black"/>
<path d="M51.4386 70.692C51.4386 72.1878 52.6514 73.4006 54.1472 73.4006C55.643 73.4006 56.8558 72.1878 56.8558 70.692C56.8558 69.1962 55.643 67.9834 54.1472 67.9834C52.6514 67.9834 51.4386 69.1962 51.4386 70.692ZM51.1376 70.692C51.1376 69.0298 52.485 67.6824 54.1472 67.6824C55.8094 67.6824 57.1568 69.0298 57.1568 70.692C57.1568 72.3542 55.8094 73.7016 54.1472 73.7016C52.485 73.7016 51.1376 72.3542 51.1376 70.692Z" fill="black"/>
<path d="M50.9462 90.692C50.9462 92.46 52.3792 93.8932 54.1472 93.8932C55.9152 93.8932 57.3484 92.46 57.3484 90.692C57.3484 88.924 55.9152 87.4908 54.1472 87.4908C52.3792 87.4908 50.9462 88.924 50.9462 90.692ZM50.5904 90.692C50.5904 88.7276 52.1828 87.1352 54.1472 87.1352C56.1116 87.1352 57.704 88.7276 57.704 90.692C57.704 92.6564 56.1116 94.2488 54.1472 94.2488C52.1828 94.2488 50.5904 92.6564 50.5904 90.692Z" fill="black"/>
<path d="M50.4536 110.692C50.4536 112.732 52.1072 114.386 54.1472 114.386C56.1872 114.386 57.8408 112.732 57.8408 110.692C57.8408 108.652 56.1872 106.998 54.1472 106.998C52.1072 106.998 50.4536 108.652 50.4536 110.692ZM50.0432 110.692C50.0432 108.425 51.8806 106.588 54.1472 106.588C56.4138 106.588 58.2512 108.425 58.2512 110.692C58.2512 112.959 56.4138 114.796 54.1472 114.796C51.8806 114.796 50.0432 112.959 50.0432 110.692Z" fill="black"/>
<path d="M49.9612 130.692C49.9612 133.004 51.8352 134.878 54.1472 134.878C56.4592 134.878 58.3332 133.004 58.3332 130.692C58.3332 128.38 56.4592 126.506 54.1472 126.506C51.8352 126.506 49.9612 128.38 49.9612 130.692ZM49.496 130.692C49.496 128.123 51.5784 126.041 54.1472 126.041C56.716 126.041 58.7984 128.123 58.7984 130.692C58.7984 133.261 56.716 135.343 54.1472 135.343C51.5784 135.343 49.496 133.261 49.496 130.692Z" fill="black"/>
<path d="M49.4686 150.692C49.4686 153.276 51.5634 155.371 54.1472 155.371C56.731 155.371 58.8258 153.276 58.8258 150.692C58.8258 148.108 56.731 146.013 54.1472 146.013C51.5634 146.013 49.4686 148.108 49.4686 150.692ZM48.9488 150.692C48.9488 147.821 51.2762 145.494 54.1472 145.494C57.0182 145.494 59.3456 147.821 59.3456 150.692C59.3456 153.563 57.0182 155.89 54.1472 155.89C51.2762 155.89 48.9488 153.563 48.9488 150.692Z" fill="black"/>
<path d="M48.9762 170.692C48.9762 173.548 51.2914 175.863 54.1472 175.863C57.003 175.863 59.3182 173.548 59.3182 170.692C59.3182 167.836 57.003 165.521 54.1472 165.521C51.2914 165.521 48.9762 167.836 48.9762 170.692ZM48.4016 170.692C48.4016 167.519 50.974 164.946 54.1472 164.946C57.3204 164.946 59.8928 167.519 59.8928 170.692C59.8928 173.865 57.3204 176.438 54.1472 176.438C50.974 176.438 48.4016 173.865 48.4016 170.692Z" fill="black"/>
<path d="M48.4838 190.692C48.4838 193.82 51.0194 196.355 54.1472 196.355C57.275 196.355 59.8106 193.82 59.8106 190.692C59.8106 187.564 57.275 185.029 54.1472 185.029C51.0194 185.029 48.4838 187.564 48.4838 190.692ZM47.8544 190.692C47.8544 187.217 50.6718 184.399 54.1472 184.399C57.6226 184.399 60.44 187.217 60.44 190.692C60.44 194.167 57.6226 196.985 54.1472 196.985C50.6718 196.985 47.8544 194.167 47.8544 190.692Z" fill="black"/>
<path d="M73.0456 10.692C73.0456 11.3004 73.5388 11.7936 74.1472 11.7936C74.7556 11.7936 75.2488 11.3004 75.2488 10.692C75.2488 10.0836 74.7556 9.59038 74.1472 9.59038C73.5388 9.59038 73.0456 10.0836 73.0456 10.692ZM72.9232 10.692C72.9232 10.016 73.4712 9.46798 74.1472 9.46798C74.8232 9.46798 75.3712 10.016 75.3712 10.692C75.3712 11.368 74.8232 11.916 74.1472 11.916C73.4712 11.916 72.9232 11.368 72.9232 10.692Z" fill="black"/>
<path d="M72.605 30.692C72.605 31.5438 73.2954 32.2342 74.1472 32.2342C74.999 32.2342 75.6894 31.5438 75.6894 30.692C75.6894 29.8402 74.999 29.1498 74.1472 29.1498C73.2954 29.1498 72.605 29.8402 72.605 30.692ZM72.4336 30.692C72.4336 29.7456 73.2008 28.9784 74.1472 28.9784C75.0936 28.9784 75.8608 29.7456 75.8608 30.692C75.8608 31.6384 75.0936 32.4056 74.1472 32.4056C73.2008 32.4056 72.4336 31.6384 72.4336 30.692Z" fill="black"/>
<path d="M72.1644 50.692C72.1644 51.7872 73.052 52.675 74.1472 52.675C75.2424 52.675 76.13 51.7872 76.13 50.692C76.13 49.5968 75.2424 48.709 74.1472 48.709C73.052 48.709 72.1644 49.5968 72.1644 50.692ZM71.944 50.692C71.944 49.4752 72.9304 48.4888 74.1472 48.4888C75.364 48.4888 76.3504 49.4752 76.3504 50.692C76.3504 51.9088 75.364 52.8952 74.1472 52.8952C72.9304 52.8952 71.944 51.9088 71.944 50.692Z" fill="black"/>
<path d="M71.7238 70.692C71.7238 72.0304 72.8088 73.1156 74.1472 73.1156C75.4856 73.1156 76.5706 72.0304 76.5706 70.692C76.5706 69.3536 75.4856 68.2684 74.1472 68.2684C72.8088 68.2684 71.7238 69.3536 71.7238 70.692ZM71.4544 70.692C71.4544 69.2048 72.66 67.9992 74.1472 67.9992C75.6344 67.9992 76.84 69.2048 76.84 70.692C76.84 72.1792 75.6344 73.3848 74.1472 73.3848C72.66 73.3848 71.4544 72.1792 71.4544 70.692Z" fill="black"/>
<path d="M71.2832 90.692C71.2832 92.2738 72.5654 93.556 74.1472 93.556C75.729 93.556 77.0112 92.2738 77.0112 90.692C77.0112 89.1102 75.729 87.828 74.1472 87.828C72.5654 87.828 71.2832 89.1102 71.2832 90.692ZM70.9648 90.692C70.9648 88.9344 72.3896 87.5096 74.1472 87.5096C75.9048 87.5096 77.3296 88.9344 77.3296 90.692C77.3296 92.4496 75.9048 93.8744 74.1472 93.8744C72.3896 93.8744 70.9648 92.4496 70.9648 90.692Z" fill="black"/>
<path d="M70.8424 110.692C70.8424 112.517 72.322 113.997 74.1472 113.997C75.9724 113.997 77.452 112.517 77.452 110.692C77.452 108.867 75.9724 107.387 74.1472 107.387C72.322 107.387 70.8424 108.867 70.8424 110.692ZM70.4752 110.692C70.4752 108.664 72.1192 107.02 74.1472 107.02C76.1752 107.02 77.8192 108.664 77.8192 110.692C77.8192 112.72 76.1752 114.364 74.1472 114.364C72.1192 114.364 70.4752 112.72 70.4752 110.692Z" fill="black"/>
<path d="M70.4016 130.692C70.4016 132.761 72.0786 134.438 74.1472 134.438C76.2158 134.438 77.8928 132.761 77.8928 130.692C77.8928 128.623 76.2158 126.946 74.1472 126.946C72.0786 126.946 70.4016 128.623 70.4016 130.692ZM69.9856 130.692C69.9856 128.394 71.8488 126.53 74.1472 126.53C76.4456 126.53 78.3088 128.394 78.3088 130.692C78.3088 132.99 76.4456 134.854 74.1472 134.854C71.8488 134.854 69.9856 132.99 69.9856 130.692Z" fill="black"/>
<path d="M69.961 150.692C69.961 153.004 71.8352 154.878 74.1472 154.878C76.4592 154.878 78.3334 153.004 78.3334 150.692C78.3334 148.38 76.4592 146.506 74.1472 146.506C71.8352 146.506 69.961 148.38 69.961 150.692ZM69.496 150.692C69.496 148.123 71.5784 146.041 74.1472 146.041C76.716 146.041 78.7984 148.123 78.7984 150.692C78.7984 153.261 76.716 155.343 74.1472 155.343C71.5784 155.343 69.496 153.261 69.496 150.692Z" fill="black"/>
<path d="M69.5204 170.692C69.5204 173.247 71.592 175.319 74.1472 175.319C76.7024 175.319 78.774 173.247 78.774 170.692C78.774 168.137 76.7024 166.065 74.1472 166.065C71.592 166.065 69.5204 168.137 69.5204 170.692ZM69.0064 170.692C69.0064 167.853 71.308 165.551 74.1472 165.551C76.9864 165.551 79.288 167.853 79.288 170.692C79.288 173.531 76.9864 175.833 74.1472 175.833C71.308 175.833 69.0064 173.531 69.0064 170.692Z" fill="black"/>
<path d="M69.0798 190.692C69.0798 193.491 71.3486 195.759 74.1472 195.759C76.9458 195.759 79.2146 193.491 79.2146 190.692C79.2146 187.893 76.9458 185.625 74.1472 185.625C71.3486 185.625 69.0798 187.893 69.0798 190.692ZM68.5168 190.692C68.5168 187.582 71.0376 185.062 74.1472 185.062C77.2568 185.062 79.7776 187.582 79.7776 190.692C79.7776 193.802 77.2568 196.322 74.1472 196.322C71.0376 196.322 68.5168 193.802 68.5168 190.692Z" fill="black"/>
<path d="M93.1752 10.692C93.1752 11.2288 93.6102 11.664 94.1472 11.664C94.6842 11.664 95.1192 11.2288 95.1192 10.692C95.1192 10.1552 94.6842 9.72 94.1472 9.72C93.6102 9.72 93.1752 10.1552 93.1752 10.692ZM93.0672 10.692C93.0672 10.0956 93.5508 9.61199 94.1472 9.61199C94.7436 9.61199 95.2272 10.0956 95.2272 10.692C95.2272 11.2884 94.7436 11.772 94.1472 11.772C93.5508 11.772 93.0672 11.2884 93.0672 10.692Z" fill="black"/>
<path d="M92.7864 30.692C92.7864 31.4436 93.3956 32.0528 94.1472 32.0528C94.8988 32.0528 95.508 31.4436 95.508 30.692C95.508 29.9404 94.8988 29.3312 94.1472 29.3312C93.3956 29.3312 92.7864 29.9404 92.7864 30.692ZM92.6352 30.692C92.6352 29.857 93.3122 29.18 94.1472 29.18C94.9822 29.18 95.6592 29.857 95.6592 30.692C95.6592 31.527 94.9822 32.204 94.1472 32.204C93.3122 32.204 92.6352 31.527 92.6352 30.692Z" fill="black"/>
<path d="M92.3976 50.692C92.3976 51.6584 93.181 52.4416 94.1472 52.4416C95.1134 52.4416 95.8968 51.6584 95.8968 50.692C95.8968 49.7256 95.1134 48.9424 94.1472 48.9424C93.181 48.9424 92.3976 49.7256 92.3976 50.692ZM92.2032 50.692C92.2032 49.6184 93.0736 48.748 94.1472 48.748C95.2208 48.748 96.0912 49.6184 96.0912 50.692C96.0912 51.7656 95.2208 52.636 94.1472 52.636C93.0736 52.636 92.2032 51.7656 92.2032 50.692Z" fill="black"/>
<path d="M92.0088 70.692C92.0088 71.873 92.9662 72.8304 94.1472 72.8304C95.3282 72.8304 96.2856 71.873 96.2856 70.692C96.2856 69.511 95.3282 68.5536 94.1472 68.5536C92.9662 68.5536 92.0088 69.511 92.0088 70.692ZM91.7712 70.692C91.7712 69.3798 92.8348 68.316 94.1472 68.316C95.4596 68.316 96.5232 69.3798 96.5232 70.692C96.5232 72.0042 95.4596 73.068 94.1472 73.068C92.8348 73.068 91.7712 72.0042 91.7712 70.692Z" fill="black"/>
<path d="M91.62 90.692C91.62 92.0878 92.7514 93.2192 94.1472 93.2192C95.543 93.2192 96.6744 92.0878 96.6744 90.692C96.6744 89.2962 95.543 88.1648 94.1472 88.1648C92.7514 88.1648 91.62 89.2962 91.62 90.692ZM91.3392 90.692C91.3392 89.1412 92.5964 87.884 94.1472 87.884C95.698 87.884 96.9552 89.1412 96.9552 90.692C96.9552 92.2428 95.698 93.5 94.1472 93.5C92.5964 93.5 91.3392 92.2428 91.3392 90.692Z" fill="black"/>
<path d="M91.2312 110.692C91.2312 112.303 92.5366 113.608 94.1472 113.608C95.7578 113.608 97.0632 112.303 97.0632 110.692C97.0632 109.081 95.7578 107.776 94.1472 107.776C92.5366 107.776 91.2312 109.081 91.2312 110.692ZM90.9072 110.692C90.9072 108.903 92.3578 107.452 94.1472 107.452C95.9366 107.452 97.3872 108.903 97.3872 110.692C97.3872 112.481 95.9366 113.932 94.1472 113.932C92.3578 113.932 90.9072 112.481 90.9072 110.692Z" fill="black"/>
<path d="M90.8424 130.692C90.8424 132.517 92.322 133.997 94.1472 133.997C95.9724 133.997 97.452 132.517 97.452 130.692C97.452 128.867 95.9724 127.387 94.1472 127.387C92.322 127.387 90.8424 128.867 90.8424 130.692ZM90.4752 130.692C90.4752 128.664 92.1192 127.02 94.1472 127.02C96.1752 127.02 97.8192 128.664 97.8192 130.692C97.8192 132.72 96.1752 134.364 94.1472 134.364C92.1192 134.364 90.4752 132.72 90.4752 130.692Z" fill="black"/>
<path d="M90.4536 150.692C90.4536 152.732 92.1074 154.386 94.1472 154.386C96.187 154.386 97.8408 152.732 97.8408 150.692C97.8408 148.652 96.187 146.998 94.1472 146.998C92.1074 146.998 90.4536 148.652 90.4536 150.692ZM90.0432 150.692C90.0432 148.425 91.8806 146.588 94.1472 146.588C96.4138 146.588 98.2512 148.425 98.2512 150.692C98.2512 152.959 96.4138 154.796 94.1472 154.796C91.8806 154.796 90.0432 152.959 90.0432 150.692Z" fill="black"/>
<path d="M90.0648 170.692C90.0648 172.947 91.8926 174.774 94.1472 174.774C96.4018 174.774 98.2296 172.947 98.2296 170.692C98.2296 168.437 96.4018 166.61 94.1472 166.61C91.8926 166.61 90.0648 168.437 90.0648 170.692ZM89.6112 170.692C89.6112 168.187 91.6422 166.156 94.1472 166.156C96.6522 166.156 98.6832 168.187 98.6832 170.692C98.6832 173.197 96.6522 175.228 94.1472 175.228C91.6422 175.228 89.6112 173.197 89.6112 170.692Z" fill="black"/>
<path d="M89.676 190.692C89.676 193.161 91.6778 195.163 94.1472 195.163C96.6166 195.163 98.6184 193.161 98.6184 190.692C98.6184 188.223 96.6166 186.221 94.1472 186.221C91.6778 186.221 89.676 188.223 89.676 190.692ZM89.1792 190.692C89.1792 187.948 91.4034 185.724 94.1472 185.724C96.891 185.724 99.1152 187.948 99.1152 190.692C99.1152 193.436 96.891 195.66 94.1472 195.66C91.4034 195.66 89.1792 193.436 89.1792 190.692Z" fill="black"/>
<path d="M113.305 10.692C113.305 11.1572 113.682 11.5344 114.147 11.5344C114.612 11.5344 114.99 11.1572 114.99 10.692C114.99 10.2268 114.612 9.84958 114.147 9.84958C113.682 9.84958 113.305 10.2268 113.305 10.692ZM113.211 10.692C113.211 10.175 113.63 9.75599 114.147 9.75599C114.664 9.75599 115.083 10.175 115.083 10.692C115.083 11.209 114.664 11.628 114.147 11.628C113.63 11.628 113.211 11.209 113.211 10.692Z" fill="black"/>
<path d="M112.968 30.692C112.968 31.3434 113.496 31.8714 114.147 31.8714C114.799 31.8714 115.326 31.3434 115.326 30.692C115.326 30.0406 114.799 29.5126 114.147 29.5126C113.496 29.5126 112.968 30.0406 112.968 30.692ZM112.837 30.692C112.837 29.9682 113.424 29.3816 114.147 29.3816C114.871 29.3816 115.458 29.9682 115.458 30.692C115.458 31.4158 114.871 32.0024 114.147 32.0024C113.424 32.0024 112.837 31.4158 112.837 30.692Z" fill="black"/>
<path d="M112.631 50.692C112.631 51.5294 113.31 52.2084 114.147 52.2084C114.985 52.2084 115.664 51.5294 115.664 50.692C115.664 49.8546 114.985 49.1756 114.147 49.1756C113.31 49.1756 112.631 49.8546 112.631 50.692ZM112.462 50.692C112.462 49.7616 113.217 49.0072 114.147 49.0072C115.078 49.0072 115.832 49.7616 115.832 50.692C115.832 51.6224 115.078 52.3768 114.147 52.3768C113.217 52.3768 112.462 51.6224 112.462 50.692Z" fill="black"/>
<path d="M112.294 70.692C112.294 71.7156 113.124 72.5454 114.147 72.5454C115.171 72.5454 116.001 71.7156 116.001 70.692C116.001 69.6684 115.171 68.8386 114.147 68.8386C113.124 68.8386 112.294 69.6684 112.294 70.692ZM112.088 70.692C112.088 69.5546 113.01 68.6328 114.147 68.6328C115.285 68.6328 116.206 69.5546 116.206 70.692C116.206 71.8294 115.285 72.7512 114.147 72.7512C113.01 72.7512 112.088 71.8294 112.088 70.692Z" fill="black"/>
<path d="M111.957 90.692C111.957 91.9016 112.938 92.8822 114.147 92.8822C115.357 92.8822 116.337 91.9016 116.337 90.692C116.337 89.4824 115.357 88.5018 114.147 88.5018C112.938 88.5018 111.957 89.4824 111.957 90.692ZM111.714 90.692C111.714 89.3478 112.803 88.2584 114.147 88.2584C115.491 88.2584 116.581 89.3478 116.581 90.692C116.581 92.0362 115.491 93.1256 114.147 93.1256C112.803 93.1256 111.714 92.0362 111.714 90.692Z" fill="black"/>
<path d="M111.62 110.692C111.62 112.088 112.751 113.219 114.147 113.219C115.543 113.219 116.674 112.088 116.674 110.692C116.674 109.296 115.543 108.165 114.147 108.165C112.751 108.165 111.62 109.296 111.62 110.692ZM111.339 110.692C111.339 109.141 112.596 107.884 114.147 107.884C115.698 107.884 116.955 109.141 116.955 110.692C116.955 112.243 115.698 113.5 114.147 113.5C112.596 113.5 111.339 112.243 111.339 110.692Z" fill="black"/>
<path d="M111.283 130.692C111.283 132.274 112.565 133.556 114.147 133.556C115.729 133.556 117.011 132.274 117.011 130.692C117.011 129.11 115.729 127.828 114.147 127.828C112.565 127.828 111.283 129.11 111.283 130.692ZM110.965 130.692C110.965 128.934 112.39 127.51 114.147 127.51C115.905 127.51 117.33 128.934 117.33 130.692C117.33 132.45 115.905 133.874 114.147 133.874C112.39 133.874 110.965 132.45 110.965 130.692Z" fill="black"/>
<path d="M110.946 150.692C110.946 152.46 112.379 153.893 114.147 153.893C115.915 153.893 117.348 152.46 117.348 150.692C117.348 148.924 115.915 147.491 114.147 147.491C112.379 147.491 110.946 148.924 110.946 150.692ZM110.59 150.692C110.59 148.728 112.183 147.135 114.147 147.135C116.112 147.135 117.704 148.728 117.704 150.692C117.704 152.656 116.112 154.249 114.147 154.249C112.183 154.249 110.59 152.656 110.59 150.692Z" fill="black"/>
<path d="M110.609 170.692C110.609 172.646 112.193 174.23 114.147 174.23C116.101 174.23 117.685 172.646 117.685 170.692C117.685 168.738 116.101 167.154 114.147 167.154C112.193 167.154 110.609 168.738 110.609 170.692ZM110.216 170.692C110.216 168.521 111.976 166.761 114.147 166.761C116.318 166.761 118.078 168.521 118.078 170.692C118.078 172.863 116.318 174.623 114.147 174.623C111.976 174.623 110.216 172.863 110.216 170.692Z" fill="black"/>
<path d="M110.272 190.692C110.272 192.832 112.007 194.567 114.147 194.567C116.287 194.567 118.022 192.832 118.022 190.692C118.022 188.552 116.287 186.817 114.147 186.817C112.007 186.817 110.272 188.552 110.272 190.692ZM109.842 190.692C109.842 188.314 111.769 186.386 114.147 186.386C116.525 186.386 118.453 188.314 118.453 190.692C118.453 193.07 116.525 194.998 114.147 194.998C111.769 194.998 109.842 193.07 109.842 190.692Z" fill="black"/>
<path d="M133.434 10.692C133.434 11.0856 133.753 11.4048 134.147 11.4048C134.541 11.4048 134.86 11.0856 134.86 10.692C134.86 10.2984 134.541 9.9792 134.147 9.9792C133.753 9.9792 133.434 10.2984 133.434 10.692ZM133.355 10.692C133.355 10.2546 133.71 9.9 134.147 9.9C134.585 9.9 134.939 10.2546 134.939 10.692C134.939 11.1294 134.585 11.484 134.147 11.484C133.71 11.484 133.355 11.1294 133.355 10.692Z" fill="black"/>
<path d="M133.149 30.692C133.149 31.2432 133.596 31.69 134.147 31.69C134.698 31.69 135.145 31.2432 135.145 30.692C135.145 30.1408 134.698 29.694 134.147 29.694C133.596 29.694 133.149 30.1408 133.149 30.692ZM133.038 30.692C133.038 30.0796 133.535 29.5832 134.147 29.5832C134.76 29.5832 135.256 30.0796 135.256 30.692C135.256 31.3044 134.76 31.8008 134.147 31.8008C133.535 31.8008 133.038 31.3044 133.038 30.692Z" fill="black"/>
<path d="M132.864 50.692C132.864 51.4006 133.439 51.975 134.147 51.975C134.856 51.975 135.43 51.4006 135.43 50.692C135.43 49.9834 134.856 49.409 134.147 49.409C133.439 49.409 132.864 49.9834 132.864 50.692ZM132.722 50.692C132.722 49.9046 133.36 49.2664 134.147 49.2664C134.935 49.2664 135.573 49.9046 135.573 50.692C135.573 51.4794 134.935 52.1176 134.147 52.1176C133.36 52.1176 132.722 51.4794 132.722 50.692Z" fill="black"/>
<path d="M132.579 70.692C132.579 71.5582 133.281 72.2602 134.147 72.2602C135.013 72.2602 135.715 71.5582 135.715 70.692C135.715 69.8258 135.013 69.1238 134.147 69.1238C133.281 69.1238 132.579 69.8258 132.579 70.692ZM132.405 70.692C132.405 69.7296 133.185 68.9496 134.147 68.9496C135.11 68.9496 135.89 69.7296 135.89 70.692C135.89 71.6544 135.11 72.4344 134.147 72.4344C133.185 72.4344 132.405 71.6544 132.405 70.692Z" fill="black"/>
<path d="M132.294 90.692C132.294 91.7156 133.124 92.5454 134.147 92.5454C135.171 92.5454 136.001 91.7156 136.001 90.692C136.001 89.6684 135.171 88.8386 134.147 88.8386C133.124 88.8386 132.294 89.6684 132.294 90.692ZM132.088 90.692C132.088 89.5546 133.01 88.6328 134.147 88.6328C135.285 88.6328 136.206 89.5546 136.206 90.692C136.206 91.8294 135.285 92.7512 134.147 92.7512C133.01 92.7512 132.088 91.8294 132.088 90.692Z" fill="black"/>
<path d="M132.009 110.692C132.009 111.873 132.966 112.83 134.147 112.83C135.328 112.83 136.286 111.873 136.286 110.692C136.286 109.511 135.328 108.554 134.147 108.554C132.966 108.554 132.009 109.511 132.009 110.692ZM131.771 110.692C131.771 109.38 132.835 108.316 134.147 108.316C135.46 108.316 136.523 109.38 136.523 110.692C136.523 112.004 135.46 113.068 134.147 113.068C132.835 113.068 131.771 112.004 131.771 110.692Z" fill="black"/>
<path d="M131.724 130.692C131.724 132.03 132.809 133.115 134.147 133.115C135.486 133.115 136.571 132.03 136.571 130.692C136.571 129.354 135.486 128.269 134.147 128.269C132.809 128.269 131.724 129.354 131.724 130.692ZM131.454 130.692C131.454 129.205 132.66 127.999 134.147 127.999C135.634 127.999 136.84 129.205 136.84 130.692C136.84 132.179 135.634 133.385 134.147 133.385C132.66 133.385 131.454 132.179 131.454 130.692Z" fill="black"/>
<path d="M131.439 150.692C131.439 152.188 132.651 153.401 134.147 153.401C135.643 153.401 136.856 152.188 136.856 150.692C136.856 149.196 135.643 147.983 134.147 147.983C132.651 147.983 131.439 149.196 131.439 150.692ZM131.138 150.692C131.138 149.03 132.485 147.682 134.147 147.682C135.809 147.682 137.157 149.03 137.157 150.692C137.157 152.354 135.809 153.702 134.147 153.702C132.485 153.702 131.138 152.354 131.138 150.692Z" fill="black"/>
<path d="M131.153 170.692C131.153 172.345 132.494 173.686 134.147 173.686C135.801 173.686 137.141 172.345 137.141 170.692C137.141 169.039 135.801 167.698 134.147 167.698C132.494 167.698 131.153 169.039 131.153 170.692ZM130.821 170.692C130.821 168.855 132.31 167.366 134.147 167.366C135.984 167.366 137.474 168.855 137.474 170.692C137.474 172.529 135.984 174.018 134.147 174.018C132.31 174.018 130.821 172.529 130.821 170.692Z" fill="black"/>
<path d="M130.868 190.692C130.868 192.503 132.336 193.971 134.147 193.971C135.958 193.971 137.426 192.503 137.426 190.692C137.426 188.881 135.958 187.413 134.147 187.413C132.336 187.413 130.868 188.881 130.868 190.692ZM130.504 190.692C130.504 188.68 132.135 187.049 134.147 187.049C136.159 187.049 137.79 188.68 137.79 190.692C137.79 192.704 136.159 194.335 134.147 194.335C132.135 194.335 130.504 192.704 130.504 190.692Z" fill="black"/>
<path d="M153.564 10.692C153.564 11.014 153.825 11.2752 154.147 11.2752C154.469 11.2752 154.73 11.014 154.73 10.692C154.73 10.3698 154.469 10.1088 154.147 10.1088C153.825 10.1088 153.564 10.3698 153.564 10.692ZM153.499 10.692C153.499 10.334 153.789 10.044 154.147 10.044C154.505 10.044 154.795 10.334 154.795 10.692C154.795 11.0498 154.505 11.34 154.147 11.34C153.789 11.34 153.499 11.0498 153.499 10.692Z" fill="black"/>
<path d="M153.331 30.692C153.331 31.143 153.696 31.5086 154.147 31.5086C154.598 31.5086 154.964 31.143 154.964 30.692C154.964 30.241 154.598 29.8754 154.147 29.8754C153.696 29.8754 153.331 30.241 153.331 30.692ZM153.24 30.692C153.24 30.191 153.646 29.7848 154.147 29.7848C154.648 29.7848 155.054 30.191 155.054 30.692C155.054 31.193 154.648 31.5992 154.147 31.5992C153.646 31.5992 153.24 31.193 153.24 30.692Z" fill="black"/>
<path d="M153.097 50.692C153.097 51.2718 153.568 51.7418 154.147 51.7418C154.727 51.7418 155.197 51.2718 155.197 50.692C155.197 50.1122 154.727 49.6422 154.147 49.6422C153.568 49.6422 153.097 50.1122 153.097 50.692ZM152.981 50.692C152.981 50.0478 153.503 49.5256 154.147 49.5256C154.791 49.5256 155.314 50.0478 155.314 50.692C155.314 51.3362 154.791 51.8584 154.147 51.8584C153.503 51.8584 152.981 51.3362 152.981 50.692Z" fill="black"/>
<path d="M152.864 70.692C152.864 71.4006 153.439 71.975 154.147 71.975C154.856 71.975 155.43 71.4006 155.43 70.692C155.43 69.9834 154.856 69.409 154.147 69.409C153.439 69.409 152.864 69.9834 152.864 70.692ZM152.722 70.692C152.722 69.9046 153.36 69.2664 154.147 69.2664C154.935 69.2664 155.573 69.9046 155.573 70.692C155.573 71.4794 154.935 72.1176 154.147 72.1176C153.36 72.1176 152.722 71.4794 152.722 70.692Z" fill="black"/>
<path d="M152.631 90.692C152.631 91.5296 153.31 92.2084 154.147 92.2084C154.985 92.2084 155.664 91.5296 155.664 90.692C155.664 89.8546 154.985 89.1756 154.147 89.1756C153.31 89.1756 152.631 89.8546 152.631 90.692ZM152.462 90.692C152.462 89.7616 153.217 89.0072 154.147 89.0072C155.078 89.0072 155.832 89.7616 155.832 90.692C155.832 91.6224 155.078 92.3768 154.147 92.3768C153.217 92.3768 152.462 91.6224 152.462 90.692Z" fill="black"/>
<path d="M152.398 110.692C152.398 111.658 153.181 112.442 154.147 112.442C155.113 112.442 155.897 111.658 155.897 110.692C155.897 109.726 155.113 108.942 154.147 108.942C153.181 108.942 152.398 109.726 152.398 110.692ZM152.203 110.692C152.203 109.618 153.074 108.748 154.147 108.748C155.221 108.748 156.091 109.618 156.091 110.692C156.091 111.766 155.221 112.636 154.147 112.636C153.074 112.636 152.203 111.766 152.203 110.692Z" fill="black"/>
<path d="M152.164 130.692C152.164 131.787 153.052 132.675 154.147 132.675C155.242 132.675 156.13 131.787 156.13 130.692C156.13 129.597 155.242 128.709 154.147 128.709C153.052 128.709 152.164 129.597 152.164 130.692ZM151.944 130.692C151.944 129.475 152.93 128.489 154.147 128.489C155.364 128.489 156.35 129.475 156.35 130.692C156.35 131.909 155.364 132.895 154.147 132.895C152.93 132.895 151.944 131.909 151.944 130.692Z" fill="black"/>
<path d="M151.931 150.692C151.931 151.916 152.923 152.908 154.147 152.908C155.371 152.908 156.363 151.916 156.363 150.692C156.363 149.468 155.371 148.476 154.147 148.476C152.923 148.476 151.931 149.468 151.931 150.692ZM151.685 150.692C151.685 149.332 152.787 148.23 154.147 148.23C155.507 148.23 156.61 149.332 156.61 150.692C156.61 152.052 155.507 153.154 154.147 153.154C152.787 153.154 151.685 152.052 151.685 150.692Z" fill="black"/>
<path d="M151.698 170.692C151.698 172.045 152.794 173.141 154.147 173.141C155.5 173.141 156.597 172.045 156.597 170.692C156.597 169.339 155.5 168.243 154.147 168.243C152.794 168.243 151.698 169.339 151.698 170.692ZM151.426 170.692C151.426 169.189 152.644 167.97 154.147 167.97C155.65 167.97 156.869 169.189 156.869 170.692C156.869 172.195 155.65 173.414 154.147 173.414C152.644 173.414 151.426 172.195 151.426 170.692Z" fill="black"/>
<path d="M151.464 190.692C151.464 192.174 152.666 193.375 154.147 193.375C155.629 193.375 156.83 192.174 156.83 190.692C156.83 189.21 155.629 188.009 154.147 188.009C152.666 188.009 151.464 189.21 151.464 190.692ZM151.166 190.692C151.166 189.046 152.501 187.711 154.147 187.711C155.793 187.711 157.128 189.046 157.128 190.692C157.128 192.338 155.793 193.673 154.147 193.673C152.501 193.673 151.166 192.338 151.166 190.692Z" fill="black"/>
<path d="M173.694 10.692C173.694 10.9424 173.897 11.1456 174.147 11.1456C174.398 11.1456 174.601 10.9424 174.601 10.692C174.601 10.4416 174.398 10.2384 174.147 10.2384C173.897 10.2384 173.694 10.4416 173.694 10.692ZM173.643 10.692C173.643 10.4136 173.869 10.188 174.147 10.188C174.426 10.188 174.651 10.4136 174.651 10.692C174.651 10.9702 174.426 11.196 174.147 11.196C173.869 11.196 173.643 10.9702 173.643 10.692Z" fill="black"/>
<path d="M173.512 30.692C173.512 31.0426 173.796 31.327 174.147 31.327C174.498 31.327 174.782 31.0426 174.782 30.692C174.782 30.3414 174.498 30.057 174.147 30.057C173.796 30.057 173.512 30.3414 173.512 30.692ZM173.442 30.692C173.442 30.3024 173.758 29.9864 174.147 29.9864C174.537 29.9864 174.853 30.3024 174.853 30.692C174.853 31.0816 174.537 31.3976 174.147 31.3976C173.758 31.3976 173.442 31.0816 173.442 30.692Z" fill="black"/>
<path d="M173.331 50.692C173.331 51.143 173.696 51.5086 174.147 51.5086C174.598 51.5086 174.964 51.143 174.964 50.692C174.964 50.241 174.598 49.8754 174.147 49.8754C173.696 49.8754 173.331 50.241 173.331 50.692ZM173.24 50.692C173.24 50.191 173.646 49.7848 174.147 49.7848C174.648 49.7848 175.054 50.191 175.054 50.692C175.054 51.193 174.648 51.5992 174.147 51.5992C173.646 51.5992 173.24 51.193 173.24 50.692Z" fill="black"/>
<path d="M173.149 70.692C173.149 71.2432 173.596 71.69 174.147 71.69C174.698 71.69 175.145 71.2432 175.145 70.692C175.145 70.1408 174.698 69.694 174.147 69.694C173.596 69.694 173.149 70.1408 173.149 70.692ZM173.038 70.692C173.038 70.0796 173.535 69.5832 174.147 69.5832C174.76 69.5832 175.256 70.0796 175.256 70.692C175.256 71.3044 174.76 71.8008 174.147 71.8008C173.535 71.8008 173.038 71.3044 173.038 70.692Z" fill="black"/>
<path d="M172.968 90.692C172.968 91.3434 173.496 91.8712 174.147 91.8712C174.799 91.8712 175.326 91.3434 175.326 90.692C175.326 90.0406 174.799 89.5128 174.147 89.5128C173.496 89.5128 172.968 90.0406 172.968 90.692ZM172.837 90.692C172.837 89.9684 173.424 89.3816 174.147 89.3816C174.871 89.3816 175.458 89.9684 175.458 90.692C175.458 91.4156 174.871 92.0024 174.147 92.0024C173.424 92.0024 172.837 91.4156 172.837 90.692Z" fill="black"/>
<path d="M172.786 110.692C172.786 111.444 173.396 112.053 174.147 112.053C174.899 112.053 175.508 111.444 175.508 110.692C175.508 109.94 174.899 109.331 174.147 109.331C173.396 109.331 172.786 109.94 172.786 110.692ZM172.635 110.692C172.635 109.857 173.312 109.18 174.147 109.18C174.982 109.18 175.659 109.857 175.659 110.692C175.659 111.527 174.982 112.204 174.147 112.204C173.312 112.204 172.635 111.527 172.635 110.692Z" fill="black"/>
<path d="M172.605 130.692C172.605 131.544 173.295 132.234 174.147 132.234C174.999 132.234 175.689 131.544 175.689 130.692C175.689 129.84 174.999 129.15 174.147 129.15C173.295 129.15 172.605 129.84 172.605 130.692ZM172.434 130.692C172.434 129.746 173.201 128.978 174.147 128.978C175.094 128.978 175.861 129.746 175.861 130.692C175.861 131.638 175.094 132.406 174.147 132.406C173.201 132.406 172.434 131.638 172.434 130.692Z" fill="black"/>
<path d="M172.424 150.692C172.424 151.644 173.195 152.416 174.147 152.416C175.099 152.416 175.871 151.644 175.871 150.692C175.871 149.74 175.099 148.968 174.147 148.968C173.195 148.968 172.424 149.74 172.424 150.692ZM172.232 150.692C172.232 149.634 173.089 148.777 174.147 148.777C175.205 148.777 176.062 149.634 176.062 150.692C176.062 151.75 175.205 152.607 174.147 152.607C173.089 152.607 172.232 151.75 172.232 150.692Z" fill="black"/>
<path d="M172.242 170.692C172.242 171.744 173.095 172.597 174.147 172.597C175.199 172.597 176.052 171.744 176.052 170.692C176.052 169.64 175.199 168.787 174.147 168.787C173.095 168.787 172.242 169.64 172.242 170.692ZM172.03 170.692C172.03 169.523 172.978 168.575 174.147 168.575C175.316 168.575 176.264 169.523 176.264 170.692C176.264 171.861 175.316 172.809 174.147 172.809C172.978 172.809 172.03 171.861 172.03 170.692Z" fill="black"/>
<path d="M172.061 190.692C172.061 191.844 172.995 192.779 174.147 192.779C175.3 192.779 176.234 191.844 176.234 190.692C176.234 189.54 175.3 188.605 174.147 188.605C172.995 188.605 172.061 189.54 172.061 190.692ZM171.829 190.692C171.829 189.412 172.867 188.374 174.147 188.374C175.428 188.374 176.466 189.412 176.466 190.692C176.466 191.972 175.428 193.01 174.147 193.01C172.867 193.01 171.829 191.972 171.829 190.692Z" fill="black"/>
<path d="M193.823 10.692C193.823 10.871 193.968 11.016 194.147 11.016C194.326 11.016 194.471 10.871 194.471 10.692C194.471 10.513 194.326 10.368 194.147 10.368C193.968 10.368 193.823 10.513 193.823 10.692ZM193.787 10.692C193.787 10.4932 193.948 10.332 194.147 10.332C194.346 10.332 194.507 10.4932 194.507 10.692C194.507 10.8908 194.346 11.052 194.147 11.052C193.948 11.052 193.787 10.8908 193.787 10.692Z" fill="black"/>
<path d="M193.694 30.692C193.694 30.9424 193.897 31.1456 194.147 31.1456C194.398 31.1456 194.601 30.9424 194.601 30.692C194.601 30.4416 194.398 30.2384 194.147 30.2384C193.897 30.2384 193.694 30.4416 193.694 30.692ZM193.643 30.692C193.643 30.4136 193.869 30.188 194.147 30.188C194.426 30.188 194.651 30.4136 194.651 30.692C194.651 30.9704 194.426 31.196 194.147 31.196C193.869 31.196 193.643 30.9704 193.643 30.692Z" fill="black"/>
<path d="M193.564 50.692C193.564 51.014 193.825 51.2752 194.147 51.2752C194.469 51.2752 194.73 51.014 194.73 50.692C194.73 50.37 194.469 50.1088 194.147 50.1088C193.825 50.1088 193.564 50.37 193.564 50.692ZM193.499 50.692C193.499 50.334 193.789 50.044 194.147 50.044C194.505 50.044 194.795 50.334 194.795 50.692C194.795 51.05 194.505 51.34 194.147 51.34C193.789 51.34 193.499 51.05 193.499 50.692Z" fill="black"/>
<path d="M193.434 70.692C193.434 71.0856 193.753 71.4048 194.147 71.4048C194.541 71.4048 194.86 71.0856 194.86 70.692C194.86 70.2984 194.541 69.9792 194.147 69.9792C193.753 69.9792 193.434 70.2984 193.434 70.692ZM193.355 70.692C193.355 70.2546 193.71 69.9 194.147 69.9C194.585 69.9 194.939 70.2546 194.939 70.692C194.939 71.1294 194.585 71.484 194.147 71.484C193.71 71.484 193.355 71.1294 193.355 70.692Z" fill="black"/>
<path d="M193.305 90.692C193.305 91.1572 193.682 91.5344 194.147 91.5344C194.612 91.5344 194.99 91.1572 194.99 90.692C194.99 90.2268 194.612 89.8496 194.147 89.8496C193.682 89.8496 193.305 90.2268 193.305 90.692ZM193.211 90.692C193.211 90.175 193.63 89.756 194.147 89.756C194.664 89.756 195.083 90.175 195.083 90.692C195.083 91.209 194.664 91.628 194.147 91.628C193.63 91.628 193.211 91.209 193.211 90.692Z" fill="black"/>
<path d="M193.175 110.692C193.175 111.229 193.61 111.664 194.147 111.664C194.684 111.664 195.119 111.229 195.119 110.692C195.119 110.155 194.684 109.72 194.147 109.72C193.61 109.72 193.175 110.155 193.175 110.692ZM193.067 110.692C193.067 110.096 193.551 109.612 194.147 109.612C194.744 109.612 195.227 110.096 195.227 110.692C195.227 111.288 194.744 111.772 194.147 111.772C193.551 111.772 193.067 111.288 193.067 110.692Z" fill="black"/>
<path d="M193.046 130.692C193.046 131.3 193.539 131.794 194.147 131.794C194.756 131.794 195.249 131.3 195.249 130.692C195.249 130.084 194.756 129.59 194.147 129.59C193.539 129.59 193.046 130.084 193.046 130.692ZM192.923 130.692C192.923 130.016 193.471 129.468 194.147 129.468C194.823 129.468 195.371 130.016 195.371 130.692C195.371 131.368 194.823 131.916 194.147 131.916C193.471 131.916 192.923 131.368 192.923 130.692Z" fill="black"/>
<path d="M192.916 150.692C192.916 151.372 193.467 151.923 194.147 151.923C194.827 151.923 195.378 151.372 195.378 150.692C195.378 150.012 194.827 149.461 194.147 149.461C193.467 149.461 192.916 150.012 192.916 150.692ZM192.779 150.692C192.779 149.937 193.392 149.324 194.147 149.324C194.903 149.324 195.515 149.937 195.515 150.692C195.515 151.447 194.903 152.06 194.147 152.06C193.392 152.06 192.779 151.447 192.779 150.692Z" fill="black"/>
<path d="M192.786 170.692C192.786 171.444 193.396 172.053 194.147 172.053C194.899 172.053 195.508 171.444 195.508 170.692C195.508 169.94 194.899 169.331 194.147 169.331C193.396 169.331 192.786 169.94 192.786 170.692ZM192.635 170.692C192.635 169.857 193.312 169.18 194.147 169.18C194.982 169.18 195.659 169.857 195.659 170.692C195.659 171.527 194.982 172.204 194.147 172.204C193.312 172.204 192.635 171.527 192.635 170.692Z" fill="black"/>
<path d="M192.657 190.692C192.657 191.515 193.324 192.182 194.147 192.182C194.97 192.182 195.638 191.515 195.638 190.692C195.638 189.869 194.97 189.202 194.147 189.202C193.324 189.202 192.657 189.869 192.657 190.692ZM192.491 190.692C192.491 189.777 193.233 189.036 194.147 189.036C195.062 189.036 195.803 189.777 195.803 190.692C195.803 191.607 195.062 192.348 194.147 192.348C193.233 192.348 192.491 191.607 192.491 190.692Z" fill="black"/>
<path d="M3.45601 0.691992C3.45601 0.309992 3.76546 0 4.14718 0C4.5289 0 4.83835 0.309992 4.83835 0.691992C4.83835 1.07379 4.5289 1.38318 4.14718 1.38318C3.76546 1.38318 3.45601 1.07379 3.45601 0.691992Z" fill="black"/>
<path d="M3.11038 20.692C3.11038 20.1194 3.57452 19.6552 4.14718 19.6552C4.71984 19.6552 5.18398 20.1194 5.18398 20.692C5.18398 21.2646 4.71984 21.7288 4.14718 21.7288C3.57452 21.7288 3.11038 21.2646 3.11038 20.692Z" fill="black"/>
<path d="M2.76476 40.692C2.76476 39.9286 3.38374 39.3096 4.14718 39.3096C4.91062 39.3096 5.5296 39.9286 5.5296 40.692C5.5296 41.4554 4.91062 42.0744 4.14718 42.0744C3.38374 42.0744 2.76476 41.4554 2.76476 40.692Z" fill="black"/>
<path d="M2.41913 60.692C2.41913 59.7378 3.1928 58.964 4.14718 58.964C5.10156 58.964 5.87523 59.7378 5.87523 60.692C5.87523 61.6462 5.10156 62.42 4.14718 62.42C3.1928 62.42 2.41913 61.6462 2.41913 60.692Z" fill="black"/>
<path d="M2.0735 80.692C2.0735 79.5468 3.00195 78.6184 4.14718 78.6184C5.29241 78.6184 6.22086 79.5468 6.22086 80.692C6.22086 81.8374 5.29241 82.7656 4.14718 82.7656C3.00195 82.7656 2.0735 81.8374 2.0735 80.692Z" fill="black"/>
<path d="M1.72796 100.692C1.72796 99.3558 2.81109 98.2728 4.14718 98.2728C5.48327 98.2728 6.5664 99.3558 6.5664 100.692C6.5664 102.028 5.48327 103.111 4.14718 103.111C2.81109 103.111 1.72796 102.028 1.72796 100.692Z" fill="black"/>
<path d="M1.38234 120.692C1.38234 119.165 2.62023 117.927 4.14718 117.927C5.67413 117.927 6.91202 119.165 6.91202 120.692C6.91202 122.219 5.67413 123.457 4.14718 123.457C2.62023 123.457 1.38234 122.219 1.38234 120.692Z" fill="black"/>
<path d="M1.03678 140.692C1.03678 138.974 2.42929 137.582 4.14718 137.582C5.86507 137.582 7.25758 138.974 7.25758 140.692C7.25758 142.41 5.86507 143.802 4.14718 143.802C2.42929 143.802 1.03678 142.41 1.03678 140.692Z" fill="black"/>
<path d="M0.69124 160.692C0.69124 158.783 2.23851 157.236 4.14718 157.236C6.05585 157.236 7.60312 158.783 7.60312 160.692C7.60312 162.601 6.05585 164.148 4.14718 164.148C2.23851 164.148 0.69124 162.601 0.69124 160.692Z" fill="black"/>
<path d="M0.34562 180.692C0.34562 178.592 2.04758 176.89 4.14718 176.89C6.24678 176.89 7.94874 178.592 7.94874 180.692C7.94874 182.792 6.24678 184.494 4.14718 184.494C2.04758 184.494 0.34562 182.792 0.34562 180.692Z" fill="black"/>
<path d="M0 200.692C0 198.402 1.85678 196.545 4.14718 196.545C6.43758 196.545 8.29436 198.402 8.29436 200.692C8.29436 202.982 6.43758 204.84 4.14718 204.84C1.85678 204.84 0 202.982 0 200.692Z" fill="black"/>
<path d="M23.5136 0.692003C23.5136 0.342003 23.7973 0.0579993 24.1472 0.0579993C24.4972 0.0579993 24.7808 0.342003 24.7808 0.692003C24.7808 1.042 24.4972 1.3256 24.1472 1.3256C23.7973 1.3256 23.5136 1.042 23.5136 0.692003Z" fill="black"/>
<path d="M23.1968 20.692C23.1968 20.167 23.6223 19.7416 24.1472 19.7416C24.6722 19.7416 25.0976 20.167 25.0976 20.692C25.0976 21.217 24.6722 21.6424 24.1472 21.6424C23.6223 21.6424 23.1968 21.217 23.1968 20.692Z" fill="black"/>
<path d="M22.88 40.692C22.88 39.9922 23.4473 39.4248 24.1472 39.4248C24.8472 39.4248 25.4144 39.9922 25.4144 40.692C25.4144 41.3918 24.8472 41.9592 24.1472 41.9592C23.4473 41.9592 22.88 41.3918 22.88 40.692Z" fill="black"/>
<path d="M22.5632 60.692C22.5632 59.8172 23.2724 59.108 24.1472 59.108C25.022 59.108 25.7312 59.8172 25.7312 60.692C25.7312 61.5668 25.022 62.276 24.1472 62.276C23.2724 62.276 22.5632 61.5668 22.5632 60.692Z" fill="black"/>
<path d="M22.2464 80.692C22.2464 79.6422 23.0974 78.7912 24.1472 78.7912C25.197 78.7912 26.048 79.6422 26.048 80.692C26.048 81.7418 25.197 82.5928 24.1472 82.5928C23.0974 82.5928 22.2464 81.7418 22.2464 80.692Z" fill="black"/>
<path d="M21.9296 100.692C21.9296 99.4672 22.9225 98.4744 24.1472 98.4744C25.372 98.4744 26.3648 99.4672 26.3648 100.692C26.3648 101.917 25.372 102.91 24.1472 102.91C22.9225 102.91 21.9296 101.917 21.9296 100.692Z" fill="black"/>
<path d="M21.6128 120.692C21.6128 119.292 22.7475 118.158 24.1472 118.158C25.547 118.158 26.6816 119.292 26.6816 120.692C26.6816 122.092 25.547 123.226 24.1472 123.226C22.7475 123.226 21.6128 122.092 21.6128 120.692Z" fill="black"/>
<path d="M21.296 140.692C21.296 139.117 22.5725 137.841 24.1472 137.841C25.722 137.841 26.9984 139.117 26.9984 140.692C26.9984 142.267 25.722 143.543 24.1472 143.543C22.5725 143.543 21.296 142.267 21.296 140.692Z" fill="black"/>
<path d="M20.9792 160.692C20.9792 158.942 22.3976 157.524 24.1472 157.524C25.8968 157.524 27.3152 158.942 27.3152 160.692C27.3152 162.442 25.8968 163.86 24.1472 163.86C22.3976 163.86 20.9792 162.442 20.9792 160.692Z" fill="black"/>
<path d="M20.6624 180.692C20.6624 178.767 22.2226 177.207 24.1472 177.207C26.0718 177.207 27.632 178.767 27.632 180.692C27.632 182.617 26.0718 184.177 24.1472 184.177C22.2226 184.177 20.6624 182.617 20.6624 180.692Z" fill="black"/>
<path d="M20.3456 200.692C20.3456 198.592 22.0476 196.89 24.1472 196.89C26.2468 196.89 27.9488 198.592 27.9488 200.692C27.9488 202.792 26.2468 204.494 24.1472 204.494C22.0476 204.494 20.3456 202.792 20.3456 200.692Z" fill="black"/>
<path d="M43.5712 0.691984C43.5712 0.373984 43.829 0.115988 44.1472 0.115988C44.4654 0.115988 44.7232 0.373984 44.7232 0.691984C44.7232 1.01018 44.4654 1.26798 44.1472 1.26798C43.829 1.26798 43.5712 1.01018 43.5712 0.691984Z" fill="black"/>
<path d="M43.2832 20.692C43.2832 20.2148 43.67 19.828 44.1472 19.828C44.6244 19.828 45.0112 20.2148 45.0112 20.692C45.0112 21.1692 44.6244 21.556 44.1472 21.556C43.67 21.556 43.2832 21.1692 43.2832 20.692Z" fill="black"/>
<path d="M42.9952 40.692C42.9952 40.0558 43.511 39.54 44.1472 39.54C44.7834 39.54 45.2992 40.0558 45.2992 40.692C45.2992 41.3282 44.7834 41.844 44.1472 41.844C43.511 41.844 42.9952 41.3282 42.9952 40.692Z" fill="black"/>
<path d="M42.7072 60.692C42.7072 59.8966 43.3518 59.252 44.1472 59.252C44.9426 59.252 45.5872 59.8966 45.5872 60.692C45.5872 61.4874 44.9426 62.132 44.1472 62.132C43.3518 62.132 42.7072 61.4874 42.7072 60.692Z" fill="black"/>
<path d="M42.4192 80.692C42.4192 79.7378 43.1928 78.964 44.1472 78.964C45.1016 78.964 45.8752 79.7378 45.8752 80.692C45.8752 81.6462 45.1016 82.42 44.1472 82.42C43.1928 82.42 42.4192 81.6462 42.4192 80.692Z" fill="black"/>
<path d="M42.1312 100.692C42.1312 99.5786 43.0338 98.676 44.1472 98.676C45.2606 98.676 46.1632 99.5786 46.1632 100.692C46.1632 101.805 45.2606 102.708 44.1472 102.708C43.0338 102.708 42.1312 101.805 42.1312 100.692Z" fill="black"/>
<path d="M41.8432 120.692C41.8432 119.42 42.8748 118.388 44.1472 118.388C45.4196 118.388 46.4512 119.42 46.4512 120.692C46.4512 121.964 45.4196 122.996 44.1472 122.996C42.8748 122.996 41.8432 121.964 41.8432 120.692Z" fill="black"/>
<path d="M41.5552 140.692C41.5552 139.261 42.7156 138.1 44.1472 138.1C45.5788 138.1 46.7392 139.261 46.7392 140.692C46.7392 142.123 45.5788 143.284 44.1472 143.284C42.7156 143.284 41.5552 142.123 41.5552 140.692Z" fill="black"/>
<path d="M41.2672 160.692C41.2672 159.101 42.5566 157.812 44.1472 157.812C45.7378 157.812 47.0272 159.101 47.0272 160.692C47.0272 162.283 45.7378 163.572 44.1472 163.572C42.5566 163.572 41.2672 162.283 41.2672 160.692Z" fill="black"/>
<path d="M40.9792 180.692C40.9792 178.942 42.3976 177.524 44.1472 177.524C45.8968 177.524 47.3152 178.942 47.3152 180.692C47.3152 182.442 45.8968 183.86 44.1472 183.86C42.3976 183.86 40.9792 182.442 40.9792 180.692Z" fill="black"/>
<path d="M40.6912 200.692C40.6912 198.783 42.2386 197.236 44.1472 197.236C46.0558 197.236 47.6032 198.783 47.6032 200.692C47.6032 202.6 46.0558 204.148 44.1472 204.148C42.2386 204.148 40.6912 202.6 40.6912 200.692Z" fill="black"/>
<path d="M63.6288 0.691979C63.6288 0.405979 63.8608 0.173972 64.1472 0.173972C64.4336 0.173972 64.6656 0.405979 64.6656 0.691979C64.6656 0.978379 64.4336 1.21038 64.1472 1.21038C63.8608 1.21038 63.6288 0.978379 63.6288 0.691979Z" fill="black"/>
<path d="M63.3696 20.692C63.3696 20.2624 63.7178 19.9144 64.1472 19.9144C64.5766 19.9144 64.9248 20.2624 64.9248 20.692C64.9248 21.1214 64.5766 21.4696 64.1472 21.4696C63.7178 21.4696 63.3696 21.1214 63.3696 20.692Z" fill="black"/>
<path d="M63.1104 40.692C63.1104 40.1194 63.5746 39.6552 64.1472 39.6552C64.7198 39.6552 65.184 40.1194 65.184 40.692C65.184 41.2646 64.7198 41.7288 64.1472 41.7288C63.5746 41.7288 63.1104 41.2646 63.1104 40.692Z" fill="black"/>
<path d="M62.8512 60.692C62.8512 59.9762 63.4314 59.396 64.1472 59.396C64.863 59.396 65.4432 59.9762 65.4432 60.692C65.4432 61.4078 64.863 61.988 64.1472 61.988C63.4314 61.988 62.8512 61.4078 62.8512 60.692Z" fill="black"/>
<path d="M62.592 80.692C62.592 79.8332 63.2884 79.1368 64.1472 79.1368C65.006 79.1368 65.7024 79.8332 65.7024 80.692C65.7024 81.551 65.006 82.2472 64.1472 82.2472C63.2884 82.2472 62.592 81.551 62.592 80.692Z" fill="black"/>
<path d="M62.3328 100.692C62.3328 99.6898 63.1452 98.8776 64.1472 98.8776C65.1492 98.8776 65.9616 99.6898 65.9616 100.692C65.9616 101.694 65.1492 102.506 64.1472 102.506C63.1452 102.506 62.3328 101.694 62.3328 100.692Z" fill="black"/>
<path d="M62.0736 120.692C62.0736 119.547 63.002 118.618 64.1472 118.618C65.2924 118.618 66.2208 119.547 66.2208 120.692C66.2208 121.837 65.2924 122.766 64.1472 122.766C63.002 122.766 62.0736 121.837 62.0736 120.692Z" fill="black"/>
<path d="M61.8144 140.692C61.8144 139.404 62.8588 138.359 64.1472 138.359C65.4354 138.359 66.48 139.404 66.48 140.692C66.48 141.98 65.4354 143.025 64.1472 143.025C62.8588 143.025 61.8144 141.98 61.8144 140.692Z" fill="black"/>
<path d="M61.5552 160.692C61.5552 159.261 62.7156 158.1 64.1472 158.1C65.5786 158.1 66.7392 159.261 66.7392 160.692C66.7392 162.123 65.5786 163.284 64.1472 163.284C62.7156 163.284 61.5552 162.123 61.5552 160.692Z" fill="black"/>
<path d="M61.296 180.692C61.296 179.117 62.5724 177.841 64.1472 177.841C65.7218 177.841 66.9984 179.117 66.9984 180.692C66.9984 182.267 65.7218 183.543 64.1472 183.543C62.5724 183.543 61.296 182.267 61.296 180.692Z" fill="black"/>
<path d="M61.0368 200.692C61.0368 198.974 62.4294 197.582 64.1472 197.582C65.865 197.582 67.2576 198.974 67.2576 200.692C67.2576 202.41 65.865 203.802 64.1472 203.802C62.4294 203.802 61.0368 202.41 61.0368 200.692Z" fill="black"/>
<path d="M83.6864 0.69199C83.6864 0.43799 83.8928 0.23199 84.1472 0.23199C84.4016 0.23199 84.608 0.43799 84.608 0.69199C84.608 0.94639 84.4016 1.15279 84.1472 1.15279C83.8928 1.15279 83.6864 0.94639 83.6864 0.69199Z" fill="black"/>
<path d="M83.456 20.692C83.456 20.3102 83.7656 20.0008 84.1472 20.0008C84.5288 20.0008 84.8384 20.3102 84.8384 20.692C84.8384 21.0738 84.5288 21.3832 84.1472 21.3832C83.7656 21.3832 83.456 21.0738 83.456 20.692Z" fill="black"/>
<path d="M83.2256 40.692C83.2256 40.183 83.6382 39.7704 84.1472 39.7704C84.6562 39.7704 85.0688 40.183 85.0688 40.692C85.0688 41.201 84.6562 41.6136 84.1472 41.6136C83.6382 41.6136 83.2256 41.201 83.2256 40.692Z" fill="black"/>
<path d="M82.9952 60.692C82.9952 60.0558 83.5108 59.54 84.1472 59.54C84.7836 59.54 85.2992 60.0558 85.2992 60.692C85.2992 61.3282 84.7836 61.844 84.1472 61.844C83.5108 61.844 82.9952 61.3282 82.9952 60.692Z" fill="black"/>
<path d="M82.7648 80.692C82.7648 79.9286 83.3838 79.3096 84.1472 79.3096C84.9106 79.3096 85.5296 79.9286 85.5296 80.692C85.5296 81.4554 84.9106 82.0744 84.1472 82.0744C83.3838 82.0744 82.7648 81.4554 82.7648 80.692Z" fill="black"/>
<path d="M82.5344 100.692C82.5344 99.8014 83.2566 99.0792 84.1472 99.0792C85.0378 99.0792 85.76 99.8014 85.76 100.692C85.76 101.583 85.0378 102.305 84.1472 102.305C83.2566 102.305 82.5344 101.583 82.5344 100.692Z" fill="black"/>
<path d="M82.304 120.692C82.304 119.674 83.1292 118.849 84.1472 118.849C85.1652 118.849 85.9904 119.674 85.9904 120.692C85.9904 121.71 85.1652 122.535 84.1472 122.535C83.1292 122.535 82.304 121.71 82.304 120.692Z" fill="black"/>
<path d="M82.0736 140.692C82.0736 139.547 83.0018 138.618 84.1472 138.618C85.2926 138.618 86.2208 139.547 86.2208 140.692C86.2208 141.837 85.2926 142.766 84.1472 142.766C83.0018 142.766 82.0736 141.837 82.0736 140.692Z" fill="black"/>
<path d="M81.8432 160.692C81.8432 159.42 82.8748 158.388 84.1472 158.388C85.4196 158.388 86.4512 159.42 86.4512 160.692C86.4512 161.964 85.4196 162.996 84.1472 162.996C82.8748 162.996 81.8432 161.964 81.8432 160.692Z" fill="black"/>
<path d="M81.6128 180.692C81.6128 179.292 82.7474 178.158 84.1472 178.158C85.547 178.158 86.6816 179.292 86.6816 180.692C86.6816 182.092 85.547 183.226 84.1472 183.226C82.7474 183.226 81.6128 182.092 81.6128 180.692Z" fill="black"/>
<path d="M81.3824 200.692C81.3824 199.165 82.6202 197.927 84.1472 197.927C85.6742 197.927 86.912 199.165 86.912 200.692C86.912 202.218 85.6742 203.456 84.1472 203.456C82.6202 203.456 81.3824 202.218 81.3824 200.692Z" fill="black"/>
<path d="M103.744 0.691986C103.744 0.469986 103.925 0.287982 104.147 0.287982C104.37 0.287982 104.55 0.469986 104.55 0.691986C104.55 0.914586 104.37 1.09519 104.147 1.09519C103.925 1.09519 103.744 0.914586 103.744 0.691986Z" fill="black"/>
<path d="M103.542 20.692C103.542 20.358 103.813 20.0872 104.147 20.0872C104.481 20.0872 104.752 20.358 104.752 20.692C104.752 21.026 104.481 21.2968 104.147 21.2968C103.813 21.2968 103.542 21.026 103.542 20.692Z" fill="black"/>
<path d="M103.341 40.692C103.341 40.2466 103.702 39.8856 104.147 39.8856C104.593 39.8856 104.954 40.2466 104.954 40.692C104.954 41.1374 104.593 41.4984 104.147 41.4984C103.702 41.4984 103.341 41.1374 103.341 40.692Z" fill="black"/>
<path d="M103.139 60.692C103.139 60.1352 103.591 59.684 104.147 59.684C104.704 59.684 105.155 60.1352 105.155 60.692C105.155 61.2488 104.704 61.7 104.147 61.7C103.591 61.7 103.139 61.2488 103.139 60.692Z" fill="black"/>
<path d="M102.938 80.692C102.938 80.024 103.479 79.4824 104.147 79.4824C104.815 79.4824 105.357 80.024 105.357 80.692C105.357 81.36 104.815 81.9016 104.147 81.9016C103.479 81.9016 102.938 81.36 102.938 80.692Z" fill="black"/>
<path d="M102.736 100.692C102.736 99.9128 103.368 99.2808 104.147 99.2808C104.926 99.2808 105.558 99.9128 105.558 100.692C105.558 101.471 104.926 102.103 104.147 102.103C103.368 102.103 102.736 101.471 102.736 100.692Z" fill="black"/>
<path d="M102.534 120.692C102.534 119.801 103.257 119.079 104.147 119.079C105.038 119.079 105.76 119.801 105.76 120.692C105.76 121.583 105.038 122.305 104.147 122.305C103.257 122.305 102.534 121.583 102.534 120.692Z" fill="black"/>
<path d="M102.333 140.692C102.333 139.69 103.145 138.878 104.147 138.878C105.149 138.878 105.962 139.69 105.962 140.692C105.962 141.694 105.149 142.506 104.147 142.506C103.145 142.506 102.333 141.694 102.333 140.692Z" fill="black"/>
<path d="M102.131 160.692C102.131 159.579 103.034 158.676 104.147 158.676C105.261 158.676 106.163 159.579 106.163 160.692C106.163 161.805 105.261 162.708 104.147 162.708C103.034 162.708 102.131 161.805 102.131 160.692Z" fill="black"/>
<path d="M101.93 180.692C101.93 179.467 102.922 178.474 104.147 178.474C105.372 178.474 106.365 179.467 106.365 180.692C106.365 181.917 105.372 182.91 104.147 182.91C102.922 182.91 101.93 181.917 101.93 180.692Z" fill="black"/>
<path d="M101.728 200.692C101.728 199.356 102.811 198.273 104.147 198.273C105.483 198.273 106.566 199.356 106.566 200.692C106.566 202.028 105.483 203.112 104.147 203.112C102.811 203.112 101.728 202.028 101.728 200.692Z" fill="black"/>
<path d="M123.801 0.691997C123.801 0.501997 123.956 0.346001 124.147 0.346001C124.338 0.346001 124.493 0.501997 124.493 0.691997C124.493 0.882797 124.338 1.0376 124.147 1.0376C123.956 1.0376 123.801 0.882797 123.801 0.691997Z" fill="black"/>
<path d="M123.629 20.692C123.629 20.4056 123.861 20.1736 124.147 20.1736C124.434 20.1736 124.666 20.4056 124.666 20.692C124.666 20.9784 124.434 21.2104 124.147 21.2104C123.861 21.2104 123.629 20.9784 123.629 20.692Z" fill="black"/>
<path d="M123.456 40.692C123.456 40.3102 123.766 40.0008 124.147 40.0008C124.529 40.0008 124.838 40.3102 124.838 40.692C124.838 41.0738 124.529 41.3832 124.147 41.3832C123.766 41.3832 123.456 41.0738 123.456 40.692Z" fill="black"/>
<path d="M123.283 60.692C123.283 60.2148 123.67 59.828 124.147 59.828C124.624 59.828 125.011 60.2148 125.011 60.692C125.011 61.1692 124.624 61.556 124.147 61.556C123.67 61.556 123.283 61.1692 123.283 60.692Z" fill="black"/>
<path d="M123.11 80.692C123.11 80.1194 123.575 79.6552 124.147 79.6552C124.72 79.6552 125.184 80.1194 125.184 80.692C125.184 81.2646 124.72 81.7288 124.147 81.7288C123.575 81.7288 123.11 81.2646 123.11 80.692Z" fill="black"/>
<path d="M122.938 100.692C122.938 100.024 123.479 99.4824 124.147 99.4824C124.815 99.4824 125.357 100.024 125.357 100.692C125.357 101.36 124.815 101.902 124.147 101.902C123.479 101.902 122.938 101.36 122.938 100.692Z" fill="black"/>
<path d="M122.765 120.692C122.765 119.929 123.384 119.31 124.147 119.31C124.911 119.31 125.53 119.929 125.53 120.692C125.53 121.455 124.911 122.074 124.147 122.074C123.384 122.074 122.765 121.455 122.765 120.692Z" fill="black"/>
<path d="M122.592 140.692C122.592 139.833 123.288 139.137 124.147 139.137C125.006 139.137 125.702 139.833 125.702 140.692C125.702 141.551 125.006 142.247 124.147 142.247C123.288 142.247 122.592 141.551 122.592 140.692Z" fill="black"/>
<path d="M122.419 160.692C122.419 159.738 123.193 158.964 124.147 158.964C125.101 158.964 125.875 159.738 125.875 160.692C125.875 161.646 125.101 162.42 124.147 162.42C123.193 162.42 122.419 161.646 122.419 160.692Z" fill="black"/>
<path d="M122.246 180.692C122.246 179.642 123.097 178.791 124.147 178.791C125.197 178.791 126.048 179.642 126.048 180.692C126.048 181.742 125.197 182.593 124.147 182.593C123.097 182.593 122.246 181.742 122.246 180.692Z" fill="black"/>
<path d="M122.074 200.692C122.074 199.547 123.002 198.618 124.147 198.618C125.293 198.618 126.221 199.547 126.221 200.692C126.221 201.838 125.293 202.766 124.147 202.766C123.002 202.766 122.074 201.838 122.074 200.692Z" fill="black"/>
<path d="M143.859 0.691993C143.859 0.531993 143.988 0.403985 144.147 0.403985C144.306 0.403985 144.435 0.531993 144.435 0.691993C144.435 0.850993 144.306 0.980001 144.147 0.980001C143.988 0.980001 143.859 0.850993 143.859 0.691993Z" fill="black"/>
<path d="M143.715 20.692C143.715 20.4534 143.909 20.26 144.147 20.26C144.386 20.26 144.579 20.4534 144.579 20.692C144.579 20.9306 144.386 21.124 144.147 21.124C143.909 21.124 143.715 20.9306 143.715 20.692Z" fill="black"/>
<path d="M143.571 40.692C143.571 40.3738 143.829 40.116 144.147 40.116C144.465 40.116 144.723 40.3738 144.723 40.692C144.723 41.0102 144.465 41.268 144.147 41.268C143.829 41.268 143.571 41.0102 143.571 40.692Z" fill="black"/>
<path d="M143.427 60.692C143.427 60.2944 143.75 59.972 144.147 59.972C144.545 59.972 144.867 60.2944 144.867 60.692C144.867 61.0896 144.545 61.412 144.147 61.412C143.75 61.412 143.427 61.0896 143.427 60.692Z" fill="black"/>
<path d="M143.283 80.692C143.283 80.2148 143.67 79.828 144.147 79.828C144.624 79.828 145.011 80.2148 145.011 80.692C145.011 81.1692 144.624 81.556 144.147 81.556C143.67 81.556 143.283 81.1692 143.283 80.692Z" fill="black"/>
<path d="M143.139 100.692C143.139 100.135 143.591 99.684 144.147 99.684C144.704 99.684 145.155 100.135 145.155 100.692C145.155 101.249 144.704 101.7 144.147 101.7C143.591 101.7 143.139 101.249 143.139 100.692Z" fill="black"/>
<path d="M142.995 120.692C142.995 120.056 143.511 119.54 144.147 119.54C144.784 119.54 145.299 120.056 145.299 120.692C145.299 121.328 144.784 121.844 144.147 121.844C143.511 121.844 142.995 121.328 142.995 120.692Z" fill="black"/>
<path d="M142.851 140.692C142.851 139.976 143.431 139.396 144.147 139.396C144.863 139.396 145.443 139.976 145.443 140.692C145.443 141.408 144.863 141.988 144.147 141.988C143.431 141.988 142.851 141.408 142.851 140.692Z" fill="black"/>
<path d="M142.707 160.692C142.707 159.897 143.352 159.252 144.147 159.252C144.943 159.252 145.587 159.897 145.587 160.692C145.587 161.487 144.943 162.132 144.147 162.132C143.352 162.132 142.707 161.487 142.707 160.692Z" fill="black"/>
<path d="M142.563 180.692C142.563 179.817 143.272 179.108 144.147 179.108C145.022 179.108 145.731 179.817 145.731 180.692C145.731 181.567 145.022 182.276 144.147 182.276C143.272 182.276 142.563 181.567 142.563 180.692Z" fill="black"/>
<path d="M142.419 200.692C142.419 199.738 143.193 198.964 144.147 198.964C145.101 198.964 145.875 199.738 145.875 200.692C145.875 201.646 145.101 202.42 144.147 202.42C143.193 202.42 142.419 201.646 142.419 200.692Z" fill="black"/>
<path d="M163.917 0.692008C163.917 0.564008 164.02 0.462008 164.147 0.462008C164.275 0.462008 164.378 0.564008 164.378 0.692008C164.378 0.819208 164.275 0.922399 164.147 0.922399C164.02 0.922399 163.917 0.819208 163.917 0.692008Z" fill="black"/>
<path d="M163.801 20.692C163.801 20.5012 163.956 20.3464 164.147 20.3464C164.338 20.3464 164.493 20.5012 164.493 20.692C164.493 20.8828 164.338 21.0376 164.147 21.0376C163.956 21.0376 163.801 20.8828 163.801 20.692Z" fill="black"/>
<path d="M163.686 40.692C163.686 40.4376 163.893 40.2312 164.147 40.2312C164.402 40.2312 164.608 40.4376 164.608 40.692C164.608 40.9464 164.402 41.1528 164.147 41.1528C163.893 41.1528 163.686 40.9464 163.686 40.692Z" fill="black"/>
<path d="M163.571 60.692C163.571 60.3738 163.829 60.116 164.147 60.116C164.465 60.116 164.723 60.3738 164.723 60.692C164.723 61.0102 164.465 61.268 164.147 61.268C163.829 61.268 163.571 61.0102 163.571 60.692Z" fill="black"/>
<path d="M163.456 80.692C163.456 80.3104 163.766 80.0008 164.147 80.0008C164.529 80.0008 164.838 80.3104 164.838 80.692C164.838 81.0736 164.529 81.3832 164.147 81.3832C163.766 81.3832 163.456 81.0736 163.456 80.692Z" fill="black"/>
<path d="M163.341 100.692C163.341 100.247 163.702 99.8856 164.147 99.8856C164.593 99.8856 164.954 100.247 164.954 100.692C164.954 101.137 164.593 101.498 164.147 101.498C163.702 101.498 163.341 101.137 163.341 100.692Z" fill="black"/>
<path d="M163.226 120.692C163.226 120.183 163.638 119.77 164.147 119.77C164.656 119.77 165.069 120.183 165.069 120.692C165.069 121.201 164.656 121.614 164.147 121.614C163.638 121.614 163.226 121.201 163.226 120.692Z" fill="black"/>
<path d="M163.11 140.692C163.11 140.119 163.575 139.655 164.147 139.655C164.72 139.655 165.184 140.119 165.184 140.692C165.184 141.265 164.72 141.729 164.147 141.729C163.575 141.729 163.11 141.265 163.11 140.692Z" fill="black"/>
<path d="M162.995 160.692C162.995 160.056 163.511 159.54 164.147 159.54C164.784 159.54 165.299 160.056 165.299 160.692C165.299 161.328 164.784 161.844 164.147 161.844C163.511 161.844 162.995 161.328 162.995 160.692Z" fill="black"/>
<path d="M162.88 180.692C162.88 179.992 163.447 179.425 164.147 179.425C164.847 179.425 165.414 179.992 165.414 180.692C165.414 181.392 164.847 181.959 164.147 181.959C163.447 181.959 162.88 181.392 162.88 180.692Z" fill="black"/>
<path d="M162.765 200.692C162.765 199.929 163.384 199.31 164.147 199.31C164.911 199.31 165.53 199.929 165.53 200.692C165.53 201.456 164.911 202.074 164.147 202.074C163.384 202.074 162.765 201.456 162.765 200.692Z" fill="black"/>
<path d="M183.974 0.691989C183.974 0.595989 184.052 0.519996 184.147 0.519996C184.243 0.519996 184.32 0.595989 184.32 0.691989C184.32 0.787389 184.243 0.864782 184.147 0.864782C184.052 0.864782 183.974 0.787389 183.974 0.691989Z" fill="black"/>
<path d="M183.888 20.692C183.888 20.5488 184.004 20.4328 184.147 20.4328C184.29 20.4328 184.406 20.5488 184.406 20.692C184.406 20.8352 184.29 20.9512 184.147 20.9512C184.004 20.9512 183.888 20.8352 183.888 20.692Z" fill="black"/>
<path d="M183.801 40.692C183.801 40.5012 183.956 40.3464 184.147 40.3464C184.338 40.3464 184.493 40.5012 184.493 40.692C184.493 40.8828 184.338 41.0376 184.147 41.0376C183.956 41.0376 183.801 40.8828 183.801 40.692Z" fill="black"/>
<path d="M183.715 60.692C183.715 60.4534 183.909 60.26 184.147 60.26C184.386 60.26 184.579 60.4534 184.579 60.692C184.579 60.9306 184.386 61.124 184.147 61.124C183.909 61.124 183.715 60.9306 183.715 60.692Z" fill="black"/>
<path d="M183.629 80.692C183.629 80.4056 183.861 80.1736 184.147 80.1736C184.434 80.1736 184.666 80.4056 184.666 80.692C184.666 80.9784 184.434 81.2104 184.147 81.2104C183.861 81.2104 183.629 80.9784 183.629 80.692Z" fill="black"/>
<path d="M183.542 100.692C183.542 100.358 183.813 100.087 184.147 100.087C184.481 100.087 184.752 100.358 184.752 100.692C184.752 101.026 184.481 101.297 184.147 101.297C183.813 101.297 183.542 101.026 183.542 100.692Z" fill="black"/>
<path d="M183.456 120.692C183.456 120.31 183.766 120.001 184.147 120.001C184.529 120.001 184.838 120.31 184.838 120.692C184.838 121.074 184.529 121.383 184.147 121.383C183.766 121.383 183.456 121.074 183.456 120.692Z" fill="black"/>
<path d="M183.37 140.692C183.37 140.263 183.718 139.914 184.147 139.914C184.577 139.914 184.925 140.263 184.925 140.692C184.925 141.121 184.577 141.47 184.147 141.47C183.718 141.47 183.37 141.121 183.37 140.692Z" fill="black"/>
<path d="M183.283 160.692C183.283 160.215 183.67 159.828 184.147 159.828C184.624 159.828 185.011 160.215 185.011 160.692C185.011 161.169 184.624 161.556 184.147 161.556C183.67 161.556 183.283 161.169 183.283 160.692Z" fill="black"/>
<path d="M183.197 180.692C183.197 180.167 183.622 179.742 184.147 179.742C184.672 179.742 185.098 180.167 185.098 180.692C185.098 181.217 184.672 181.642 184.147 181.642C183.622 181.642 183.197 181.217 183.197 180.692Z" fill="black"/>
<path d="M183.11 200.692C183.11 200.119 183.575 199.655 184.147 199.655C184.72 199.655 185.184 200.119 185.184 200.692C185.184 201.264 184.72 201.728 184.147 201.728C183.575 201.728 183.11 201.264 183.11 200.692Z" fill="black"/>
<path d="M204.032 0.691984C204.032 0.627984 204.084 0.575988 204.147 0.575988C204.211 0.575988 204.263 0.627984 204.263 0.691984C204.263 0.755584 204.211 0.80718 204.147 0.80718C204.084 0.80718 204.032 0.755584 204.032 0.691984Z" fill="black"/>
<path d="M203.974 20.692C203.974 20.5966 204.052 20.5192 204.147 20.5192C204.243 20.5192 204.319 20.5966 204.319 20.692C204.319 20.7874 204.243 20.8648 204.147 20.8648C204.052 20.8648 203.974 20.7874 203.974 20.692Z" fill="black"/>
<path d="M203.917 40.692C203.917 40.5648 204.02 40.4616 204.147 40.4616C204.275 40.4616 204.377 40.5648 204.377 40.692C204.377 40.8192 204.275 40.9224 204.147 40.9224C204.02 40.9224 203.917 40.8192 203.917 40.692Z" fill="black"/>
<path d="M203.859 60.692C203.859 60.533 203.988 60.404 204.147 60.404C204.305 60.404 204.435 60.533 204.435 60.692C204.435 60.851 204.305 60.98 204.147 60.98C203.988 60.98 203.859 60.851 203.859 60.692Z" fill="black"/>
<path d="M203.801 80.692C203.801 80.5012 203.956 80.3464 204.147 80.3464C204.337 80.3464 204.493 80.5012 204.493 80.692C204.493 80.8828 204.337 81.0376 204.147 81.0376C203.956 81.0376 203.801 80.8828 203.801 80.692Z" fill="black"/>
<path d="M203.744 100.692C203.744 100.469 203.925 100.289 204.147 100.289C204.369 100.289 204.551 100.469 204.551 100.692C204.551 100.915 204.369 101.095 204.147 101.095C203.925 101.095 203.744 100.915 203.744 100.692Z" fill="black"/>
<path d="M203.686 120.692C203.686 120.438 203.893 120.231 204.147 120.231C204.401 120.231 204.607 120.438 204.607 120.692C204.607 120.946 204.401 121.153 204.147 121.153C203.893 121.153 203.686 120.946 203.686 120.692Z" fill="black"/>
<path d="M203.629 140.692C203.629 140.406 203.861 140.174 204.147 140.174C204.433 140.174 204.665 140.406 204.665 140.692C204.665 140.978 204.433 141.21 204.147 141.21C203.861 141.21 203.629 140.978 203.629 140.692Z" fill="black"/>
<path d="M203.571 160.692C203.571 160.374 203.829 160.116 204.147 160.116C204.465 160.116 204.723 160.374 204.723 160.692C204.723 161.01 204.465 161.268 204.147 161.268C203.829 161.268 203.571 161.01 203.571 160.692Z" fill="black"/>
<path d="M203.514 180.692C203.514 180.342 203.797 180.058 204.147 180.058C204.497 180.058 204.781 180.342 204.781 180.692C204.781 181.042 204.497 181.326 204.147 181.326C203.797 181.326 203.514 181.042 203.514 180.692Z" fill="black"/>
<path d="M203.456 200.692C203.456 200.31 203.766 200.001 204.147 200.001C204.529 200.001 204.839 200.31 204.839 200.692C204.839 201.074 204.529 201.384 204.147 201.384C203.766 201.384 203.456 201.074 203.456 200.692Z" fill="black"/>
</g>
</g>
</svg>
