<svg width="63" height="59" viewBox="0 0 63 59" fill="none" xmlns="http://www.w3.org/2000/svg">
<path d="M39.3843 43.0858C39.3519 43.1817 39.2902 43.2645 39.2081 43.3222C39.126 43.3798 39.0279 43.4093 38.9281 43.4063H37.9324L38.5509 40.276C38.625 40.4244 38.6916 40.5765 38.7505 40.7318L39.3975 42.7803C39.4319 42.8801 39.4272 42.9895 39.3843 43.0858ZM17.6161 43.0873C17.573 42.9909 17.568 42.8814 17.6019 42.7813L18.2415 40.7552C18.3025 40.5922 18.3718 40.4326 18.449 40.277L19.0675 43.4063H18.0718C17.9832 43.4071 17.896 43.3832 17.8199 43.3371C17.7437 43.291 17.6816 43.2246 17.6402 43.1451C17.631 43.1263 17.6229 43.1071 17.6161 43.0873ZM24.3199 40.59C24.4339 40.7277 24.5831 40.831 24.751 40.8885L26.1691 43.4063H24.9605L24.3199 40.59ZM25.812 40.7661L27.0829 40.3994C27.4742 40.7496 27.9781 40.9429 28.5 40.9429C29.0218 40.9429 29.5257 40.7496 29.917 40.3994L31.1879 40.7661L29.7007 43.4063H27.2992L25.812 40.7661ZM32.2489 40.8885C32.3478 40.8542 32.4407 40.8041 32.5241 40.7402C32.5812 40.696 32.6335 40.6456 32.68 40.59L32.0395 43.4063H30.8308L32.2489 40.8885ZM30.6435 34.0746C30.0374 34.5736 29.2805 34.8459 28.5 34.8459C27.7194 34.8459 26.9626 34.5736 26.3565 34.0746C26.0033 33.781 25.6894 33.5024 25.3902 33.2188C25.3951 33.2685 25.4049 33.3183 25.4098 33.3631C25.4623 33.8023 25.4901 34.2442 25.4932 34.6866L28.5 37.3039L31.5068 34.6866C31.5098 34.2442 31.5377 33.8023 31.5901 33.3631C31.5951 33.3133 31.6049 33.2685 31.6098 33.2188C31.3106 33.5024 30.9966 33.781 30.6435 34.0746ZM20.3232 38.2344C19.5482 38.8066 19.4305 38.9061 19.3913 38.9459C19.3324 39.0057 19.2785 39.0753 19.2245 39.135L20.0682 43.4043H21.5005L20.3232 38.2344ZM26.5723 38.8862L25.0664 37.9906V39.9461L26.5723 39.5132C26.5509 39.4101 26.5394 39.3051 26.5379 39.1997C26.5397 39.0944 26.5512 38.9894 26.5723 38.8862ZM26.5723 38.8862L25.0664 37.9906V39.9461L26.5723 39.5132C26.5509 39.4101 26.5394 39.3051 26.5379 39.1997C26.5397 39.0944 26.5512 38.9894 26.5723 38.8862ZM22.6237 37.4731C22.1465 37.5041 21.6759 37.6029 21.2258 37.7667L22.506 43.4043H23.953L22.6286 37.5726C22.6221 37.5399 22.6204 37.5063 22.6237 37.4731ZM26.5723 38.8862L25.0664 37.9906V39.9461L26.5723 39.5132C26.5509 39.4101 26.5394 39.3051 26.5379 39.1997C26.5397 39.0944 26.5512 38.9894 26.5723 38.8862ZM26.5723 38.8862L25.0664 37.9906V39.9461L26.5723 39.5132C26.5509 39.4101 26.5394 39.3051 26.5379 39.1997C26.5397 39.0944 26.5512 38.9894 26.5723 38.8862ZM28.5 38.4533C27.9702 38.4533 27.519 38.7967 27.519 39.1997C27.519 39.6077 27.9702 39.9461 28.5 39.9461C29.0297 39.9461 29.481 39.6077 29.481 39.1997C29.481 38.7967 29.0297 38.4533 28.5 38.4533ZM34.3762 37.4731C34.3795 37.5063 34.3778 37.5399 34.3713 37.5726L33.047 43.4043H34.4939L35.7742 37.7667C35.324 37.6029 34.8534 37.5041 34.3762 37.4731ZM37.6086 38.9459C37.5694 38.9061 37.4517 38.8066 36.6767 38.2344L35.4995 43.4043H36.9318L37.7754 39.135C37.7215 39.0753 37.6675 39.0057 37.6086 38.9459ZM28.5 38.4533C27.9702 38.4533 27.519 38.7967 27.519 39.1997C27.519 39.6077 27.9702 39.9461 28.5 39.9461C29.0297 39.9461 29.481 39.6077 29.481 39.1997C29.481 38.7967 29.0297 38.4533 28.5 38.4533ZM28.5 38.4533C27.9702 38.4533 27.519 38.7967 27.519 39.1997C27.519 39.6077 27.9702 39.9461 28.5 39.9461C29.0297 39.9461 29.481 39.6077 29.481 39.1997C29.481 38.7967 29.0297 38.4533 28.5 38.4533ZM30.4277 38.8862C30.4488 38.9894 30.4602 39.0944 30.462 39.1997C30.4605 39.3051 30.449 39.4101 30.4277 39.5132L31.9335 39.9461V37.9906L30.4277 38.8862ZM28.5 38.4533C27.9702 38.4533 27.519 38.7967 27.519 39.1997C27.519 39.6077 27.9702 39.9461 28.5 39.9461C29.0297 39.9461 29.481 39.6077 29.481 39.1997C29.481 38.7967 29.0297 38.4533 28.5 38.4533ZM28.5 38.4533C27.9702 38.4533 27.519 38.7967 27.519 39.1997C27.519 39.6077 27.9702 39.9461 28.5 39.9461C29.0297 39.9461 29.481 39.6077 29.481 39.1997C29.481 38.7967 29.0297 38.4533 28.5 38.4533ZM26.5723 38.8862L25.0664 37.9906V39.9461L26.5723 39.5132C26.5509 39.4101 26.5394 39.3051 26.5379 39.1997C26.5397 39.0944 26.5512 38.9894 26.5723 38.8862ZM31.909 35.6519L29.5251 37.7219C29.6751 37.8041 29.8137 37.9062 29.9371 38.0254L31.5951 37.0402C31.6413 37.0102 31.693 36.9899 31.7471 36.9805C31.8889 36.9528 32.0349 36.9572 32.1748 36.9933C32.3147 37.0294 32.445 37.0964 32.5564 37.1895C32.7261 37.33 32.8437 37.5247 32.89 37.7418L33.2824 37.0452L31.909 35.6519ZM34.2928 25.2724C34.2599 25.2869 34.2253 25.2969 34.1898 25.3022C34.1638 25.3164 34.1392 25.3331 34.1163 25.352C33.904 26.2949 33.81 27.2612 33.8367 28.228C33.9002 28.3135 33.9726 28.3919 34.0525 28.4619C34.1702 28.2429 34.386 27.5463 34.386 25.9889C34.3999 25.7462 34.3683 25.5031 34.2928 25.2724ZM33.9544 15.659C33.5718 15.4252 32.7919 15.8581 31.9629 16.3208C30.9476 16.8881 29.7949 17.53 28.5 17.53C22.8493 17.53 22.1234 19.5253 22.1234 21.2618C22.1212 21.4884 22.1376 21.7147 22.1724 21.9385C22.267 22.659 22.5111 23.3509 22.8886 23.9687L25.1204 21.0777C25.2231 20.9302 25.3543 20.8054 25.5061 20.7109C25.6579 20.6164 25.827 20.5543 26.0032 20.5282C26.1794 20.5021 26.359 20.5127 26.531 20.5593C26.703 20.6058 26.8639 20.6874 27.0039 20.7991C27.4322 21.1326 27.9568 21.3138 28.4967 21.3147C29.0366 21.3156 29.5618 21.1362 29.9911 20.8041C30.1309 20.6913 30.2919 20.6088 30.4642 20.5613C30.6366 20.5139 30.8167 20.5027 30.9934 20.5283C31.1702 20.5539 31.34 20.6159 31.4923 20.7103C31.6447 20.8048 31.7765 20.9298 31.8795 21.0777L33.9838 23.8045L34.2094 23.8095C34.6453 23.0331 34.8752 22.1553 34.8765 21.2618C34.8765 17.0871 34.3762 15.9078 33.9544 15.659ZM22.8837 25.3569C22.8546 25.3326 22.8234 25.3109 22.7905 25.2923C22.7623 25.2875 22.7344 25.2808 22.7071 25.2724C22.6311 25.5029 22.5994 25.7462 22.6139 25.9889C22.6139 27.5463 22.8297 28.2429 22.9474 28.4619C23.0273 28.3919 23.0997 28.3135 23.1633 28.228C23.1899 27.2628 23.096 26.2982 22.8837 25.3569ZM31.1095 21.6947C31.0838 21.652 31.0496 21.6151 31.0092 21.5864C30.9688 21.5577 30.9229 21.5378 30.8745 21.528C30.8261 21.5181 30.7762 21.5186 30.728 21.5293C30.6798 21.54 30.6343 21.5608 30.5944 21.5902C29.9943 22.0569 29.2594 22.3103 28.5032 22.3112C27.7471 22.3121 27.0116 22.0605 26.4104 21.5952C26.3706 21.5648 26.325 21.5431 26.2765 21.5316C26.228 21.5201 26.1777 21.519 26.1287 21.5283C26.0798 21.5377 26.0333 21.5573 25.9923 21.586C25.9513 21.6146 25.9166 21.6517 25.8905 21.6947L23.7028 24.531C23.7077 24.5509 23.7126 24.5757 23.7175 24.6006C23.7225 24.6243 23.729 24.6476 23.7372 24.6703V24.6852C24.1202 26.1271 24.2432 27.6274 24.1001 29.1137C24.0903 29.2132 24.0854 29.3227 24.0854 29.4322C24.0854 30.3975 25.1106 31.7708 26.9745 33.2984C27.4054 33.654 27.9436 33.8485 28.4991 33.8494C29.0545 33.8503 29.5934 33.6575 30.0254 33.3034C31.8894 31.7708 32.9145 30.3975 32.9145 29.4322C32.9145 29.3227 32.9096 29.2132 32.8998 29.1037C32.7632 27.6655 32.8744 26.2141 33.2284 24.8146C33.2333 24.7996 33.2382 24.7698 33.2481 24.7399L33.2726 24.6504C33.2824 24.6106 33.2873 24.5708 33.2971 24.526L31.1095 21.6947ZM28.0095 28.9744H28.9905C29.1206 28.9744 29.2453 29.0268 29.3373 29.1201C29.4293 29.2134 29.481 29.34 29.481 29.472C29.481 29.6039 29.4293 29.7305 29.3373 29.8238C29.2453 29.9171 29.1206 29.9695 28.9905 29.9695H28.0095C27.8794 29.9695 27.7546 29.9171 27.6626 29.8238C27.5706 29.7305 27.519 29.6039 27.519 29.472C27.519 29.34 27.5706 29.2134 27.6626 29.1201C27.7546 29.0268 27.8794 28.9744 28.0095 28.9744ZM26.5379 26.4865V26.984C26.5379 27.116 26.4863 27.2426 26.3943 27.3359C26.3023 27.4292 26.1775 27.4816 26.0474 27.4816C25.9173 27.4816 25.7926 27.4292 25.7006 27.3359C25.6086 27.2426 25.5569 27.116 25.5569 26.984V26.4865H25.0664C24.9363 26.4865 24.8116 26.434 24.7196 26.3407C24.6276 26.2474 24.5759 26.1208 24.5759 25.9889C24.5759 25.8569 24.6276 25.7303 24.7196 25.637C24.8116 25.5437 24.9363 25.4913 25.0664 25.4913H27.0284C27.1585 25.4913 27.2833 25.5437 27.3753 25.637C27.4673 25.7303 27.519 25.8569 27.519 25.9889C27.519 26.1208 27.4673 26.2474 27.3753 26.3407C27.2833 26.434 27.1585 26.4865 27.0284 26.4865H26.5379ZM29.481 31.9599H27.519C27.3889 31.9599 27.2641 31.9075 27.1721 31.8141C27.0801 31.7208 27.0284 31.5943 27.0284 31.4623C27.0284 31.3303 27.0801 31.2038 27.1721 31.1105C27.2641 31.0171 27.3889 30.9647 27.519 30.9647H29.481C29.6111 30.9647 29.7358 31.0171 29.8278 31.1105C29.9198 31.2038 29.9715 31.3303 29.9715 31.4623C29.9715 31.5943 29.9198 31.7208 29.8278 31.8141C29.7358 31.9075 29.6111 31.9599 29.481 31.9599ZM31.9335 26.4865H31.443V26.984C31.443 27.116 31.3913 27.2426 31.2993 27.3359C31.2073 27.4292 31.0826 27.4816 30.9525 27.4816C30.8224 27.4816 30.6976 27.4292 30.6056 27.3359C30.5137 27.2426 30.462 27.116 30.462 26.984V26.4865H29.9715C29.8414 26.4865 29.7166 26.434 29.6246 26.3407C29.5327 26.2474 29.481 26.1208 29.481 25.9889C29.481 25.8569 29.5327 25.7303 29.6246 25.637C29.7166 25.5437 29.8414 25.4913 29.9715 25.4913H31.9335C32.0636 25.4913 32.1884 25.5437 32.2803 25.637C32.3723 25.7303 32.424 25.8569 32.424 25.9889C32.424 26.1208 32.3723 26.2474 32.2803 26.3407C32.1884 26.434 32.0636 26.4865 31.9335 26.4865ZM25.091 35.6519L23.7175 37.0452L24.1099 37.7418C24.1651 37.4889 24.3154 37.2678 24.5289 37.1256C24.7424 36.9834 25.0021 36.9313 25.2528 36.9805C25.3069 36.9899 25.3586 37.0102 25.4049 37.0402L27.0628 38.0254C27.1863 37.9062 27.3248 37.8041 27.4748 37.7219L25.091 35.6519Z" fill="black"/>
<path d="M4.35832 21.4878L3.85086 23.0953L0.106351 21.8787L0.590955 20.3434C0.716 19.9475 0.893806 19.6906 1.12458 19.5724C1.35577 19.4529 1.62767 19.4439 1.94028 19.5454C2.08444 19.5922 2.20575 19.6546 2.3042 19.7321C2.40121 19.8093 2.47453 19.8978 2.52397 19.9974C2.57174 20.0981 2.59148 20.2088 2.58337 20.3293C2.62803 20.2541 2.68599 20.1847 2.75703 20.1211C2.82682 20.0571 2.9097 20.008 3.00587 19.9738C3.10204 19.9397 3.20798 19.9224 3.32368 19.922C3.43792 19.9211 3.56234 19.9424 3.69695 19.9863C3.94579 20.0672 4.13253 20.1757 4.25737 20.312C4.38096 20.4479 4.44888 20.6146 4.46155 20.8118C4.47339 21.0074 4.43891 21.2326 4.35832 21.4878ZM2.55596 21.6983L3.34923 21.956L3.56878 21.2609C3.59267 21.185 3.59745 21.1157 3.5827 21.0531C3.56941 20.9909 3.53783 20.9366 3.48798 20.8902C3.43688 20.8432 3.36647 20.8051 3.27673 20.7758C3.1951 20.7492 3.12115 20.7412 3.05489 20.7518C2.98863 20.7621 2.93192 20.7878 2.88436 20.8287C2.83554 20.8691 2.79919 20.9273 2.77531 21.0029L2.55596 21.6983ZM1.16903 21.2476L1.895 21.4836L2.10023 20.834C2.12806 20.7457 2.11518 20.6654 2.06159 20.5931C2.00925 20.5215 1.93073 20.4686 1.82604 20.4344C1.68874 20.3898 1.58446 20.3879 1.51301 20.4285C1.44301 20.4696 1.39627 20.5276 1.3728 20.6022L1.16903 21.2476Z" fill="black"/>
<path d="M5.34123 19.0448L4.91998 19.8999L1.93779 17.0308L2.44877 15.993L6.50133 16.6894L6.07717 17.5504L5.34746 17.4088L4.78933 18.5418L5.34123 19.0448ZM2.8935 16.874L4.15039 17.9775L4.51888 17.2293L2.8935 16.874Z" fill="black"/>
<path d="M7.35484 15.4091L6.83451 16.1746L3.59724 13.9107L4.53571 12.5299C4.6298 12.3917 4.73345 12.276 4.84707 12.1829C4.95862 12.0902 5.08387 12.0284 5.22304 11.9972C5.36221 11.966 5.51696 11.9743 5.6877 12.0215C5.8572 12.068 6.04664 12.1643 6.25602 12.3106C6.3983 12.41 6.51089 12.5082 6.59418 12.6053C6.67623 12.7014 6.73605 12.796 6.77344 12.889C6.81166 12.9808 6.83305 13.0704 6.83762 13.1581C6.84219 13.2457 6.83991 13.3321 6.83056 13.417L8.50351 13.719L7.97467 14.4971L6.48908 14.1836C6.46872 14.2133 6.44546 14.2464 6.41928 14.2826C6.39186 14.318 6.36632 14.3528 6.34284 14.3874C6.31854 14.4232 6.29382 14.4594 6.26869 14.4965C6.24355 14.5334 6.22008 14.5682 6.19806 14.6002L7.35484 15.4091ZM4.79473 13.6187L5.60212 14.1834L5.92679 13.7059C5.96334 13.6522 5.98827 13.6001 6.00156 13.5498C6.01694 13.499 6.01839 13.4472 6.00572 13.3945C5.99118 13.342 5.96314 13.29 5.92201 13.2381C5.8788 13.1869 5.81857 13.134 5.74088 13.0799C5.66215 13.0249 5.59195 12.9863 5.53067 12.9644C5.4696 12.9446 5.4158 12.9395 5.36927 12.9492C5.32088 12.9594 5.27601 12.9806 5.23467 13.0133C5.19417 13.0447 5.15574 13.0875 5.11918 13.1412L4.79473 13.6187Z" fill="black"/>
<path d="M10.073 11.9835L8.3498 11.4072L6.05162 10.5281L7.12677 9.34096C7.40407 9.0348 7.67182 8.87718 7.93001 8.86833C8.18924 8.85822 8.43974 8.96589 8.68153 9.19115C8.79307 9.29503 8.8774 9.40312 8.93473 9.51544C8.99102 9.6269 9.02094 9.73837 9.02447 9.84984C9.02613 9.96152 8.99829 10.0702 8.94096 10.1764C9.01263 10.1271 9.09384 10.0888 9.18482 10.0614C9.27456 10.033 9.37011 10.0237 9.47168 10.0336C9.57305 10.0435 9.67649 10.073 9.7816 10.1217C9.88566 10.1695 9.98973 10.2418 10.0938 10.3389C10.2861 10.5182 10.4108 10.6963 10.4677 10.8733C10.5236 11.0492 6.6594 9.74996 6.58919 9.93455C6.51899 10.117 10.2517 11.7863 10.073 11.9835ZM8.3498 11.4072L8.9634 11.9789L9.45008 11.4414C9.47168 12.7937 9.53607 11.3219 9.54854 11.2589C9.56204 11.1967 9.55601 11.1339 9.53005 11.0705C9.50305 11.006 9.45486 10.9415 9.38569 10.8769C9.32254 10.8181 9.25877 10.7793 9.19438 10.7605C9.12999 10.7418 9.06767 10.7409 9.00785 10.7578C8.94678 10.7738 8.88987 10.8111 8.83669 10.8697L8.3498 11.4072ZM7.27736 10.4078L7.83882 10.931L8.29372 10.4287C8.35562 10.3604 8.37701 10.282 8.35832 10.1937C8.34046 10.1063 8.29123 10.0249 8.21001 9.94951C8.10387 9.85047 8.00998 9.80432 7.92855 9.81086C7.84796 9.81844 7.7817 9.8511 7.72935 9.90863L7.27736 10.4078Z" fill="black"/>
<path d="M12.2482 9.97774C12.1832 10.0321 12.101 10.089 12.0008 10.1482C11.9007 10.2095 11.7915 10.2515 11.6727 10.274C11.5538 10.2966 11.4284 10.2833 11.2961 10.2344C11.1648 10.1847 11.0329 10.0783 10.9002 9.91537L9.55415 8.26211C9.43679 8.11798 9.36159 7.97912 9.32856 7.84531C9.2945 7.71025 9.29055 7.58698 9.3161 7.4753C9.34186 7.36362 9.3886 7.25953 9.45652 7.16323C9.5234 7.06588 9.59777 6.98286 9.67898 6.9148C9.89688 6.73211 10.0894 6.57745 10.2566 6.4506C10.4228 6.32269 10.5701 6.21144 10.6987 6.11661C10.8293 6.02221 10.9467 5.93793 11.051 5.86376L11.5435 6.4683L10.4322 7.39944C10.3584 7.46118 10.3152 7.5265 10.3028 7.59541C10.2903 7.6641 10.3144 7.73595 10.3753 7.81076L10.6521 8.15064L11.8291 7.23214L12.2887 7.79664L11.1745 8.79226L11.4377 9.1155C11.4878 9.17682 11.5358 9.21643 11.5817 9.23434C11.6297 9.25225 11.6764 9.25626 11.7221 9.24635C11.7688 9.2354 11.8114 9.2139 11.8498 9.18145L12.9809 8.23387L13.4704 8.83504C13.3614 8.94904 13.2376 9.07336 13.0993 9.20821C12.9619 9.34202 12.8192 9.47477 12.6709 9.60668C12.5228 9.73648 12.382 9.86016 12.2482 9.97774Z" fill="black"/>
<path d="M14.7257 8.11966L13.9174 8.61105L12.9229 4.56555L13.9037 3.96901L16.952 6.76604L16.1384 7.26079L15.5979 6.74328L14.5269 7.39438L14.7257 8.11966ZM13.8119 4.95452L14.2872 6.57028L14.9943 6.14021L13.8119 4.95452Z" fill="black"/>
<path d="M18.3501 6.15159L17.5058 6.51339L15.9755 2.83916L17.4985 2.18658C17.6509 2.12126 17.7999 2.08017 17.9447 2.06352C18.0878 2.04625 18.2263 2.06226 18.3601 2.11199C18.4939 2.16151 18.6202 2.25275 18.7392 2.38571C18.8576 2.5174 18.9662 2.70199 19.0651 2.93946C19.1324 3.10087 19.1754 3.24521 19.1943 3.37227C19.2126 3.49807 19.2128 3.61038 19.1951 3.7092C19.1787 3.8074 19.1492 3.89484 19.1066 3.97112C19.064 4.04761 19.0163 4.11904 18.9635 4.18584L20.2142 5.35256L19.3561 5.72026L18.2693 4.64604C18.2365 4.66016 18.1993 4.67533 18.158 4.69134C18.116 4.70609 18.0761 4.72169 18.0379 4.73812C17.9985 4.75498 17.9584 4.77226 17.9177 4.78975C17.8769 4.80724 17.8387 4.82367 17.8032 4.83884L18.3501 6.15159ZM17.1398 3.24584L17.5215 4.16245L18.0483 3.93656C18.1075 3.91128 18.1561 3.88094 18.1941 3.84575C18.234 3.8114 18.2627 3.76841 18.2799 3.717C18.2953 3.66474 18.2994 3.60574 18.2922 3.53958C18.283 3.47278 18.26 3.39545 18.2232 3.30737C18.186 3.21803 18.1472 3.14723 18.1071 3.09539C18.0662 3.04545 18.0234 3.01174 17.9791 2.99467C17.933 2.97676 17.8838 2.97023 17.8317 2.97529C17.7808 2.97971 17.7257 2.99467 17.6665 3.01996L17.1398 3.24584Z" fill="black"/>
<path d="M21.7723 4.88246L20.8957 5.15407L19.7472 1.3393L20.624 1.06769L21.7723 4.88246Z" fill="black"/>
<path d="M23.3121 4.56407L22.3842 4.7299L22.8811 0.591053L24.0073 0.389821L25.8684 4.10745L24.9341 4.27434L24.6117 3.59521L23.3821 3.81498L23.3121 4.56407ZM23.5742 1.27693L23.4485 2.95822L24.2607 2.81304L23.5742 1.27693Z" fill="black"/>
<path d="M30.2245 4.08722L29.0818 4.03729L28.0551 0L29.0029 0.0415107L29.7002 3.05746L30.6526 0.113575L31.5896 0.154454L30.2245 4.08722Z" fill="black"/>
<path d="M32.5006 4.34387L31.5748 4.16561L33.4842 0.473475L34.6077 0.689878L35.0506 4.83505L34.1185 4.65552L34.0541 3.90454L32.8276 3.66832L32.5006 4.34387ZM33.8932 1.36374L33.1888 2.891L33.9989 3.04693L33.8932 1.36374Z" fill="black"/>
<path d="M36.5 5.32622L35.6376 5.02448L36.9194 1.25375L37.6057 1.49375L38.2533 4.27329L39.029 1.99167L39.8956 2.29468L38.6137 6.06541L37.9214 5.8233L37.2735 3.05051L36.5 5.32622Z" fill="black"/>
<path d="M40.3089 6.98834C40.0931 6.87266 39.9394 6.7338 39.8476 6.57155C39.7572 6.41014 39.7153 6.22871 39.7217 6.02748C39.7281 5.82604 39.7724 5.60921 39.8548 5.37637C39.9367 5.14185 40.0443 4.89637 40.1774 4.64035C40.3214 4.36368 40.4689 4.1241 40.6197 3.92139C40.7717 3.71953 40.935 3.5655 41.1097 3.4593C41.2852 3.35183 41.4817 3.30316 41.6992 3.31327C41.9162 3.32149 42.1622 3.39924 42.4374 3.54674C42.6092 3.63883 42.7575 3.72732 42.8829 3.81224C43.0082 3.89737 43.1229 3.98419 43.2267 4.07269C43.3295 4.16055 43.4338 4.25327 43.5397 4.35104L43.2086 4.98676C43.1438 4.94062 43.0612 4.88394 42.9604 4.81693C42.8591 4.75119 42.744 4.67891 42.6156 4.60031C42.487 4.52151 42.3495 4.44312 42.2031 4.36452C42.0149 4.2638 41.8572 4.21934 41.7299 4.23135C41.6007 4.244 41.4804 4.31964 41.3695 4.45829C41.2573 4.59631 41.1302 4.80176 40.9879 5.07463C40.8778 5.28598 40.7971 5.46298 40.7455 5.60563C40.6926 5.74765 40.667 5.8665 40.6687 5.96237C40.6697 6.05951 40.6969 6.14042 40.7505 6.20532C40.8027 6.26938 40.8756 6.32649 40.969 6.37642C41.0901 6.44132 41.206 6.49358 41.3161 6.53299C41.4258 6.57049 41.5143 6.59746 41.5816 6.61369L41.8736 6.05277L41.3265 5.75966L41.6655 5.10835C41.7384 5.13595 41.8225 5.17114 41.9181 5.21413C42.0136 5.25711 42.1138 5.30347 42.2187 5.3532C42.3223 5.40229 42.4164 5.44928 42.5009 5.49459C42.6096 5.55274 42.7047 5.60542 42.7868 5.65262C42.8694 5.69856 42.9432 5.74302 43.008 5.786L41.9418 7.83372L41.3321 7.50712L41.3481 7.21106C41.2368 7.22013 41.0847 7.21149 40.8918 7.18515C40.7 7.15944 40.5058 7.09391 40.3089 6.98834Z" fill="black"/>
<path d="M43.843 9.25668C43.6673 9.12519 43.5136 8.98865 43.3823 8.84726C43.2506 8.70376 43.1553 8.54952 43.0961 8.38474C43.0369 8.21975 43.0258 8.04339 43.063 7.85522C43.1004 7.66726 43.1987 7.46371 43.3582 7.24457L44.9306 5.0818L45.6682 5.63366L44.0983 7.79306C44.0287 7.88872 43.9936 7.98101 43.9926 8.07015C43.9907 8.16054 44.0191 8.24841 44.0777 8.33375C44.1355 8.42014 44.2196 8.50464 44.3299 8.58703C44.4379 8.66794 44.5411 8.72357 44.6396 8.75412C44.7385 8.78657 44.8295 8.78826 44.913 8.75876C44.9967 8.73137 45.0733 8.67005 45.1427 8.57439L46.7126 6.4152L47.4502 6.96706L45.8778 9.12983C45.7185 9.34897 45.5565 9.5049 45.3915 9.5974C45.2256 9.68906 45.0555 9.73015 44.8816 9.72067C44.7088 9.71203 44.5366 9.66589 44.3648 9.58223C44.1938 9.49752 44.02 9.38901 43.843 9.25668Z" fill="black"/>
<path d="M46.049 11.1188L45.3849 10.4405L49.0185 8.49158L49.8242 9.31463L47.8781 12.987L47.2095 12.3042L47.5751 11.6479L46.6954 10.7492L46.049 11.1188ZM48.8592 9.46023L47.4267 10.3155L48.0077 10.9091L48.8592 9.46023Z" fill="black"/>
<path d="M48.8004 14.2167L48.252 13.4716L51.4022 11.0848L52.3916 12.4286C52.4907 12.5632 52.5654 12.7 52.6159 12.8388C52.6668 12.9756 52.6845 13.1159 52.6691 13.2596C52.6537 13.4033 52.5966 13.5496 52.4977 13.6985C52.4001 13.8467 52.2495 13.9978 52.046 14.152C51.9076 14.2569 51.7797 14.3338 51.6625 14.3829C51.5464 14.431 51.439 14.4582 51.3403 14.4643C51.2423 14.4716 51.1517 14.4634 51.0682 14.4398C50.9849 14.4162 50.905 14.3863 50.8285 14.3503L50.0114 15.8615L49.4539 15.1044L50.222 13.7767C50.2006 13.7476 50.1773 13.7148 50.152 13.6781C50.1279 13.6404 50.1034 13.6048 50.0785 13.5711C50.0529 13.5363 50.0267 13.5009 50.0004 13.4649C49.9738 13.4288 49.949 13.3953 49.926 13.3639L48.8004 14.2167ZM51.2917 12.3291L50.5059 12.9244L50.848 13.3892C50.8865 13.4415 50.9272 13.4821 50.97 13.5112C51.0126 13.5424 51.0603 13.5603 51.1137 13.5649C51.1673 13.5677 51.2251 13.5576 51.2863 13.5344C51.348 13.5093 51.4166 13.4682 51.4922 13.4109C51.5688 13.3528 51.6272 13.2978 51.6673 13.2457C51.7053 13.1935 51.7273 13.1433 51.7331 13.0955C51.7392 13.0457 51.7335 12.9956 51.7163 12.9457C51.6999 12.8968 51.6725 12.846 51.634 12.7937L51.2917 12.3291Z" fill="black"/>
<path d="M51.1376 17.9564L50.3254 16.441L53.7798 14.5357L54.5922 16.0512C54.7251 16.2994 54.7903 16.5272 54.7876 16.7345C54.7864 16.9412 54.7334 17.1353 54.6291 17.3165C54.5253 17.4958 54.3774 17.6623 54.1852 17.8161C53.995 17.9706 53.7756 18.1162 53.5272 18.2533C53.1309 18.4718 52.7815 18.6052 52.479 18.6533C52.1772 18.7026 51.9161 18.6687 51.6955 18.5513C51.4737 18.4346 51.2878 18.2363 51.1376 17.9564ZM53.4952 15.7511L51.4839 16.8605L51.8154 17.4788C51.8844 17.6073 51.9745 17.6893 52.0863 17.7251C52.1974 17.7594 52.3363 17.752 52.5033 17.7027C52.6703 17.6534 52.8666 17.5666 53.0924 17.4421C53.307 17.3239 53.4742 17.2158 53.5943 17.1184C53.7162 17.0215 53.7997 16.9317 53.8448 16.8491C53.8911 16.7659 53.9108 16.6858 53.9038 16.6089C53.8961 16.5307 53.8703 16.4509 53.8267 16.3695L53.4952 15.7511Z" fill="black"/>
<path d="M52.274 20.5139L51.9587 19.6131L56.0644 19.4226L56.4473 20.516L53.1425 22.995L52.8251 22.0881L53.4316 21.6528L53.0139 20.4593L52.274 20.5139ZM55.513 20.2298L53.8579 20.3837L54.1337 21.1717L55.513 20.2298Z" fill="black"/>
<path d="M1.64408 39.5429L1.13642 37.9353L4.88093 36.7187L5.36574 38.2537C5.49079 38.6496 5.49328 38.9636 5.37301 39.1958C5.25337 39.4293 5.03713 39.597 4.72452 39.6986C4.58036 39.7453 4.44597 39.7662 4.32155 39.7609C4.19837 39.7553 4.08808 39.7266 3.99066 39.6745C3.89428 39.6208 3.81472 39.5424 3.7522 39.4396C3.75884 39.5273 3.75157 39.6179 3.73018 39.7114C3.71003 39.8046 3.67077 39.8935 3.61199 39.9778C3.55321 40.0623 3.47697 40.1388 3.38308 40.2074C3.29065 40.2755 3.17703 40.3313 3.04243 40.375C2.79358 40.4559 2.57943 40.4776 2.39955 40.4403C2.22112 40.4024 2.07031 40.3069 1.94714 40.1537C1.82562 40.0016 1.72467 39.7978 1.64408 39.5429ZM2.9905 38.3091L2.19723 38.567L2.41679 39.2622C2.44067 39.338 2.47661 39.397 2.52438 39.4394C2.57091 39.4822 2.62762 39.5077 2.69471 39.5163C2.76326 39.5245 2.8424 39.514 2.93213 39.4847C3.01376 39.4581 3.07857 39.4213 3.12655 39.3736C3.17454 39.326 3.20611 39.2719 3.22127 39.2106C3.23789 39.1488 3.23415 39.0801 3.21006 39.0043L2.9905 38.3091ZM4.37743 37.8586L3.65145 38.0944L3.85647 38.744C3.88431 38.8323 3.9408 38.8901 4.02576 38.9172C4.10947 38.9448 4.20357 38.9417 4.30846 38.9075C4.44576 38.8629 4.53176 38.803 4.56645 38.7278C4.59989 38.653 4.60467 38.5784 4.5812 38.504L4.37743 37.8586Z" fill="black"/>
<path d="M2.79151 42.3961L2.37026 41.5411L6.42281 40.8446L6.9338 41.8824L3.95161 44.7515L3.52766 43.8905L4.07748 43.3835L3.51935 42.2505L2.79151 42.3961ZM5.97228 41.7141L4.34793 42.071L4.71642 42.8193L5.97228 41.7141Z" fill="black"/>
<path d="M5.00826 46.3805L4.48793 45.615L7.72499 43.3511L8.66345 44.7317C8.75755 44.8699 8.82714 45.0094 8.87242 45.1504C8.91812 45.289 8.93058 45.4298 8.91002 45.5727C8.88924 45.7155 8.82672 45.8597 8.72224 46.0048C8.61921 46.1492 8.46301 46.2944 8.25384 46.4406C8.11155 46.54 7.98111 46.6121 7.86208 46.6566C7.74431 46.7002 7.63609 46.7232 7.53701 46.7257C7.43876 46.7293 7.34861 46.7177 7.26614 46.6907C7.18368 46.6639 7.10496 46.6311 7.02997 46.5921L6.15694 48.0709L5.62809 47.2927L6.44525 45.9956C6.42489 45.9658 6.40287 45.9319 6.37899 45.8942C6.35614 45.8556 6.33308 45.819 6.3094 45.7844C6.2851 45.7486 6.26038 45.7124 6.23524 45.6755C6.21011 45.6386 6.18664 45.6038 6.16483 45.5716L5.00826 46.3805ZM7.56837 44.5901L6.76077 45.1548L7.08543 45.6323C7.12199 45.686 7.16104 45.7282 7.20258 45.7589C7.24392 45.7916 7.29107 45.8114 7.34425 45.8181C7.39784 45.823 7.45558 45.815 7.5179 45.7943C7.58042 45.7716 7.65063 45.7332 7.72831 45.6789C7.80704 45.6239 7.86748 45.571 7.90924 45.5204C7.94932 45.4696 7.973 45.4203 7.98069 45.3729C7.98858 45.3234 7.98484 45.2732 7.96947 45.2225C7.95493 45.1729 7.92938 45.1213 7.89283 45.0676L7.56837 44.5901Z" fill="black"/>
<path d="M7.97404 50.1211L6.84822 48.8781L9.74379 46.1797L10.8189 47.3667C11.0962 47.6728 11.2283 47.9567 11.2153 48.2186C11.2032 48.4816 11.0763 48.7256 10.8345 48.951C10.723 49.0549 10.6098 49.131 10.4947 49.1795C10.3807 49.2269 10.2685 49.2477 10.1586 49.2418C10.0487 49.234 9.94424 49.1967 9.84495 49.1299C9.88711 49.2066 9.91807 49.292 9.93738 49.3862C9.95774 49.4793 9.95878 49.5766 9.94029 49.6784C9.9218 49.7802 9.88421 49.882 9.8275 49.984C9.77183 50.0851 9.69186 50.1841 9.58759 50.2813C9.39524 50.4606 9.20975 50.5714 9.03111 50.614C8.85352 50.6555 8.67716 50.6332 8.50185 50.5468C8.32862 50.4604 8.15268 50.3186 7.97404 50.1211ZM8.68589 48.4283L8.0725 48.9999L8.55918 49.5375C8.61236 49.596 8.66927 49.6344 8.73034 49.6525C8.79016 49.6715 8.85227 49.6706 8.91687 49.6498C8.98251 49.6281 9.05002 49.5847 9.11919 49.52C9.18233 49.4612 9.22575 49.4001 9.24963 49.3364C9.27352 49.2728 9.27975 49.21 9.26812 49.1483C9.25752 49.0853 9.22574 49.0244 9.17278 48.9658L8.68589 48.4283ZM9.75833 47.4288L9.19687 47.952L9.65177 48.4544C9.71367 48.5227 9.78866 48.5509 9.87715 48.5393C9.96439 48.5288 10.0487 48.4858 10.1295 48.4103C10.2357 48.3113 10.289 48.2205 10.2895 48.1373C10.2888 48.0553 10.2625 47.9853 10.2103 47.9278L9.75833 47.4288Z" fill="black"/>
<path d="M10.3921 52.4504C10.3271 52.396 10.2564 52.3246 10.1804 52.2363C10.1021 52.1482 10.041 52.0471 9.99679 51.9331C9.95255 51.8191 9.94175 51.6916 9.96376 51.5504C9.98703 51.4103 10.0651 51.2588 10.1979 51.0957L11.5441 49.4424C11.6614 49.2983 11.7817 49.1971 11.9051 49.1392C12.0293 49.0798 12.1479 49.0524 12.2609 49.0568C12.3739 49.0612 12.4834 49.0882 12.5895 49.1377C12.6965 49.186 12.7906 49.2443 12.872 49.3126C13.0899 49.4953 13.276 49.6578 13.4306 49.8002C13.5857 49.9416 13.7214 50.0674 13.8371 50.1776C13.9532 50.2899 14.0568 50.3908 14.1486 50.4808L13.6561 51.0856L12.5451 50.1544C12.4713 50.0927 12.4001 50.0619 12.3309 50.0623C12.2619 50.0628 12.1971 50.1005 12.1363 50.1753L11.8594 50.5154L12.9709 51.5144L12.5112 52.0789L11.337 51.1568L11.0738 51.4802C11.0237 51.5416 10.9945 51.597 10.9859 51.6461C10.9776 51.6973 10.9826 51.7447 11.0007 51.7881C11.02 51.8325 11.0491 51.8709 11.0877 51.9031L12.2187 52.8509L11.7289 53.4523C11.5981 53.3651 11.4543 53.2654 11.2977 53.1529C11.1421 53.0414 10.9868 52.9243 10.8312 52.8014C10.6777 52.6784 10.5312 52.5614 10.3921 52.4504Z" fill="black"/>
<path d="M13.2604 54.5091L12.4522 54.0177L15.5005 51.2206L16.4813 51.8172L15.4867 55.8627L14.6729 55.3679L14.868 54.6405L13.7972 53.9894L13.2604 54.5091ZM15.5813 52.1994L14.4006 53.3864L15.1079 53.8162L15.5813 52.1994Z" fill="black"/>
<path d="M17.2407 56.6604L16.3963 56.2986L17.9266 52.6244L19.4496 53.277C19.602 53.3423 19.7348 53.422 19.8476 53.5159C19.9595 53.608 20.0447 53.7199 20.103 53.8518C20.1612 53.9837 20.1849 54.1392 20.1737 54.3186C20.1631 54.4964 20.1084 54.7042 20.0096 54.9414C19.9423 55.1028 19.8704 55.2347 19.7935 55.3372C19.7173 55.4381 19.6382 55.5167 19.5561 55.5725C19.4753 55.629 19.3929 55.6684 19.3092 55.6909C19.2254 55.7133 19.1417 55.7284 19.0578 55.7365L19.105 57.4595L18.2469 57.0916L18.2486 55.5523C18.2157 55.5382 18.1792 55.5217 18.1389 55.503C18.0992 55.4828 18.0604 55.4646 18.0223 55.4482C17.9829 55.4313 17.9428 55.4141 17.9019 55.3968C17.8612 55.3793 17.8229 55.3629 17.7876 55.3477L17.2407 56.6604ZM18.4511 53.7547L18.0693 54.6713L18.5961 54.897C18.6553 54.9223 18.7105 54.9366 18.7618 54.9397C18.814 54.9448 18.8642 54.9357 18.9126 54.9124C18.9604 54.8873 19.0048 54.8489 19.0466 54.7977C19.0873 54.7444 19.1262 54.6738 19.1627 54.5857C19.1999 54.4964 19.2229 54.4189 19.2315 54.3533C19.2383 54.2886 19.2323 54.2343 19.2136 54.19C19.1941 54.1439 19.1644 54.1036 19.1243 54.0693C19.0856 54.0354 19.0368 54.0059 18.9776 53.9804L18.4511 53.7547Z" fill="black"/>
<path d="M20.9399 58.0313L20.0632 57.7597L21.2116 53.945L22.0882 54.2166L20.9399 58.0313Z" fill="black"/>
<path d="M22.8177 58.4319L21.8896 58.2661L23.7508 54.5487L24.877 54.7499L25.3739 58.8887L24.4396 58.7216L24.3654 57.9717L23.1359 57.7519L22.8177 58.4319ZM24.1712 55.4332L23.487 56.9698L24.2989 57.1149L24.1712 55.4332Z" fill="black"/>
<path d="M30.347 58.9501L29.2046 59L27.8393 55.0672L28.7871 55.0259L29.7374 57.9698L30.4368 54.9539L31.374 54.9128L30.347 58.9501Z" fill="black"/>
<path d="M33.0322 58.6452L32.1064 58.8236L32.5492 54.6782L33.6728 54.4621L35.5821 58.1542L34.6501 58.3337L34.319 57.6588L33.0922 57.895L33.0322 58.6452ZM33.2513 55.3546L33.1477 57.0376L33.9578 56.8815L33.2513 55.3546Z" fill="black"/>
<path d="M37.4291 57.5558L36.5667 57.8575L35.2851 54.0868L35.9714 53.8466L38.1703 55.6307L37.3946 53.3489L38.2612 53.0456L39.5429 56.8166L38.8505 57.0587L36.6556 55.2803L37.4291 57.5558Z" fill="black"/>
<path d="M41.6641 55.763C41.4482 55.8787 41.2484 55.9293 41.0648 55.9145C40.8824 55.8991 40.711 55.8321 40.5507 55.7135C40.3903 55.5946 40.2387 55.4351 40.0958 55.235C39.9508 55.0341 39.8116 54.8057 39.6783 54.5495C39.5343 54.2728 39.4222 54.0143 39.3422 53.7739C39.2635 53.5326 39.23 53.309 39.2423 53.1025C39.2537 52.895 39.3247 52.7028 39.4556 52.5264C39.5846 52.3492 39.7867 52.187 40.0619 52.0393C40.2337 51.9472 40.3895 51.8728 40.5293 51.8159C40.6691 51.759 40.8045 51.7118 40.9352 51.6745C41.0646 51.6379 41.199 51.6029 41.3381 51.5694L41.6692 52.2051C41.5951 52.2333 41.5024 52.2708 41.3909 52.3174C41.2802 52.3652 41.1566 52.4209 41.0201 52.4841C40.8837 52.5475 40.742 52.6183 40.5956 52.6969C40.4074 52.7976 40.2823 52.9049 40.2204 53.0182C40.1579 53.1337 40.1517 53.277 40.2021 53.4483C40.2512 53.6202 40.3469 53.8426 40.4888 54.1152C40.5989 54.3266 40.6973 54.4941 40.7844 54.6178C40.8702 54.7421 40.9526 54.8306 41.0316 54.8833C41.1113 54.9372 41.1925 54.96 41.2754 54.9515C41.357 54.944 41.4445 54.9151 41.538 54.8649C41.6591 54.8 41.7669 54.7324 41.8612 54.6624C41.9534 54.5916 42.0253 54.5326 42.0766 54.4854L41.7845 53.9245L41.2374 54.2178L40.8982 53.5665C40.9618 53.521 41.0378 53.4704 41.1267 53.4146C41.2156 53.3588 41.3097 53.301 41.4094 53.2412C41.5076 53.182 41.5992 53.1297 41.6838 53.0844C41.7924 53.0262 41.889 52.9761 41.9736 52.934C42.0575 52.8905 42.1354 52.8539 42.2068 52.8237L43.273 54.8715L42.6632 55.1983L42.4314 55.0179C42.3761 55.1163 42.2833 55.239 42.153 55.3856C42.024 55.5316 41.861 55.6574 41.6641 55.763Z" fill="black"/>
<path d="M45.5654 53.2608C45.3897 53.3923 45.2156 53.5008 45.0436 53.5863C44.8695 53.6715 44.6961 53.7184 44.5233 53.7271C44.3505 53.7357 44.181 53.6942 44.015 53.6026C43.849 53.5109 43.6862 53.3554 43.5271 53.1365L41.9547 50.9737L42.6922 50.4216L44.2622 52.581C44.3318 52.6767 44.4082 52.738 44.4919 52.7654C44.5765 52.7938 44.6676 52.7924 44.7653 52.7605C44.8637 52.73 44.9682 52.6735 45.0785 52.5911C45.1865 52.5102 45.2694 52.4268 45.3271 52.3402C45.387 52.254 45.4154 52.1661 45.4123 52.0768C45.4113 51.9876 45.3759 51.8951 45.3066 51.7995L43.7367 49.6403L44.4745 49.0884L46.0469 51.2512C46.2062 51.4703 46.3051 51.6735 46.3435 51.8606C46.3809 52.0485 46.3693 52.2255 46.3088 52.3912C46.2496 52.5561 46.1553 52.7093 46.0259 52.8511C45.8957 52.9917 45.7422 53.1282 45.5654 53.2608Z" fill="black"/>
<path d="M48.0713 51.0672L47.4072 51.7455L45.4609 48.0732L46.2669 47.2499L49.9002 49.1991L49.2318 49.882L48.5825 49.5155L47.7026 50.4142L48.0713 51.0672ZM46.417 48.2281L47.2699 49.6753L47.8511 49.0817L46.417 48.2281Z" fill="black"/>
<path d="M51.084 47.6621L50.5354 48.4072L47.3852 46.0202L48.3746 44.6765C48.4736 44.5418 48.5817 44.4304 48.6986 44.3417C48.8135 44.2534 48.941 44.1963 49.081 44.1706C49.2212 44.1449 49.3758 44.1588 49.5446 44.2127C49.7123 44.2656 49.898 44.3693 50.1015 44.5235C50.2399 44.6284 50.3489 44.7309 50.4287 44.8309C50.5072 44.9302 50.5633 45.0269 50.5971 45.1213C50.6318 45.2144 50.6499 45.305 50.6511 45.3927C50.6524 45.4806 50.647 45.5668 50.6345 45.6513L52.295 46.0173L51.7375 46.7744L50.2648 46.4041C50.2434 46.4332 50.2189 46.4652 50.1913 46.5004C50.1624 46.5346 50.1358 46.5687 50.1109 46.6022C50.0853 46.637 50.0591 46.6724 50.0328 46.7084C50.0062 46.7444 49.9815 46.7779 49.9584 46.8093L51.084 47.6621ZM48.5925 45.7745L49.3785 46.37L49.7206 45.9052C49.759 45.8529 49.786 45.8019 49.8012 45.752C49.8184 45.7018 49.8217 45.6502 49.8111 45.5969C49.7985 45.544 49.7725 45.4909 49.7334 45.4376C49.6923 45.3847 49.634 45.3297 49.5583 45.2724C49.4817 45.2142 49.4132 45.1731 49.3525 45.1491C49.2923 45.127 49.2387 45.1198 49.1917 45.1276C49.1429 45.1358 49.0972 45.1554 49.0548 45.1866C49.0133 45.2166 48.9732 45.2576 48.9348 45.3097L48.5925 45.7745Z" fill="black"/>
<path d="M53.6416 43.5732L52.8295 45.0886L49.3751 43.1834L50.1873 41.6681C50.3203 41.4199 50.4733 41.2406 50.6464 41.1299C50.8181 41.0187 51.0074 40.9582 51.2141 40.9485C51.4189 40.9395 51.637 40.9749 51.8688 41.0549C52.1 41.1329 52.3397 41.2406 52.5881 41.3773C52.9844 41.5958 53.2848 41.8209 53.4892 42.0525C53.6942 42.2826 53.808 42.5234 53.8307 42.775C53.8548 43.0272 53.7916 43.2934 53.6416 43.5732ZM50.5354 42.7651L52.5468 43.8743L52.8781 43.2561C52.947 43.1275 52.9657 43.0059 52.9346 42.8915C52.9026 42.7784 52.821 42.664 52.6893 42.5485C52.5578 42.433 52.3791 42.3131 52.1533 42.1886C51.9388 42.0704 51.7587 41.9865 51.6129 41.9374C51.4664 41.8862 51.3468 41.8639 51.2537 41.8704C51.1596 41.8761 51.0828 41.9031 51.023 41.9509C50.9625 42 50.9104 42.0653 50.8667 42.1466L50.5354 42.7651Z" fill="black"/>
<path d="M54.9598 40.6023L54.6445 41.5031L51.3399 39.0241L51.7225 37.9307L55.8285 38.1212L55.5109 39.0281L54.7695 38.9777L54.3516 40.1712L54.9598 40.6023ZM52.2697 38.7504L53.6497 39.6901L53.9256 38.9019L52.2697 38.7504Z" fill="black"/>
<path d="M0 30.0744C0 29.2252 0.678611 28.537 1.5155 28.5368C2.3526 28.5368 3.031 29.2252 3.031 30.0744C3.031 30.9236 2.35239 31.6118 1.5155 31.6118C0.678403 31.6118 0 30.9234 0 30.0744Z" fill="black"/>
<path d="M53.969 30.0744C53.969 29.2252 54.6476 28.537 55.4845 28.5368C56.3216 28.5368 57 29.2252 57 30.0744C57 30.9236 56.3214 31.6118 55.4845 31.6118C54.6474 31.6118 53.969 30.9234 53.969 30.0744Z" fill="black"/>
<path d="M39.3843 43.0858C39.3519 43.1817 39.2902 43.2645 39.2081 43.3222C39.126 43.3798 39.0279 43.4093 38.9281 43.4063H37.9324L38.5509 40.276C38.625 40.4244 38.6916 40.5765 38.7505 40.7318L39.3975 42.7803C39.4319 42.8801 39.4272 42.9895 39.3843 43.0858ZM17.6161 43.0873C17.573 42.9909 17.568 42.8814 17.6019 42.7813L18.2415 40.7552C18.3025 40.5922 18.3718 40.4326 18.449 40.277L19.0675 43.4063H18.0718C17.9832 43.4071 17.896 43.3832 17.8199 43.3371C17.7437 43.291 17.6816 43.2246 17.6402 43.1451C17.631 43.1263 17.6229 43.1071 17.6161 43.0873ZM24.3199 40.59C24.4339 40.7277 24.5831 40.831 24.751 40.8885L26.1691 43.4063H24.9605L24.3199 40.59ZM25.812 40.7661L27.0829 40.3994C27.4742 40.7496 27.9781 40.9429 28.5 40.9429C29.0218 40.9429 29.5257 40.7496 29.917 40.3994L31.1879 40.7661L29.7007 43.4063H27.2992L25.812 40.7661ZM32.2489 40.8885C32.3478 40.8542 32.4407 40.8041 32.5241 40.7402C32.5812 40.696 32.6335 40.6456 32.68 40.59L32.0395 43.4063H30.8308L32.2489 40.8885ZM30.6435 34.0746C30.0374 34.5736 29.2805 34.8459 28.5 34.8459C27.7194 34.8459 26.9626 34.5736 26.3565 34.0746C26.0033 33.781 25.6894 33.5024 25.3902 33.2188C25.3951 33.2685 25.4049 33.3183 25.4098 33.3631C25.4623 33.8023 25.4901 34.2442 25.4932 34.6866L28.5 37.3039L31.5068 34.6866C31.5098 34.2442 31.5377 33.8023 31.5901 33.3631C31.5951 33.3133 31.6049 33.2685 31.6098 33.2188C31.3106 33.5024 30.9966 33.781 30.6435 34.0746ZM20.3232 38.2344C19.5482 38.8066 19.4305 38.9061 19.3913 38.9459C19.3324 39.0057 19.2785 39.0753 19.2245 39.135L20.0682 43.4043H21.5005L20.3232 38.2344ZM26.5723 38.8862L25.0664 37.9906V39.9461L26.5723 39.5132C26.5509 39.4101 26.5394 39.3051 26.5379 39.1997C26.5397 39.0944 26.5512 38.9894 26.5723 38.8862ZM26.5723 38.8862L25.0664 37.9906V39.9461L26.5723 39.5132C26.5509 39.4101 26.5394 39.3051 26.5379 39.1997C26.5397 39.0944 26.5512 38.9894 26.5723 38.8862ZM22.6237 37.4731C22.1465 37.5041 21.6759 37.6029 21.2258 37.7667L22.506 43.4043H23.953L22.6286 37.5726C22.6221 37.5399 22.6204 37.5063 22.6237 37.4731ZM26.5723 38.8862L25.0664 37.9906V39.9461L26.5723 39.5132C26.5509 39.4101 26.5394 39.3051 26.5379 39.1997C26.5397 39.0944 26.5512 38.9894 26.5723 38.8862ZM26.5723 38.8862L25.0664 37.9906V39.9461L26.5723 39.5132C26.5509 39.4101 26.5394 39.3051 26.5379 39.1997C26.5397 39.0944 26.5512 38.9894 26.5723 38.8862ZM28.5 38.4533C27.9702 38.4533 27.519 38.7967 27.519 39.1997C27.519 39.6077 27.9702 39.9461 28.5 39.9461C29.0297 39.9461 29.481 39.6077 29.481 39.1997C29.481 38.7967 29.0297 38.4533 28.5 38.4533ZM34.3762 37.4731C34.3795 37.5063 34.3778 37.5399 34.3713 37.5726L33.047 43.4043H34.4939L35.7742 37.7667C35.324 37.6029 34.8534 37.5041 34.3762 37.4731ZM37.6086 38.9459C37.5694 38.9061 37.4517 38.8066 36.6767 38.2344L35.4995 43.4043H36.9318L37.7754 39.135C37.7215 39.0753 37.6675 39.0057 37.6086 38.9459ZM28.5 38.4533C27.9702 38.4533 27.519 38.7967 27.519 39.1997C27.519 39.6077 27.9702 39.9461 28.5 39.9461C29.0297 39.9461 29.481 39.6077 29.481 39.1997C29.481 38.7967 29.0297 38.4533 28.5 38.4533ZM28.5 38.4533C27.9702 38.4533 27.519 38.7967 27.519 39.1997C27.519 39.6077 27.9702 39.9461 28.5 39.9461C29.0297 39.9461 29.481 39.6077 29.481 39.1997C29.481 38.7967 29.0297 38.4533 28.5 38.4533ZM30.4277 38.8862C30.4488 38.9894 30.4602 39.0944 30.462 39.1997C30.4605 39.3051 30.449 39.4101 30.4277 39.5132L31.9335 39.9461V37.9906L30.4277 38.8862ZM28.5 38.4533C27.9702 38.4533 27.519 38.7967 27.519 39.1997C27.519 39.6077 27.9702 39.9461 28.5 39.9461C29.0297 39.9461 29.481 39.6077 29.481 39.1997C29.481 38.7967 29.0297 38.4533 28.5 38.4533ZM28.5 38.4533C27.9702 38.4533 27.519 38.7967 27.519 39.1997C27.519 39.6077 27.9702 39.9461 28.5 39.9461C29.0297 39.9461 29.481 39.6077 29.481 39.1997C29.481 38.7967 29.0297 38.4533 28.5 38.4533ZM26.5723 38.8862L25.0664 37.9906V39.9461L26.5723 39.5132C26.5509 39.4101 26.5394 39.3051 26.5379 39.1997C26.5397 39.0944 26.5512 38.9894 26.5723 38.8862ZM31.909 35.6519L29.5251 37.7219C29.6751 37.8041 29.8137 37.9062 29.9371 38.0254L31.5951 37.0402C31.6413 37.0102 31.693 36.9899 31.7471 36.9805C31.8889 36.9528 32.0349 36.9572 32.1748 36.9933C32.3147 37.0294 32.445 37.0964 32.5564 37.1895C32.7261 37.33 32.8437 37.5247 32.89 37.7418L33.2824 37.0452L31.909 35.6519ZM34.2928 25.2724C34.2599 25.2869 34.2253 25.2969 34.1898 25.3022C34.1638 25.3164 34.1392 25.3331 34.1163 25.352C33.904 26.2949 33.81 27.2612 33.8367 28.228C33.9002 28.3135 33.9726 28.3919 34.0525 28.4619C34.1702 28.2429 34.386 27.5463 34.386 25.9889C34.3999 25.7462 34.3683 25.5031 34.2928 25.2724ZM33.9544 15.659C33.5718 15.4252 32.7919 15.8581 31.9629 16.3208C30.9476 16.8881 29.7949 17.53 28.5 17.53C22.8493 17.53 22.1234 19.5253 22.1234 21.2618C22.1212 21.4884 22.1376 21.7147 22.1724 21.9385C22.267 22.659 22.5111 23.3509 22.8886 23.9687L25.1204 21.0777C25.2231 20.9302 25.3543 20.8054 25.5061 20.7109C25.6579 20.6164 25.827 20.5543 26.0032 20.5282C26.1794 20.5021 26.359 20.5127 26.531 20.5593C26.703 20.6058 26.8639 20.6874 27.0039 20.7991C27.4322 21.1326 27.9568 21.3138 28.4967 21.3147C29.0366 21.3156 29.5618 21.1362 29.9911 20.8041C30.1309 20.6913 30.2919 20.6088 30.4642 20.5613C30.6366 20.5139 30.8167 20.5027 30.9934 20.5283C31.1702 20.5539 31.34 20.6159 31.4923 20.7103C31.6447 20.8048 31.7765 20.9298 31.8795 21.0777L33.9838 23.8045L34.2094 23.8095C34.6453 23.0331 34.8752 22.1553 34.8765 21.2618C34.8765 17.0871 34.3762 15.9078 33.9544 15.659ZM22.8837 25.3569C22.8546 25.3326 22.8234 25.3109 22.7905 25.2923C22.7623 25.2875 22.7344 25.2808 22.7071 25.2724C22.6311 25.5029 22.5994 25.7462 22.6139 25.9889C22.6139 27.5463 22.8297 28.2429 22.9474 28.4619C23.0273 28.3919 23.0997 28.3135 23.1633 28.228C23.1899 27.2628 23.096 26.2982 22.8837 25.3569ZM31.1095 21.6947C31.0838 21.652 31.0496 21.6151 31.0092 21.5864C30.9688 21.5577 30.9229 21.5378 30.8745 21.528C30.8261 21.5181 30.7762 21.5186 30.728 21.5293C30.6798 21.54 30.6343 21.5608 30.5944 21.5902C29.9943 22.0569 29.2594 22.3103 28.5032 22.3112C27.7471 22.3121 27.0116 22.0605 26.4104 21.5952C26.3706 21.5648 26.325 21.5431 26.2765 21.5316C26.228 21.5201 26.1777 21.519 26.1287 21.5283C26.0798 21.5377 26.0333 21.5573 25.9923 21.586C25.9513 21.6146 25.9166 21.6517 25.8905 21.6947L23.7028 24.531C23.7077 24.5509 23.7126 24.5757 23.7175 24.6006C23.7225 24.6243 23.729 24.6476 23.7372 24.6703V24.6852C24.1202 26.1271 24.2432 27.6274 24.1001 29.1137C24.0903 29.2132 24.0854 29.3227 24.0854 29.4322C24.0854 30.3975 25.1106 31.7708 26.9745 33.2984C27.4054 33.654 27.9436 33.8485 28.4991 33.8494C29.0545 33.8503 29.5934 33.6575 30.0254 33.3034C31.8894 31.7708 32.9145 30.3975 32.9145 29.4322C32.9145 29.3227 32.9096 29.2132 32.8998 29.1037C32.7632 27.6655 32.8744 26.2141 33.2284 24.8146C33.2333 24.7996 33.2382 24.7698 33.2481 24.7399L33.2726 24.6504C33.2824 24.6106 33.2873 24.5708 33.2971 24.526L31.1095 21.6947ZM28.0095 28.9744H28.9905C29.1206 28.9744 29.2453 29.0268 29.3373 29.1201C29.4293 29.2134 29.481 29.34 29.481 29.472C29.481 29.6039 29.4293 29.7305 29.3373 29.8238C29.2453 29.9171 29.1206 29.9695 28.9905 29.9695H28.0095C27.8794 29.9695 27.7546 29.9171 27.6626 29.8238C27.5706 29.7305 27.519 29.6039 27.519 29.472C27.519 29.34 27.5706 29.2134 27.6626 29.1201C27.7546 29.0268 27.8794 28.9744 28.0095 28.9744ZM26.5379 26.4865V26.984C26.5379 27.116 26.4863 27.2426 26.3943 27.3359C26.3023 27.4292 26.1775 27.4816 26.0474 27.4816C25.9173 27.4816 25.7926 27.4292 25.7006 27.3359C25.6086 27.2426 25.5569 27.116 25.5569 26.984V26.4865H25.0664C24.9363 26.4865 24.8116 26.434 24.7196 26.3407C24.6276 26.2474 24.5759 26.1208 24.5759 25.9889C24.5759 25.8569 24.6276 25.7303 24.7196 25.637C24.8116 25.5437 24.9363 25.4913 25.0664 25.4913H27.0284C27.1585 25.4913 27.2833 25.5437 27.3753 25.637C27.4673 25.7303 27.519 25.8569 27.519 25.9889C27.519 26.1208 27.4673 26.2474 27.3753 26.3407C27.2833 26.434 27.1585 26.4865 27.0284 26.4865H26.5379ZM29.481 31.9599H27.519C27.3889 31.9599 27.2641 31.9075 27.1721 31.8141C27.0801 31.7208 27.0284 31.5943 27.0284 31.4623C27.0284 31.3303 27.0801 31.2038 27.1721 31.1105C27.2641 31.0171 27.3889 30.9647 27.519 30.9647H29.481C29.6111 30.9647 29.7358 31.0171 29.8278 31.1105C29.9198 31.2038 29.9715 31.3303 29.9715 31.4623C29.9715 31.5943 29.9198 31.7208 29.8278 31.8141C29.7358 31.9075 29.6111 31.9599 29.481 31.9599ZM31.9335 26.4865H31.443V26.984C31.443 27.116 31.3913 27.2426 31.2993 27.3359C31.2073 27.4292 31.0826 27.4816 30.9525 27.4816C30.8224 27.4816 30.6976 27.4292 30.6056 27.3359C30.5137 27.2426 30.462 27.116 30.462 26.984V26.4865H29.9715C29.8414 26.4865 29.7166 26.434 29.6246 26.3407C29.5327 26.2474 29.481 26.1208 29.481 25.9889C29.481 25.8569 29.5327 25.7303 29.6246 25.637C29.7166 25.5437 29.8414 25.4913 29.9715 25.4913H31.9335C32.0636 25.4913 32.1884 25.5437 32.2803 25.637C32.3723 25.7303 32.424 25.8569 32.424 25.9889C32.424 26.1208 32.3723 26.2474 32.2803 26.3407C32.1884 26.434 32.0636 26.4865 31.9335 26.4865ZM25.091 35.6519L23.7175 37.0452L24.1099 37.7418C24.1651 37.4889 24.3154 37.2678 24.5289 37.1256C24.7424 36.9834 25.0021 36.9313 25.2528 36.9805C25.3069 36.9899 25.3586 37.0102 25.4049 37.0402L27.0628 38.0254C27.1863 37.9062 27.3248 37.8041 27.4748 37.7219L25.091 35.6519Z" fill="black"/>
</svg>
